<?xml version="1.0" encoding="utf-8"?>
<!-- Generator: Adobe Illustrator 13.0.0, SVG Export Plug-In . SVG Version: 6.00 Build 14948)  -->
<!DOCTYPE svg PUBLIC "-//W3C//DTD SVG 1.1//EN" "http://www.w3.org/Graphics/SVG/1.1/DTD/svg11.dtd">
<svg version="1.1" id="レイヤー_1" xmlns="http://www.w3.org/2000/svg" xmlns:xlink="http://www.w3.org/1999/xlink" x="0px"
	 y="0px" width="102.189px" height="100px" viewBox="0 0 102.189 100" enable-background="new 0 0 102.189 100"
	 xml:space="preserve">
<g>
	<defs>
		<circle id="SVGID_1_" cx="50.563" cy="50" r="50"/>
	</defs>
	<use xlink:href="#SVGID_1_"  overflow="visible" fill="#791F52"/>
	<clipPath id="SVGID_2_">
		<use xlink:href="#SVGID_1_"  overflow="visible"/>
	</clipPath>
	<g clip-path="url(#SVGID_2_)">
		<g>
			<path fill="#FFFFFF" d="M42.42,71.95c0.066,0.023,5.658,1.381,7.064,6.285c0.029,0.096,0.932,0,0.932,0s0.376-3.766,9.637-7.357
				c6.127-2.373,11.646-7.85,14.002-12.848s3.627-9.837,3.141-16.212c-0.76-9.975-2.568-11.338-5.211-16.764
				c-3.326-6.838-9.361-11.797-13.428-13.727c-4.072-1.925-7.68-2.32-13.75-0.961c0,0-4.176,1.051-8.027,4.318
				c-4.435,3.764-5.135,5.785-6.637,7.857c-1.496,2.071-4.971,7.711-6.355,15.632c-1.111,6.35-0.145,10.713,0,11.428
				c0.142,0.711,0.859,4.225,1.645,5.868C26.218,57.11,29.122,67.05,42.42,71.95z"/>
			<path fill="#791F52" d="M64.88,17.431c6.084,6.098,7.893,11.74,9.002,15.151c1.061,3.258,2.418,6.61,1.887,14.398
				c-0.588,8.612-5.402,14.622-7.541,16.999c-2.143,2.381-5.957,4.82-12.625,7.617c-4.465,1.875-5.549,4.68-5.639,4.484
				c-1.473-3.191-6.109-4.961-8.045-5.719C38.481,69.017,28.793,63.704,26,53.044c-2.083-7.955-1.188-13.695-0.951-14.884
				c0.236-1.193,2.149-9.598,8.139-18.191c2.528-3.629,7.412-6.458,9.794-7.615c2.477-1.203,6.921-2.078,11.892-0.973
				C59.14,12.332,64.099,16.645,64.88,17.431z"/>
			<path fill="#FFFFFF" d="M50.149,40.021c0,0-4.717-0.568-9.225,3.414c-3.475,3.068-5.132,6.465-5.672,11.273
				c-0.407,3.623,0.502,7.969,2.865,11.061c1.889,2.475,3.356,4.943,8.229,6.107c4.692,1.125,9.512,0.346,13.092-3.113
				c2.996-2.895,5.465-7.102,5.418-13.473c-0.043-6.012-3.59-10.177-6.24-12.369C55.905,40.674,52.364,40.021,50.149,40.021z"/>
			<circle fill="#FFFFFF" cx="40.783" cy="23.966" r="8.455"/>
			<path fill="#FFFFFF" d="M59.435,32.421c4.668,0,8.453-3.787,8.453-8.456s-3.785-8.454-8.453-8.454
				c-4.672,0-8.458,3.785-8.458,8.454S54.763,32.421,59.435,32.421z"/>
			<circle fill="#791F52" cx="40.783" cy="23.965" r="3.39"/>
			<circle fill="#791F52" cx="59.435" cy="23.965" r="3.39"/>
			<path fill="#791F52" d="M49.466,23.778L38.659,34.583c0,0-0.913,0.433-0.146,1.363c1.082,1.309,10.713,10.904,10.713,10.904
				s0.924,1.119,1.558,0.244c0.606-0.838,11.103-10.952,11.103-10.952s0.928-0.634-0.094-1.511
				c-0.943-0.805-10.668-10.904-10.668-10.904S50.295,22.706,49.466,23.778z"/>
			<path fill="#FFFFFF" d="M49.954,24.751L39.727,34.875c0,0-0.533,0.244-0.045,0.729c0.485,0.488,10.078,10.176,10.078,10.176
				s0.246,0.487,0.729,0c0.488-0.488,10.233-10.076,10.233-10.076s0.291-0.293-0.146-0.682
				c-0.594-0.525-10.034-10.223-10.034-10.223S50.2,24.361,49.954,24.751z"/>
			<path fill="#791F52" d="M49.713,28.255l-9.105,6.766c0,0-0.342,0.293,0,0.535c0.341,0.244,8.958,8.471,8.958,8.471
				s0.61,0.658,1.022,0.1c0.038-0.053,9.01-8.229,9.01-8.229s0.871-0.376,0.1-0.682c-0.027-0.007-9.209-6.96-9.209-6.96
				S50.101,27.961,49.713,28.255z"/>
		</g>
		<path d="M35.141,67.796v6.756c0,0-2.598,1.854-3.544,4.236c-1.112,2.797-0.655,2.957-0.655,5.365c0,0.074-0.949,0.256-1.314,1.461
			c-0.367,1.205-0.037,2.41,0.033,2.668c0.076,0.256,0.734,1.496,1.865,1.496c0.949,0,16.838,0,16.838,0s1.332-0.652,1.42-1.533
			c0.1-0.957,0-2.41,0-2.41s-0.209-1.352-1.278-1.582c-0.05-0.012,0.862-3.521-1.169-6.6c-1.231-1.871-1.861-2.078-2.262-2.557
			c-0.404-0.475-0.584-0.838-0.623-1.387c-0.033-0.551,0-1.459,0-1.459L35.141,67.796z"/>
		<path fill="#009944" d="M36.493,69.073l-0.037,4.203c0,0,2.973-2.418,6.902-0.387l0.072-0.605c0,0-1.688-0.488-3.469-1.352
			C37.809,69.897,36.966,69.401,36.493,69.073z"/>
		<path fill="#FFFFFF" d="M34.85,84.081h9.749c0,0-1.79-2.189-4.929-2.154C36.711,81.962,35.286,83.534,34.85,84.081z"/>
		<path fill="#E8EC8F" d="M46.668,78.923c0,0,0.899,1.377,0.658,5.16c-0.002,0.023-1.094,0.023-1.094,0.023
			s-0.919-1.639-1.951-1.898c-0.293-0.07-0.338-0.389,0-0.508c0.341-0.125,0.658-0.467,0.708-0.854
			c0.045-0.389-0.026-0.83,0.192-0.926C45.404,79.825,46.256,79.704,46.668,78.923z"/>
		<path fill="#E8EC8F" d="M34.278,79.921c0.219,0.096,0.146,0.537,0.193,0.926c0.053,0.387,0.367,0.729,0.708,0.854
			c0.341,0.119,0.291,0.438,0,0.508c-1.034,0.26-1.948,1.898-1.948,1.898s-1.094,0-1.096-0.023c-0.244-3.783,0.658-5.16,0.658-5.16
			C33.208,79.704,34.059,79.825,34.278,79.921z"/>
		<path fill="#E8EC8F" d="M39.793,80.569c0.771,0,2.026,0.242,2.026,0.242c-0.409-1.135-2.064-0.986-2.064-0.986
			c-1.052,0-1.534,0.361-1.925,0.996C37.831,80.821,38.801,80.569,39.793,80.569z"/>
		<path fill="#FFFFFF" d="M43.993,80.14c-0.35-0.652-1.662-2.705-4.385-2.752c-2.331-0.037-3.684,1.986-4.09,2.736
			c0,0-0.223,0.346,0.08,0.555c0.17,0.113,0.27,0.188,0.426,0.256c0,0,0.228,0.199,0.391-0.068c0.339-0.553,1.424-2.232,3.193-2.309
			c2.018-0.088,3.071,1.576,3.4,2.141c0,0-0.026,0.193,0.289,0.092l0.605-0.35c0,0,0.189,0.035,0.09-0.354"/>
		<path fill="#FFFFFF" d="M39.415,74.833c0,0-3.31-0.086-5.357,2.824c-0.523,0.74,0.537,1.193,0.926,0.83
			c0.59-0.555,2.336-2.393,4.502-2.363c2.169,0.023,3.857,0.848,4.823,2.166c0.306,0.42,1.556,0.129,1.243-0.559
			C45.172,76.909,43.286,74.808,39.415,74.833z"/>
		<path fill="#E8EC8F" d="M37.516,73.599c0,0,0.778-0.652,2.49-0.676c1.416-0.021,1.837,0.266,2.417,0.652L41.7,73.841
			c0,0-0.801-0.293-1.773-0.293c-0.955,0-1.511,0.146-1.755,0.342L37.516,73.599z"/>
		<path fill="#FFFFFF" d="M31.465,85.358h16.25c0,0,0.766,0.184,0.766,0.695c0,0.51,0,1.719,0,1.719s0.109,0.619-0.582,0.654
			c-0.695,0.037-16.325,0-16.325,0s-0.731-0.107-0.767-0.654c-0.039-0.551,0-1.793,0-1.793S30.807,85.323,31.465,85.358z"/>
		<path d="M55.601,72.251c0,0,0.035,0.908,0,1.459c-0.035,0.549-0.223,0.912-0.623,1.387c-0.402,0.479-1.027,0.686-2.262,2.557
			c-2.032,3.078-1.122,6.588-1.17,6.6c-1.07,0.23-1.281,1.582-1.281,1.582s-0.097,1.453,0,2.41c0.092,0.881,1.428,1.533,1.428,1.533
			s15.885,0,16.838,0c1.131,0,1.789-1.24,1.859-1.496c0.074-0.258,0.404-1.463,0.039-2.668s-1.316-1.387-1.316-1.461
			c0-2.408,0.455-2.568-0.654-5.365c-0.945-2.383-3.545-4.236-3.545-4.236v-6.756L55.601,72.251z"/>
		<path fill="#009944" d="M60.091,70.933c-1.779,0.863-3.467,1.352-3.467,1.352l0.072,0.605c3.928-2.031,6.904,0.387,6.904,0.387
			l-0.037-4.203C63.089,69.401,62.243,69.897,60.091,70.933z"/>
		<path fill="#FFFFFF" d="M60.386,81.927c-3.139-0.035-4.934,2.154-4.934,2.154h9.754C64.765,83.534,63.345,81.962,60.386,81.927z"
			/>
		<path fill="#E8EC8F" d="M54.87,79.921c0.217,0.096,0.146,0.537,0.193,0.926c0.047,0.387,0.365,0.729,0.707,0.854
			c0.342,0.119,0.291,0.438,0,0.508c-1.033,0.26-1.953,1.898-1.953,1.898s-1.094,0-1.094-0.023c-0.242-3.783,0.658-5.16,0.658-5.16
			C53.794,79.704,54.651,79.825,54.87,79.921z"/>
		<path fill="#E8EC8F" d="M67.261,78.923c0,0,0.9,1.377,0.658,5.16c-0.002,0.023-1.096,0.023-1.096,0.023s-0.914-1.639-1.949-1.898
			c-0.293-0.07-0.34-0.389,0-0.508c0.342-0.125,0.658-0.467,0.705-0.854c0.051-0.389-0.023-0.83,0.195-0.926
			C65.995,79.825,66.847,79.704,67.261,78.923z"/>
		<path fill="#E8EC8F" d="M62.222,80.821c-0.387-0.635-0.873-0.996-1.922-0.996c0,0-1.654-0.148-2.068,0.986
			c0,0,1.26-0.242,2.031-0.242C61.251,80.569,62.222,80.821,62.222,80.821z"/>
		<path fill="#FFFFFF" d="M56.058,80.087c-0.094,0.389,0.09,0.354,0.09,0.354l0.611,0.35c0.313,0.102,0.285-0.092,0.285-0.092
			c0.33-0.564,1.381-2.229,3.402-2.141c1.768,0.076,2.855,1.756,3.191,2.309c0.166,0.268,0.395,0.068,0.395,0.068
			c0.152-0.068,0.252-0.143,0.424-0.256c0.303-0.209,0.078-0.555,0.078-0.555c-0.402-0.75-1.756-2.773-4.088-2.736
			c-2.725,0.047-4.033,2.1-4.385,2.752"/>
		<path fill="#FFFFFF" d="M54.505,77.731c-0.318,0.688,0.932,0.979,1.242,0.559c0.965-1.318,2.654-2.143,4.818-2.166
			c2.168-0.029,3.916,1.809,4.508,2.363c0.389,0.363,1.443-0.09,0.924-0.83c-2.051-2.91-5.355-2.824-5.355-2.824
			C56.771,74.808,54.884,76.909,54.505,77.731z"/>
		<path fill="#E8EC8F" d="M61.882,73.89c-0.242-0.195-0.801-0.342-1.752-0.342c-0.973,0-1.775,0.293-1.775,0.293l-0.725-0.266
			c0.578-0.387,1.004-0.674,2.414-0.652c1.715,0.023,2.496,0.676,2.496,0.676L61.882,73.89z"/>
		<path fill="#FFFFFF" d="M69.249,85.979c0,0,0.033,1.242,0,1.793c-0.037,0.547-0.768,0.654-0.768,0.654s-15.635,0.037-16.326,0
			c-0.696-0.035-0.585-0.654-0.585-0.654s0-1.209,0-1.719c0-0.512,0.768-0.695,0.768-0.695h16.252
			C69.249,85.323,69.249,85.979,69.249,85.979z"/>
		<path fill="#791F52" stroke="#791F52" d="M86.327,83.698c-7.664,4.311-13.75,11.25-13.75,11.25s-41.234,1.552-45.25-0.5
			c-4.016-2.053-13.569-11.384-19.833-19.25C0.814,66.81,0.51,50.68,0.51,50.68l30.629-0.015h35.313h34.123
			C100.575,50.665,93.991,79.386,86.327,83.698z"/>
		<polygon fill="#FFFFFF" points="100.575,50.847 78.672,62.563 21.842,62.563 0.494,51.031 0.494,51.031 31.48,50.871 
			67.441,50.871 102.189,50.871 		"/>
		<g>
			<rect x="47.862" y="47.961" fill="#791F52" width="3.435" height="9.389"/>
			<circle fill="#791F52" cx="49.58" cy="57.067" r="1.718"/>
		</g>
		<circle fill="#FFFFFF" stroke="#791F52" cx="49.58" cy="45.222" r="4.445"/>
		<path fill="none" stroke="#791F52" stroke-linecap="round" d="M45.299,44.796c2.269,2.463,6.1,2.62,8.563,0.352"/>
		<polygon fill="#FFFFFF" points="20.742,90.362 20.135,89.785 20.135,63.302 20.742,63.302 		"/>
		<rect x="78.438" y="64.302" fill="#FFFFFF" width="0.484" height="26.813"/>
		<g>
			<path fill="#FFFFFF" d="M70.718,50.704c0.082,0.641,0.137,1.988,0.854,2.678c0.895,0.863,1.236,1.176,2.426,0.162
				c0.928-0.789,2.182-2.748,2.193-2.73c0.396,0.594,1.223,2.016,2.514,3.035c0.82,0.65,3.715,2.545,4.109,2.049
				c0.393-0.49,0.555-1.379,0.441-2.627c-0.104-1.133-0.324-3.014-0.412-3.004c-0.365,0.043,1.172,0.748,2.287,1.068
				c0.455,0.131,0.895,0.188,1.32,0.199c0.92,0.027,1.771-0.154,2.541-0.252c1.107-0.139,1.129-0.49,0.922-1.021
				c-0.203-0.533-1.748-3.168-2.365-4.051c-0.621-0.88-2.26-3.673-3.633-4.688c-1.369-1.01-3.135-3.058-6.33-3.021
				c-3.152,0.039-5.031,2.217-5.031,2.217S69.985,44.832,70.718,50.704z"/>
			<path fill="#791F52" d="M75.558,40.246c-1.443,0.453-2.598,2.214-2.598,2.214s-1.688,4.721-1.029,7.085
				c0.184,0.658,0.209,2.703,0.863,2.957c0.311,0.123,0.768-0.426,1.117-0.879c0.352-0.457,1.398-2.069,1.844-2.548
				c0.449-0.482,0.912-0.328,1.09,0.072c0.207,0.463-0.096,0.629,1.572,2.621c1.102,1.307,3.27,2.307,3.27,2.307
				s0.406-0.234,0.262-0.922c-0.146-0.713-0.127-1.27-0.432-2.443c-0.305-1.169-0.541-1.794-0.227-2.191
				c0.314-0.395,0.674-0.372,2.275,0.839c1.393,1.055,3.504,0.858,4.105,0.76c0.883-0.145,0.23-0.794-0.145-1.431
				c-0.373-0.631-1.258-2.305-3.412-5.053c-2.348-2.994-4.709-3.352-4.709-3.352C78.2,39.652,76.788,39.866,75.558,40.246z"/>
		</g>
		<g>
			<path fill="#FFFFFF" d="M29.268,43.136c0,0-1.139-2.641-4.14-3.623c-3.032-0.996-5.334,0.429-6.946,0.98
				c-1.611,0.556-4.012,2.727-4.866,3.381c-0.856,0.658-3.12,2.708-3.476,3.154c-0.355,0.445-0.445,0.787,0.573,1.252
				c1.034,0.474,2.175,1.171,3.666,1.21c1.162,0.028,2.841-0.184,2.503-0.334c-0.084-0.034-0.856,1.694-1.295,2.743
				c-0.486,1.156-0.596,2.051-0.367,2.639c0.229,0.59,3.559-0.348,4.534-0.721c1.539-0.586,2.753-1.691,3.309-2.141
				c0.017-0.014,0.626,2.23,1.272,3.264c0.83,1.324,1.249,1.127,2.363,0.572c0.893-0.441,2.67-3.486,2.902-4.09
				C30.59,48.089,29.268,43.136,29.268,43.136z"/>
			<path fill="#791F52" d="M22.863,40.666c0,0-2.359-0.37-5.497,1.782c-2.884,1.974-4.229,3.305-4.776,3.796
				c-0.545,0.492-1.365,0.918-0.565,1.321c0.541,0.273,2.5,1.095,4.145,0.507c1.893-0.676,2.238-0.588,2.422-0.116
				c0.183,0.47-0.232,0.997-0.877,2.021c-0.642,1.03-0.788,1.563-1.143,2.2c-0.344,0.613-0.027,0.959-0.027,0.959
				s2.365-0.303,3.81-1.219c2.19-1.398,1.952-1.648,2.287-2.027c0.288-0.328,0.78-0.337,1.063,0.259
				c0.282,0.59,0.791,2.439,0.988,2.982c0.197,0.539,0.473,1.205,0.806,1.176c0.415-0.043,1.217-0.283,2.517-2.885
				c1.336-2.675,0.341-6.746,0.341-6.746s-0.57-2.025-1.814-2.889C25.48,41.056,24.198,40.428,22.863,40.666z"/>
		</g>
	</g>
</g>
</svg>
