<?xml version="1.0" encoding="utf-8"?>
<!-- Generator: Adobe Illustrator 13.0.0, SVG Export Plug-In . SVG Version: 6.00 Build 14948)  -->
<!DOCTYPE svg PUBLIC "-//W3C//DTD SVG 1.1//EN" "http://www.w3.org/Graphics/SVG/1.1/DTD/svg11.dtd">
<svg version="1.1" id="レイヤー_1" xmlns="http://www.w3.org/2000/svg" xmlns:xlink="http://www.w3.org/1999/xlink" x="0px"
	 y="0px" width="101.755px" height="100px" viewBox="0 0 101.755 100" enable-background="new 0 0 101.755 100"
	 xml:space="preserve">
<g>
	<defs>
		<circle id="SVGID_1_" cx="51.755" cy="50" r="50"/>
	</defs>
	<use xlink:href="#SVGID_1_"  overflow="visible" fill="#791F52"/>
	<clipPath id="SVGID_2_">
		<use xlink:href="#SVGID_1_"  overflow="visible"/>
	</clipPath>
	<g clip-path="url(#SVGID_2_)">
		<g>
			<path fill="#FFFFFF" d="M56.244,71.297c0.066,0.023,5.686,1.387,7.098,6.314c0.029,0.096,0.935,0,0.935,0
				s0.378-3.784,9.683-7.392c6.156-2.383,11.699-7.887,14.066-12.908c2.366-5.021,3.644-9.882,3.156-16.288
				c-0.764-10.02-2.58-11.39-5.235-16.841c-3.342-6.869-9.404-11.853-13.49-13.79c-4.091-1.934-7.716-2.331-13.813-0.966
				c0,0-4.196,1.057-8.066,4.339c-4.454,3.781-5.158,5.813-6.666,7.893c-1.503,2.082-4.995,7.747-6.386,15.705
				c-1.115,6.379-0.145,10.763,0,11.481c0.143,0.716,0.863,4.245,1.653,5.896C39.967,56.389,42.882,66.374,56.244,71.297z"/>
			<path fill="#791F52" d="M78.807,16.524c6.112,6.126,7.93,11.794,9.045,15.222c1.065,3.272,2.428,6.641,1.896,14.466
				c-0.593,8.652-5.428,14.689-7.577,17.077c-2.152,2.393-5.984,4.842-12.682,7.653c-4.486,1.884-5.576,4.7-5.666,4.505
				c-1.479-3.206-6.139-4.985-8.082-5.746c-3.453-1.351-13.186-6.688-15.993-17.398c-2.093-7.992-1.194-13.76-0.956-14.953
				c0.238-1.199,2.16-9.643,8.177-18.276c2.54-3.646,7.447-6.488,9.84-7.65c2.487-1.209,6.951-2.089,11.946-0.979
				C73.041,11.4,78.021,15.734,78.807,16.524z"/>
			<path fill="#FFFFFF" d="M64.008,39.219c0,0-4.738-0.57-9.266,3.43c-3.492,3.083-5.157,6.495-5.699,11.326
				c-0.41,3.64,0.504,8.007,2.877,11.112c1.898,2.485,3.373,4.966,8.268,6.136c4.715,1.13,9.557,0.348,13.153-3.127
				c3.011-2.909,5.489-7.136,5.441-13.536c-0.042-6.041-3.605-10.225-6.267-12.427C69.792,39.876,66.234,39.219,64.008,39.219z"/>
			<circle fill="#FFFFFF" cx="54.599" cy="23.089" r="8.495"/>
			<circle fill="#FFFFFF" cx="73.336" cy="23.089" r="8.495"/>
			<path fill="#791F52" d="M52.599,27.494c1.88,0,3.403-1.521,3.403-3.405c0-1.879-1.523-3.406-3.403-3.406
				c-1.882,0-3.405,1.527-3.405,3.406C49.193,25.973,50.717,27.494,52.599,27.494z"/>
			<path fill="#791F52" d="M71.336,27.494c1.882,0,3.406-1.521,3.406-3.405c0-1.879-1.524-3.406-3.406-3.406
				c-1.881,0-3.406,1.527-3.406,3.406C67.93,25.973,69.455,27.494,71.336,27.494z"/>
			<path fill="#791F52" d="M63.322,22.9L52.465,33.755c0,0-0.918,0.436-0.146,1.371C53.404,36.44,63.08,46.081,63.08,46.081
				s0.928,1.125,1.564,0.244c0.609-0.842,11.156-11.002,11.156-11.002s0.932-0.638-0.096-1.518
				c-0.947-0.809-10.717-10.955-10.717-10.955S64.155,21.823,63.322,22.9z"/>
			<path fill="#FFFFFF" d="M63.813,23.878l-10.274,10.17c0,0-0.535,0.245-0.046,0.733c0.488,0.489,10.125,10.223,10.125,10.223
				s0.248,0.489,0.732,0c0.49-0.49,10.28-10.124,10.28-10.124s0.292-0.294-0.147-0.685c-0.598-0.528-10.08-10.27-10.08-10.27
				S64.061,23.485,63.813,23.878z"/>
			<path fill="#791F52" d="M63.57,27.398l-9.148,6.797c0,0-0.342,0.296,0,0.538c0.344,0.244,9,8.51,9,8.51s0.614,0.661,1.028,0.1
				c0.038-0.052,9.052-8.268,9.052-8.268s0.875-0.378,0.1-0.685c-0.027-0.007-9.252-6.992-9.252-6.992S63.961,27.103,63.57,27.398z"
				/>
		</g>
		<path fill="#FFFFFF" d="M70.332,74.193c0,0-3.324-0.088-5.382,2.838c-0.526,0.742,0.54,1.199,0.93,0.833
			c0.593-0.557,2.348-2.402,4.523-2.374c2.179,0.023,3.875,0.852,4.845,2.176c0.308,0.421,1.563,0.129,1.249-0.561
			C76.117,76.28,74.221,74.168,70.332,74.193z"/>
		<g>
			<path fill="#FFFFFF" d="M40.12,51.896c0.233,0.604,2.01,3.65,2.904,4.092c1.113,0.555,1.533,0.752,2.362-0.573
				c0.646-1.032,1.256-3.276,1.272-3.264c0.555,0.448,1.77,1.556,3.309,2.14c0.975,0.375,4.307,1.313,4.535,0.722
				c0.229-0.587,0.118-1.481-0.369-2.639c-0.438-1.049-1.211-2.776-1.293-2.743c-0.339,0.15,1.34,0.363,2.502,0.334
				c1.492-0.039,2.631-0.736,3.666-1.209c1.02-0.465,0.93-0.807,0.573-1.253c-0.355-0.446-2.618-2.496-3.476-3.153
				c-0.854-0.654-3.256-2.826-4.866-3.382c-1.612-0.552-3.913-1.976-6.946-0.979c-3.002,0.982-4.139,3.623-4.139,3.623
				S38.833,48.564,40.12,51.896z"/>
			<path fill="#791F52" d="M42.882,42.263c-1.244,0.864-1.814,2.89-1.814,2.89s-0.996,4.069,0.341,6.744
				c1.3,2.603,2.101,2.843,2.517,2.885c0.332,0.031,0.608-0.637,0.805-1.175c0.197-0.542,0.707-2.393,0.99-2.983
				c0.283-0.596,0.773-0.587,1.063-0.258c0.335,0.379,0.096,0.627,2.287,2.027c1.443,0.916,3.811,1.219,3.811,1.219
				s0.316-0.346-0.029-0.961c-0.354-0.635-0.5-1.169-1.142-2.199c-0.644-1.024-1.06-1.551-0.877-2.021s0.528-0.559,2.422,0.116
				c1.646,0.589,3.603-0.233,4.144-0.507c0.801-0.403-0.02-0.828-0.564-1.32c-0.548-0.492-1.893-1.822-4.775-3.797
				c-3.139-2.152-5.498-1.782-5.498-1.782C45.225,40.902,43.942,41.53,42.882,42.263z"/>
		</g>
		<path fill="#791F52" stroke="#FFFFFF" d="M48.395,54.43H1.282c0,0-0.31-9.402,1.833-17.982c2.227-8.919,8.833-17.018,8.833-17.018
			H44.71L48.395,54.43z"/>
		<rect x="0.5" y="54.43" fill="#791F52" stroke="#FFFFFF" width="62.719" height="3.5"/>
		<path fill="#FFFFFF" d="M87.281,85.114c-0.68,0.643-1.903,1.169-3.552,1.602c-6.179,1.621-18.318,1.922-30.102,2.122
			C39.925,89.07,18.522,87.3,18.522,87.3c-2.153-1.25-2.64-2.418-3.741-3.519c-10.5-10.5-12.833-26.733-12.833-26.733l99.333,0.066
			C101.281,57.114,99.615,73.448,87.281,85.114z"/>
		<path fill="#791F52" stroke="#FFFFFF" d="M93.684,56.681c1.164-0.694,0.598-2.793,0.055-3.606c-1.935-2.902-3.581-4-8-4
			c-4.418,0-7.674,2.399-8.252,4.425c-0.243,0.851-1.117,2.809-0.146,3.471C78.797,57.961,92.217,57.557,93.684,56.681z"/>
		<g>
			<path fill="#FFFFFF" d="M96.646,40.847c0,0-1.137-2.641-4.139-3.623c-3.033-0.996-5.334,0.428-6.945,0.979
				c-1.611,0.556-4.012,2.728-4.867,3.382c-0.857,0.657-3.119,2.707-3.475,3.153c-0.357,0.446-0.447,0.788,0.572,1.253
				c1.035,0.473,2.174,1.17,3.666,1.209c1.162,0.029,2.842-0.184,2.502-0.334c-0.082-0.033-0.855,1.694-1.293,2.743
				c-0.486,1.157-0.598,2.052-0.369,2.639c0.229,0.591,3.561-0.347,4.535-0.722c1.539-0.584,2.754-1.691,3.309-2.14
				c0.018-0.013,0.627,2.231,1.273,3.264c0.828,1.325,1.248,1.128,2.361,0.573c0.895-0.441,2.672-3.488,2.904-4.092
				C97.969,45.8,96.646,40.847,96.646,40.847z"/>
			<path fill="#791F52" d="M90.242,38.375c0,0-2.359-0.37-5.498,1.782c-2.883,1.975-4.227,3.305-4.775,3.797
				c-0.545,0.492-1.365,0.917-0.564,1.32c0.541,0.273,2.498,1.096,4.145,0.507c1.893-0.675,2.238-0.587,2.422-0.116
				c0.182,0.471-0.234,0.997-0.877,2.021c-0.643,1.03-0.789,1.564-1.143,2.199c-0.346,0.615-0.029,0.961-0.029,0.961
				s2.367-0.303,3.811-1.219c2.191-1.4,1.953-1.648,2.287-2.027c0.289-0.329,0.779-0.338,1.063,0.258
				c0.283,0.591,0.793,2.441,0.99,2.983c0.197,0.538,0.473,1.206,0.805,1.175c0.416-0.042,1.217-0.282,2.518-2.885
				c1.336-2.675,0.34-6.744,0.34-6.744s-0.57-2.025-1.814-2.89C92.859,38.766,91.578,38.138,90.242,38.375z"/>
		</g>
		<path fill="none" stroke="#791F52" stroke-width="1.4173" stroke-linecap="round" d="M25.564,55.813
			c2.25,2.51,4.428,4.065,6.178,7.055c1.663,2.841,3.393,5.471,6.086,7.487c6.798,5.089,14.755,5.665,23.046,4.966
			c4.338-0.365,9.23-1.151,12.941-3.631c2.398-1.604,4.416-4.64,5.918-7.058c1.721-2.769,2.814-6.083,4.982-8.385"/>
	</g>
</g>
</svg>
