<?xml version="1.0" encoding="utf-8"?>
<!-- Generator: Adobe Illustrator 13.0.0, SVG Export Plug-In . SVG Version: 6.00 Build 14948)  -->
<!DOCTYPE svg PUBLIC "-//W3C//DTD SVG 1.1//EN" "http://www.w3.org/Graphics/SVG/1.1/DTD/svg11.dtd">
<svg version="1.1" id="レイヤー_1" xmlns="http://www.w3.org/2000/svg" xmlns:xlink="http://www.w3.org/1999/xlink" x="0px"
	 y="0px" width="100px" height="100px" viewBox="0 0 100 100" enable-background="new 0 0 100 100" xml:space="preserve">
<circle fill="#791F52" cx="50" cy="50" r="50"/>
<path fill="#FFFFFF" d="M46.971,76.279H59.8c0,0,0.606,0.145,0.606,0.548c0,0.404,0,1.357,0,1.357s0.086,0.489-0.46,0.518
	c-0.551,0.028-12.89,0-12.89,0s-0.577-0.086-0.604-0.518c-0.031-0.434,0-1.415,0-1.415S46.452,76.251,46.971,76.279z"/>
<path fill="#FFFFFF" d="M76.8,76.77c0,0,0.026,0.981,0,1.415c-0.031,0.432-0.604,0.518-0.604,0.518s-12.343,0.028-12.89,0
	c-0.548-0.028-0.462-0.518-0.462-0.518s0-0.953,0-1.357c0-0.403,0.606-0.548,0.606-0.548h12.831C76.8,76.251,76.8,76.77,76.8,76.77z
	"/>
<g>
	<g>
		<g>
			<path fill="#FFFFFF" d="M81.949,41.604c0.282,0.424,0.888,1.299,1.652,1.48c0.954,0.23,1.312,0.306,1.715-0.86
				c0.316-0.908,0.385-2.744,0.4-2.736c0.508,0.247,1.639,0.881,2.926,1.059c0.818,0.114,3.546,0.245,3.614-0.25
				c0.07-0.491-0.172-1.161-0.749-1.963c-0.524-0.729-1.427-1.922-1.483-1.881c-0.232,0.176,1.095,0.042,1.985-0.187
				c1.141-0.295,1.894-1.034,2.605-1.581c0.699-0.538,0.57-0.785,0.218-1.066c-0.352-0.28-2.457-1.455-3.23-1.809
				c-0.773-0.351-3.008-1.596-4.347-1.738c-1.336-0.139-3.357-0.827-5.518,0.478c-2.131,1.288-2.539,3.521-2.539,3.521
				S81.67,41.181,81.949,41.604z"/>
			<path fill="#791F52" d="M81.058,32.55c-0.803,0.886-0.884,2.546-0.884,2.546s1.908,3.668,2.137,5.232
				c0.077,0.535,1.222,1.755,1.771,1.667c0.26-0.042,0.353-0.598,0.407-1.046c0.057-0.453,0.124-1.967,0.235-2.471
				c0.111-0.508,0.491-0.589,0.771-0.387c0.326,0.231,0.187,0.465,2.12,1.153c1.271,0.449,3.146,0.262,3.146,0.262
				s0.184-0.321-0.188-0.733c-0.386-0.426-0.595-0.811-1.272-1.49c-0.676-0.674-1.086-1.005-1.031-1.399s0.308-0.523,1.884-0.34
				c1.37,0.161,2.729-0.818,3.099-1.125c0.542-0.453-0.163-0.634-0.672-0.916c-0.505-0.281-1.777-1.065-4.345-2.073
				c-2.795-1.099-4.544-0.396-4.544-0.396C82.616,31.089,81.741,31.799,81.058,32.55z"/>
		</g>
		<g>
			<path fill="#FFFFFF" d="M43.249,44.559c0,0-0.408-2.233-2.542-3.521c-2.157-1.304-4.179-0.616-5.518-0.478
				c-1.337,0.142-3.57,1.387-4.344,1.738c-0.776,0.353-2.879,1.528-3.232,1.809c-0.353,0.281-0.483,0.528,0.217,1.065
				c0.715,0.548,1.468,1.286,2.607,1.581c0.888,0.229,2.219,0.363,1.984,0.187c-0.059-0.041-0.959,1.151-1.483,1.88
				c-0.579,0.803-0.821,1.474-0.751,1.964c0.072,0.496,2.8,0.365,3.616,0.251c1.288-0.179,2.419-0.813,2.926-1.06
				c0.016-0.007,0.086,1.829,0.4,2.736c0.402,1.167,0.76,1.091,1.715,0.86c0.767-0.182,1.37-1.057,1.652-1.48
				C40.777,51.669,43.249,44.559,43.249,44.559z"/>
			<path fill="#791F52" d="M38.759,41.522c0,0-1.749-0.703-4.546,0.396c-2.567,1.007-3.838,1.792-4.347,2.073
				c-0.507,0.282-1.213,0.463-0.668,0.916c0.367,0.306,1.729,1.286,3.099,1.125c1.574-0.183,1.825-0.054,1.884,0.34
				c0.057,0.394-0.357,0.725-1.033,1.399c-0.677,0.679-0.885,1.064-1.271,1.49c-0.374,0.411-0.192,0.733-0.192,0.733
				s1.875,0.187,3.147-0.262c1.936-0.688,1.796-0.921,2.119-1.153c0.282-0.201,0.66-0.121,0.773,0.387
				c0.111,0.504,0.175,2.019,0.23,2.471c0.057,0.449,0.149,1.012,0.412,1.047c0.327,0.041,1.988-1.244,2.101-1.771
				c0.181-0.841,1.805-5.128,1.805-5.128s-0.081-1.66-0.884-2.546C40.703,42.286,39.828,41.576,38.759,41.522z"/>
		</g>
		<path fill="#FFFFFF" d="M54.621,65.694c0.052,0.018,4.466,1.089,5.576,4.962c0.022,0.075,0.733,0,0.733,0s0.3-2.974,7.609-5.809
			c4.838-1.873,9.193-6.198,11.053-10.143c1.86-3.946,2.864-7.766,2.48-12.799c-0.6-7.874-2.028-8.95-4.113-13.234
			c-2.626-5.397-7.391-9.313-10.601-10.836c-3.214-1.52-6.063-1.832-10.854-0.758c0,0-3.296,0.83-6.338,3.408
			c-3.5,2.971-4.054,4.568-5.237,6.203c-1.183,1.635-3.926,6.088-5.019,12.34c-0.877,5.013-0.115,8.457,0,9.021
			c0.113,0.563,0.679,3.336,1.297,4.633C41.829,53.979,44.122,61.825,54.621,65.694z"/>
		<path fill="#791F52" d="M72.349,22.654c4.804,4.814,6.232,9.269,7.108,11.961c0.838,2.572,1.908,5.218,1.489,11.367
			c-0.465,6.8-4.265,11.542-5.954,13.419c-1.691,1.881-4.702,3.805-9.966,6.014c-3.524,1.48-4.379,3.693-4.449,3.541
			c-1.164-2.52-4.826-3.918-6.353-4.516c-2.714-1.063-10.362-5.256-12.567-13.672c-1.644-6.279-0.937-10.812-0.751-11.75
			c0.188-0.942,1.698-7.576,6.426-14.361c1.996-2.864,5.851-5.098,7.731-6.012c1.954-0.95,5.464-1.642,9.388-0.769
			C67.818,18.629,71.731,22.034,72.349,22.654z"/>
		<circle fill="#FFFFFF" cx="53.327" cy="27.814" r="6.675"/>
		<circle fill="#FFFFFF" cx="68.05" cy="27.814" r="6.675"/>
		<path fill="#791F52" d="M68.004,27.903c0.476,0.123,2.743,0.946,2.909,0.404c0.307-0.989-0.48-1.581-2.097-2.053
			c-1.617-0.472-3.458-0.844-3.759,0.344C64.89,27.263,67.454,27.76,68.004,27.903z"/>
		<path fill="#791F52" d="M53.479,28.086c-0.476,0.123-2.743,0.946-2.911,0.404c-0.305-0.989,0.48-1.581,2.097-2.052
			c1.619-0.472,3.46-0.844,3.761,0.344C56.593,27.446,54.028,27.943,53.479,28.086z"/>
		<path fill="#FFFFFF" d="M48.874,62.414v5.334c0,0-2.051,1.464-2.796,3.344c-0.881,2.209-0.52,2.334-0.52,4.237
			c0,0.058-0.749,0.201-1.036,1.152c-0.291,0.951-0.031,1.902,0.025,2.106c0.061,0.202,0.579,1.182,1.472,1.182
			c0.749,0,13.293,0,13.293,0s1.052-0.516,1.12-1.212c0.079-0.755,0-1.902,0-1.902s-0.165-1.067-1.009-1.248
			c-0.04-0.01,0.681-2.781-0.923-5.211c-0.973-1.477-1.468-1.641-1.784-2.019c-0.319-0.374-0.463-0.661-0.491-1.095
			c-0.026-0.434,0-1.151,0-1.151L48.874,62.414z"/>
		<path fill="#791F52" d="M49.941,63.423l-0.029,3.317c0,0,2.346-1.907,5.448-0.304l0.057-0.479c0,0-1.332-0.386-2.737-1.066
			C50.981,64.073,50.314,63.682,49.941,63.423z"/>
		<path fill="#791F52" d="M48.644,75.271h7.696c0,0-1.412-1.729-3.891-1.701C50.113,73.599,48.987,74.839,48.644,75.271z"/>
		<path fill="#791F52" d="M57.973,71.198c0,0,0.71,1.088,0.521,4.074c-0.002,0.02-0.863,0.02-0.863,0.02s-0.727-1.294-1.54-1.5
			c-0.233-0.056-0.268-0.307,0-0.402c0.269-0.097,0.52-0.367,0.558-0.672c0.035-0.307-0.021-0.656,0.15-0.73
			C56.977,71.91,57.648,71.815,57.973,71.198z"/>
		<path fill="#791F52" d="M48.191,71.987c0.174,0.074,0.115,0.424,0.153,0.73c0.041,0.305,0.29,0.575,0.559,0.672
			c0.27,0.096,0.23,0.347,0,0.402c-0.816,0.206-1.536,1.5-1.536,1.5s-0.865,0-0.867-0.02c-0.192-2.986,0.52-4.074,0.52-4.074
			C47.346,71.815,48.02,71.91,48.191,71.987z"/>
		<path fill="#791F52" d="M52.547,72.499c0.608,0,1.599,0.191,1.599,0.191c-0.321-0.896-1.63-0.78-1.63-0.78
			c-0.83,0-1.21,0.286-1.519,0.786C50.997,72.696,51.764,72.499,52.547,72.499z"/>
		<path fill="#791F52" d="M55.862,72.159c-0.276-0.514-1.312-2.135-3.461-2.172c-1.841-0.03-2.908,1.568-3.229,2.16
			c0,0-0.176,0.272,0.062,0.438c0.136,0.09,0.215,0.147,0.339,0.201c0,0,0.179,0.157,0.308-0.054
			c0.266-0.436,1.122-1.763,2.521-1.821c1.593-0.07,2.423,1.244,2.685,1.688c0,0-0.022,0.153,0.227,0.073l0.478-0.276
			c0,0,0.149,0.028,0.072-0.278"/>
		<path fill="#791F52" d="M52.248,67.972c0,0-2.614-0.07-4.229,2.229c-0.415,0.583,0.424,0.941,0.73,0.654
			c0.466-0.438,1.844-1.888,3.554-1.865c1.712,0.018,3.046,0.669,3.808,1.71c0.242,0.331,1.229,0.101,0.981-0.441
			C56.792,69.61,55.304,67.95,52.248,67.972z"/>
		<path fill="#791F52" d="M50.747,66.995c0,0,0.617-0.514,1.967-0.533c1.119-0.017,1.452,0.21,1.909,0.514l-0.572,0.212
			c0,0-0.633-0.231-1.398-0.231c-0.753,0-1.193,0.115-1.386,0.27L50.747,66.995z"/>
		<path fill="#FFFFFF" d="M65.025,65.932c0,0,0.027,0.718,0,1.151c-0.029,0.434-0.176,0.721-0.492,1.095
			c-0.317,0.378-0.811,0.542-1.785,2.019c-1.604,2.43-0.886,5.201-0.925,5.211c-0.844,0.181-1.011,1.248-1.011,1.248
			s-0.075,1.147,0,1.902c0.072,0.696,1.128,1.212,1.128,1.212s12.539,0,13.291,0c0.894,0,1.412-0.979,1.469-1.182
			c0.059-0.204,0.318-1.155,0.031-2.106c-0.289-0.951-1.04-1.095-1.04-1.152c0-1.903,0.359-2.028-0.516-4.237
			c-0.749-1.88-2.8-3.344-2.8-3.344v-5.334L65.025,65.932z"/>
		<path fill="#791F52" d="M68.571,64.892c-1.406,0.681-2.738,1.066-2.738,1.066l0.059,0.479c3.099-1.604,5.448,0.304,5.448,0.304
			l-0.029-3.317C70.938,63.682,70.269,64.073,68.571,64.892z"/>
		<path fill="#791F52" d="M68.801,73.569c-2.477-0.027-3.893,1.701-3.893,1.701h7.7C72.26,74.839,71.139,73.599,68.801,73.569z"/>
		<path fill="#791F52" d="M64.447,71.987c0.172,0.074,0.117,0.424,0.153,0.73c0.038,0.305,0.287,0.575,0.559,0.672
			c0.27,0.096,0.23,0.347,0,0.402c-0.816,0.206-1.542,1.5-1.542,1.5s-0.862,0-0.862-0.02c-0.192-2.986,0.519-4.074,0.519-4.074
			C63.599,71.815,64.275,71.91,64.447,71.987z"/>
		<path fill="#791F52" d="M74.229,71.198c0,0,0.712,1.088,0.521,4.074c-0.004,0.02-0.866,0.02-0.866,0.02s-0.721-1.294-1.538-1.5
			c-0.23-0.056-0.269-0.307,0-0.402c0.27-0.097,0.519-0.367,0.557-0.672c0.041-0.307-0.018-0.656,0.154-0.73
			C73.23,71.91,73.902,71.815,74.229,71.198z"/>
		<path fill="#791F52" d="M70.252,72.696c-0.306-0.5-0.689-0.786-1.516-0.786c0,0-1.307-0.115-1.635,0.78
			c0,0,0.993-0.191,1.604-0.191C69.487,72.499,70.252,72.696,70.252,72.696z"/>
		<path fill="#791F52" d="M65.386,72.118c-0.075,0.307,0.072,0.278,0.072,0.278l0.481,0.276c0.246,0.08,0.226-0.073,0.226-0.073
			c0.261-0.444,1.089-1.759,2.686-1.688c1.395,0.059,2.254,1.386,2.521,1.821c0.13,0.211,0.311,0.054,0.311,0.054
			c0.12-0.054,0.199-0.111,0.334-0.201c0.238-0.165,0.062-0.438,0.062-0.438c-0.318-0.592-1.386-2.19-3.227-2.16
			c-2.151,0.037-3.185,1.658-3.461,2.172"/>
		<path fill="#791F52" d="M64.16,70.258c-0.251,0.542,0.736,0.772,0.98,0.441c0.761-1.041,2.095-1.692,3.803-1.71
			c1.712-0.022,3.093,1.428,3.559,1.865c0.308,0.287,1.141-0.071,0.73-0.654c-1.619-2.299-4.229-2.229-4.229-2.229
			C65.95,67.95,64.46,69.61,64.16,70.258z"/>
		<path fill="#791F52" d="M69.983,67.226c-0.19-0.154-0.632-0.27-1.382-0.27c-0.77,0-1.404,0.231-1.404,0.231l-0.57-0.212
			c0.455-0.304,0.792-0.53,1.906-0.514c1.353,0.02,1.97,0.533,1.97,0.533L69.983,67.226z"/>
		<path fill="#FFFFFF" d="M73.645,52.532c0,0-4.67-3.195-4.577-3.164c0.734,0.245,2.949,7.619,2.949,7.619
			c-0.431-0.952-3.687-4.916-3.687-4.916c0.184,3.165-0.796,8.889-1.567,9.464c0,0-2.716-4.072-3.104-4.302l-0.276,9.556
			c0,0-3.501-3.871-3.901-4.886c-0.398-1.014-2.458-6.514-2.458-6.514c0.473,0.385-0.491,6.514-0.491,6.514s-2.232-4.57-2.458-7.619
			c-0.082-1.106-0.491,7.674-0.491,6.514c0-2.392-1.336-6.365-1.475-6.76c0,0-1.888,3.072-1.721,2.704
			c0.217-0.478-0.321-9.596,0.367-11.184c1.229-2.827,4.559-2.874,4.672-3.072c0.492-0.86,8.104,0,10.69,0
			C69.538,42.486,72.392,49.832,73.645,52.532z"/>
		<path fill="none" stroke="#FFFFFF" stroke-width="0.75" stroke-linecap="round" stroke-linejoin="round" d="M48.544,37.002
			c-1.461,0.103-3.566,2.045-4.399,3.227"/>
		<path fill="none" stroke="#FFFFFF" stroke-width="0.75" stroke-linecap="round" stroke-linejoin="round" d="M71.424,35.976
			c1.461,0.103,3.564,2.045,4.4,3.227"/>
		<path fill="none" stroke="#791F52" stroke-width="0.5" stroke-linecap="round" stroke-linejoin="round" d="M73.937,29.92
			c-0.39-0.638-0.969-1.072-1.651-1.469"/>
		<path fill="none" stroke="#791F52" stroke-width="0.5" stroke-linecap="round" stroke-linejoin="round" d="M72.132,27.305
			c0.511-0.071,0.987-0.143,1.515-0.138"/>
		<path fill="#791F52" stroke="#FFFFFF" stroke-width="0.5" d="M94.239,26.917c0.78,0.812,0.097,5.637-1.021,6.002
			c-1.478,0.482,0.252-4.182-0.795-5.467c-1.137-1.394-1.592-1.822-2.841-1.608c-1.458,0.25-3.637,1.822-3.75,6.753
			c-0.073,3.179-0.233,8.23-0.568,13.077c-0.449,6.481-0.567,14.793-0.455,21.331c0.128,7.311,0.548,10.66,0.229,10.827
			c-1.023,0.536-0.006,0.107-1.023,0.107c-1.849,0,0.031-43.099,0.112-44.593c0.114-2.037,0.343-2.908,0.343-4.02
			c0-1.295,0.628-2.471,1.646-3.33c1.053-0.888,2.523-1.44,4.148-1.44C92.106,24.559,93.178,25.812,94.239,26.917z"/>
		<g>
			<path fill="#791F52" d="M60.184,27.665l-8.532,8.53c0,0-0.72,0.342-0.116,1.076c0.855,1.034,8.456,8.609,8.456,8.609
				s0.73,0.884,1.232,0.192c0.478-0.662,8.764-8.646,8.764-8.646s0.732-0.5-0.074-1.192c-0.744-0.636-8.422-8.609-8.422-8.609
				S60.838,26.818,60.184,27.665z"/>
			<path fill="#FFFFFF" d="M60.568,28.433l-8.074,7.991c0,0-0.422,0.192-0.036,0.576c0.383,0.385,7.957,8.033,7.957,8.033
				s0.194,0.385,0.574,0c0.385-0.385,8.078-7.954,8.078-7.954s0.23-0.231-0.116-0.539c-0.468-0.415-7.919-8.07-7.919-8.07
				S60.761,28.125,60.568,28.433z"/>
			<path fill="#791F52" d="M60.376,31.199l-7.187,5.342c0,0-0.27,0.232,0,0.422c0.269,0.193,7.073,6.687,7.073,6.687
				s0.481,0.52,0.806,0.079c0.029-0.042,7.112-6.497,7.112-6.497s0.689-0.298,0.079-0.538c-0.022-0.006-7.271-5.496-7.271-5.496
				S60.684,30.968,60.376,31.199z"/>
		</g>
	</g>
	<g>
		
			<rect x="6.925" y="60.455" fill="#791F52" stroke="#FFFFFF" stroke-width="0.5" stroke-linecap="round" stroke-linejoin="round" width="5.577" height="9.187"/>
		<path fill="#FFFFFF" d="M21.344,71.032c0.034,0.012,2.965,0.723,3.702,3.294c0.016,0.05,0.486,0,0.486,0s0.197-1.974,5.052-3.856
			c3.212-1.244,6.104-4.115,7.339-6.734c1.233-2.619,1.9-5.155,1.645-8.496c-0.397-5.228-1.346-5.943-2.729-8.787
			c-1.744-3.584-4.905-6.184-7.036-7.194c-2.137-1.009-4.027-1.216-7.209-0.504c0,0-2.188,0.551-4.207,2.264
			c-2.324,1.973-2.691,3.033-3.478,4.118c-0.785,1.086-2.605,4.042-3.332,8.193c-0.583,3.328-0.074,5.615,0,5.989
			c0.075,0.374,0.45,2.216,0.862,3.075C12.852,63.254,14.372,68.463,21.344,71.032z"/>
		<path fill="#791F52" d="M33.112,42.457c3.189,3.196,4.137,6.153,4.719,7.94c0.558,1.708,1.268,3.465,0.99,7.548
			c-0.31,4.514-2.832,7.663-3.955,8.909c-1.122,1.248-3.121,2.525-6.615,3.992c-2.339,0.982-2.908,2.452-2.956,2.351
			c-0.771-1.673-3.202-2.601-4.214-2.999c-1.802-0.703-6.881-3.488-8.345-9.076c-1.092-4.169-0.624-7.178-0.499-7.801
			c0.124-0.625,1.126-5.03,4.267-9.534c1.325-1.902,3.884-3.385,5.134-3.992c1.296-0.63,3.626-1.09,6.232-0.51
			C30.105,39.785,32.703,42.045,33.112,42.457z"/>
		<path fill="#FFFFFF" d="M13.625,48.179c0,0-0.271-1.483-1.688-2.337c-1.432-0.867-2.773-0.41-3.662-0.318
			c-0.889,0.094-2.372,0.92-2.884,1.153c-0.515,0.235-1.913,1.016-2.148,1.201c-0.234,0.186-0.32,0.35,0.146,0.708
			c0.475,0.364,0.973,0.854,1.73,1.05c0.59,0.152,1.472,0.24,1.318,0.125c-0.041-0.028-0.638,0.764-0.984,1.249
			c-0.385,0.533-0.547,0.978-0.5,1.303c0.048,0.33,1.859,0.242,2.4,0.167c0.856-0.118,1.605-0.54,1.944-0.703
			c0.009-0.005,0.055,1.213,0.265,1.816c0.269,0.774,0.505,0.724,1.14,0.57c0.509-0.12,0.909-0.701,1.097-0.982
			C11.983,52.899,13.625,48.179,13.625,48.179z"/>
		<path fill="#791F52" d="M10.643,46.163c0,0-1.16-0.467-3.018,0.263c-1.704,0.669-2.548,1.19-2.885,1.376
			c-0.337,0.187-0.806,0.308-0.445,0.608c0.246,0.204,1.148,0.854,2.058,0.748c1.047-0.122,1.212-0.036,1.251,0.226
			c0.036,0.262-0.236,0.481-0.686,0.929c-0.45,0.451-0.588,0.707-0.844,0.989c-0.247,0.272-0.127,0.486-0.127,0.486
			s1.244,0.124,2.09-0.173c1.284-0.457,1.191-0.612,1.407-0.766c0.186-0.135,0.437-0.082,0.511,0.257
			c0.076,0.335,0.117,1.339,0.154,1.64c0.038,0.298,0.101,0.672,0.273,0.695c0.217,0.026,1.32-0.826,1.395-1.176
			c0.12-0.56,1.199-3.406,1.199-3.406s-0.055-1.102-0.588-1.69C11.936,46.67,11.354,46.199,10.643,46.163z"/>
		<path fill="#FFFFFF" d="M25.393,54.298c0,0-2.473-0.299-4.833,1.789c-1.823,1.607-2.691,3.388-2.975,5.908
			c-0.214,1.898,0.265,4.176,1.502,5.797c0.99,1.297,1.76,2.591,4.313,3.201c2.459,0.59,4.986,0.182,6.862-1.632
			c1.571-1.517,2.864-3.722,2.84-7.062c-0.022-3.151-1.882-5.334-3.271-6.482C28.411,54.64,26.553,54.298,25.393,54.298z"/>
		<circle fill="#FFFFFF" cx="20.484" cy="45.882" r="4.431"/>
		<path fill="#FFFFFF" d="M30.261,50.313c2.443,0,4.431-1.985,4.431-4.432c0-2.447-1.987-4.431-4.431-4.431
			c-2.449,0-4.435,1.984-4.435,4.431C25.826,48.328,27.812,50.313,30.261,50.313z"/>
		<circle fill="#791F52" cx="20.484" cy="45.882" r="1.777"/>
		<path fill="#791F52" d="M30.261,47.659c0.979,0,1.775-0.794,1.775-1.777c0-0.98-0.796-1.777-1.775-1.777
			c-0.983,0-1.777,0.796-1.777,1.777C28.483,46.864,29.277,47.659,30.261,47.659z"/>
		<path fill="#FFFFFF" d="M17.528,68.854v3.541c0,0-1.363,0.971-1.858,2.22c-0.583,1.467-0.344,1.55-0.344,2.813
			c0,0.038-0.497,0.133-0.689,0.766c-0.192,0.631-0.019,1.263,0.02,1.398c0.039,0.133,0.383,0.783,0.976,0.783
			c0.497,0,8.826,0,8.826,0s0.698-0.342,0.742-0.803c0.054-0.502,0-1.264,0-1.264s-0.106-0.709-0.668-0.829
			c-0.026-0.007,0.452-1.847-0.614-3.46c-0.645-0.98-0.975-1.089-1.186-1.34c-0.21-0.248-0.306-0.438-0.325-0.727
			c-0.019-0.288,0-0.764,0-0.764L17.528,68.854z"/>
		<path fill="#791F52" d="M18.236,69.524l-0.02,2.202c0,0,1.558-1.267,3.616-0.202l0.038-0.317c0,0-0.885-0.257-1.816-0.708
			C18.926,69.956,18.483,69.695,18.236,69.524z"/>
		<path fill="#791F52" d="M17.375,77.39h5.109c0,0-0.938-1.147-2.583-1.129C18.35,76.279,17.604,77.103,17.375,77.39z"/>
		<path fill="#791F52" d="M23.567,74.686c0,0,0.473,0.724,0.348,2.705c-0.004,0.013-0.574,0.013-0.574,0.013
			s-0.481-0.859-1.022-0.996c-0.155-0.036-0.178-0.203,0-0.266c0.179-0.064,0.344-0.244,0.371-0.447
			c0.022-0.203-0.016-0.436,0.1-0.485C22.906,75.158,23.353,75.096,23.567,74.686z"/>
		<path fill="#791F52" d="M17.074,75.209c0.115,0.05,0.077,0.282,0.102,0.485c0.027,0.203,0.192,0.383,0.371,0.447
			c0.179,0.063,0.153,0.229,0,0.266c-0.541,0.137-1.021,0.996-1.021,0.996s-0.574,0-0.574-0.013
			c-0.129-1.981,0.344-2.705,0.344-2.705C16.514,75.096,16.961,75.158,17.074,75.209z"/>
		<path fill="#791F52" d="M19.967,75.55c0.402,0,1.061,0.126,1.061,0.126c-0.215-0.594-1.081-0.518-1.081-0.518
			c-0.552,0-0.805,0.19-1.009,0.522C18.938,75.681,19.446,75.55,19.967,75.55z"/>
		<path fill="#791F52" d="M22.167,75.323c-0.184-0.341-0.871-1.416-2.298-1.441c-1.224-0.02-1.931,1.041-2.144,1.435
			c0,0-0.117,0.181,0.041,0.29c0.09,0.061,0.142,0.099,0.224,0.135c0,0,0.119,0.104,0.205-0.036c0.177-0.29,0.745-1.171,1.674-1.21
			c1.057-0.047,1.608,0.826,1.78,1.121c0,0-0.012,0.102,0.153,0.049l0.316-0.184c0,0,0.1,0.018,0.048-0.185"/>
		<path fill="#791F52" d="M19.766,72.542c0,0-1.734-0.045-2.809,1.481c-0.273,0.387,0.284,0.626,0.488,0.435
			c0.308-0.291,1.224-1.254,2.358-1.239c1.138,0.013,2.021,0.444,2.528,1.136c0.16,0.22,0.814,0.067,0.651-0.293
			C22.784,73.632,21.796,72.529,19.766,72.542z"/>
		<path fill="#791F52" d="M18.772,71.896c0,0,0.409-0.342,1.305-0.354c0.742-0.012,0.964,0.139,1.267,0.341l-0.38,0.14
			c0,0-0.42-0.153-0.929-0.153c-0.5,0-0.792,0.077-0.919,0.179L18.772,71.896z"/>
		<path fill="#FFFFFF" d="M15.6,78.06h8.517c0,0,0.403,0.096,0.403,0.363c0,0.269,0,0.901,0,0.901s0.057,0.325-0.306,0.343
			c-0.364,0.02-8.556,0-8.556,0s-0.385-0.056-0.404-0.343c-0.019-0.288,0-0.939,0-0.939S15.254,78.041,15.6,78.06z"/>
		<path fill="#FFFFFF" d="M28.25,71.19c0,0,0.019,0.476,0,0.764c-0.02,0.288-0.117,0.479-0.327,0.727
			c-0.21,0.251-0.536,0.359-1.185,1.34c-1.065,1.613-0.587,3.453-0.613,3.46c-0.562,0.12-0.672,0.829-0.672,0.829
			s-0.05,0.762,0,1.264c0.05,0.461,0.749,0.803,0.749,0.803s8.326,0,8.824,0c0.593,0,0.938-0.65,0.975-0.783
			c0.04-0.136,0.212-0.768,0.021-1.398c-0.19-0.633-0.689-0.728-0.689-0.766c0-1.264,0.237-1.347-0.344-2.813
			c-0.496-1.249-1.857-2.22-1.857-2.22v-3.541L28.25,71.19z"/>
		<path fill="#791F52" d="M30.604,70.499c-0.934,0.451-1.818,0.708-1.818,0.708l0.037,0.317c2.062-1.064,3.62,0.202,3.62,0.202
			l-0.021-2.202C32.174,69.695,31.731,69.956,30.604,70.499z"/>
		<path fill="#791F52" d="M30.759,76.261c-1.645-0.019-2.587,1.129-2.587,1.129h5.112C33.054,77.103,32.31,76.279,30.759,76.261z"/>
		<path fill="#791F52" d="M27.866,75.209c0.115,0.05,0.077,0.282,0.104,0.485c0.023,0.203,0.188,0.383,0.369,0.447
			c0.181,0.063,0.154,0.229,0,0.266c-0.541,0.137-1.022,0.996-1.022,0.996s-0.572,0-0.572-0.013
			c-0.129-1.981,0.344-2.705,0.344-2.705C27.305,75.096,27.755,75.158,27.866,75.209z"/>
		<path fill="#791F52" d="M34.361,74.686c0,0,0.471,0.724,0.346,2.705c-0.002,0.013-0.574,0.013-0.574,0.013
			s-0.479-0.859-1.022-0.996c-0.153-0.036-0.179-0.203,0-0.266c0.181-0.064,0.346-0.244,0.369-0.447
			c0.026-0.203-0.012-0.436,0.104-0.485C33.698,75.158,34.144,75.096,34.361,74.686z"/>
		<path fill="#791F52" d="M31.722,75.681c-0.205-0.332-0.459-0.522-1.008-0.522c0,0-0.867-0.076-1.084,0.518
			c0,0,0.658-0.126,1.063-0.126C31.213,75.55,31.722,75.681,31.722,75.681z"/>
		<path fill="#791F52" d="M28.488,75.297c-0.048,0.202,0.048,0.185,0.048,0.185l0.32,0.184c0.163,0.053,0.151-0.049,0.151-0.049
			c0.172-0.295,0.724-1.168,1.784-1.121c0.924,0.039,1.495,0.92,1.672,1.21c0.086,0.14,0.204,0.036,0.204,0.036
			c0.081-0.036,0.133-0.074,0.223-0.135c0.157-0.109,0.041-0.29,0.041-0.29c-0.21-0.394-0.92-1.454-2.14-1.435
			c-1.431,0.025-2.116,1.101-2.299,1.441"/>
		<path fill="#791F52" d="M27.676,74.062c-0.165,0.36,0.489,0.513,0.651,0.293c0.505-0.691,1.392-1.123,2.524-1.136
			c1.138-0.015,2.054,0.948,2.363,1.239c0.203,0.191,0.757-0.048,0.484-0.435c-1.075-1.526-2.808-1.481-2.808-1.481
			C28.863,72.529,27.873,73.632,27.676,74.062z"/>
		<path fill="#791F52" d="M31.543,72.048c-0.128-0.102-0.42-0.179-0.92-0.179c-0.509,0-0.93,0.153-0.93,0.153l-0.38-0.14
			c0.303-0.202,0.526-0.353,1.267-0.341c0.897,0.012,1.307,0.354,1.307,0.354L31.543,72.048z"/>
		<path fill="#FFFFFF" d="M35.403,78.385c0,0,0.019,0.651,0,0.939c-0.02,0.287-0.4,0.343-0.4,0.343s-8.195,0.02-8.558,0
			c-0.365-0.018-0.309-0.343-0.309-0.343s0-0.633,0-0.901c0-0.268,0.402-0.363,0.402-0.363h8.521
			C35.403,78.041,35.403,78.385,35.403,78.385z"/>
		
			<rect x="10.334" y="56.009" transform="matrix(-0.9166 0.3998 -0.3998 -0.9166 71.5203 98.5479)" fill="#791F52" stroke="#FFFFFF" stroke-width="0.5" stroke-linecap="round" stroke-linejoin="round" width="30.295" height="1.449"/>
		<g>
			<path fill="#791F52" d="M25.035,45.783l-5.665,5.663c0,0-0.479,0.228-0.077,0.715c0.569,0.687,5.615,5.715,5.615,5.715
				s0.484,0.588,0.816,0.129c0.318-0.439,5.819-5.74,5.819-5.74s0.487-0.333-0.05-0.791c-0.493-0.423-5.591-5.716-5.591-5.716
				S25.471,45.222,25.035,45.783z"/>
			<path fill="#FFFFFF" d="M25.292,46.294L19.931,51.6c0,0-0.28,0.128-0.024,0.382c0.255,0.256,5.282,5.334,5.282,5.334
				s0.131,0.254,0.383,0c0.255-0.257,5.363-5.281,5.363-5.281s0.152-0.154-0.078-0.357C30.546,51.4,25.6,46.319,25.6,46.319
				S25.421,46.089,25.292,46.294z"/>
			<path fill="#791F52" d="M25.164,48.13l-4.771,3.547c0,0-0.179,0.153,0,0.279c0.177,0.129,4.693,4.439,4.693,4.439
				s0.319,0.346,0.538,0.053c0.019-0.027,4.722-4.313,4.722-4.313s0.455-0.198,0.052-0.357c-0.015-0.004-4.827-3.648-4.827-3.648
				S25.367,47.977,25.164,48.13z"/>
		</g>
		<g>
			<path fill="#FFFFFF" d="M43.66,53.147c0.33-0.012,1.016,0.022,1.398-0.309c0.481-0.415,0.655-0.574,0.196-1.225
				c-0.357-0.508-1.294-1.236-1.286-1.242c0.322-0.172,1.081-0.526,1.659-1.134c0.369-0.387,1.466-1.77,1.23-1.993
				c-0.23-0.222-0.674-0.345-1.313-0.346c-0.581,0-1.545,0.025-1.545,0.069c0.005,0.188,0.435-0.56,0.649-1.111
				c0.088-0.225,0.136-0.446,0.162-0.661c0.059-0.467,0.005-0.907-0.009-1.303c-0.021-0.569-0.197-0.595-0.477-0.516
				c-0.279,0.079-1.69,0.741-2.169,1.014c-0.474,0.273-1.97,0.977-2.549,1.626c-0.575,0.648-1.699,1.45-1.828,3.075
				c-0.126,1.604,0.892,2.659,0.892,2.659S40.644,53.247,43.66,53.147z"/>
			<path fill="#791F52" d="M38.572,50.204c0.163,0.755,1.004,1.422,1.004,1.422s2.318,1.076,3.551,0.852
				c0.344-0.063,1.382,0.02,1.542-0.301c0.075-0.151-0.183-0.41-0.396-0.607c-0.217-0.201-0.985-0.807-1.208-1.057
				c-0.224-0.25-0.124-0.478,0.087-0.548c0.244-0.085,0.314,0.077,1.404-0.678c0.714-0.499,1.324-1.553,1.324-1.553
				s-0.101-0.217-0.458-0.176c-0.367,0.042-0.649,0.007-1.261,0.106c-0.607,0.1-0.938,0.192-1.123,0.014
				c-0.186-0.178-0.158-0.359,0.531-1.117c0.602-0.659,0.6-1.74,0.577-2.05c-0.032-0.455-0.394-0.153-0.731,0.006
				c-0.339,0.161-1.23,0.533-2.727,1.5c-1.629,1.053-1.921,2.236-1.921,2.236C38.394,48.834,38.437,49.562,38.572,50.204z"/>
		</g>
		<line fill="none" stroke="#FFFFFF" stroke-width="0.5" x1="6.816" y1="63.063" x2="11.887" y2="63.063"/>
		<line fill="none" stroke="#FFFFFF" stroke-width="0.5" x1="9.603" y1="62.917" x2="9.603" y2="69.37"/>
	</g>
</g>
</svg>
