<?xml version="1.0" encoding="utf-8"?>
<!-- Generator: Adobe Illustrator 13.0.0, SVG Export Plug-In . SVG Version: 6.00 Build 14948)  -->
<!DOCTYPE svg PUBLIC "-//W3C//DTD SVG 1.1//EN" "http://www.w3.org/Graphics/SVG/1.1/DTD/svg11.dtd">
<svg version="1.1" id="レイヤー_1" xmlns="http://www.w3.org/2000/svg" xmlns:xlink="http://www.w3.org/1999/xlink" x="0px"
	 y="0px" width="100px" height="100px" viewBox="0 0 100 100" enable-background="new 0 0 100 100" xml:space="preserve">
<g>
	<defs>
		<circle id="SVGID_1_" cx="50" cy="50" r="50"/>
	</defs>
	<use xlink:href="#SVGID_1_"  overflow="visible" fill="#791F52"/>
	<clipPath id="SVGID_2_">
		<use xlink:href="#SVGID_1_"  overflow="visible"/>
	</clipPath>
	<g clip-path="url(#SVGID_2_)">
		<g>
			<path fill="#FFFFFF" d="M48.214,77.322c0.063,0.022,5.426,1.299,6.793,5.992c0.028,0.091,0.891-0.004,0.891-0.004
				s0.347-3.609,9.204-7.087c5.859-2.298,11.123-7.568,13.359-12.365c2.236-4.798,3.435-9.438,2.943-15.544
				c-0.77-9.552-2.507-10.851-5.061-16.038c-3.215-6.536-9.015-11.263-12.919-13.095c-3.909-1.828-7.367-2.191-13.176-0.865
				c0,0-3.997,1.024-7.673,4.17c-4.232,3.624-4.896,5.563-6.325,7.554c-1.426,1.99-4.731,7.406-6.025,15.001
				c-1.038,6.087-0.095,10.263,0.047,10.947c0.139,0.682,0.841,4.045,1.6,5.615C32.632,63.172,35.453,72.682,48.214,77.322z"/>
			<path fill="#791F52" d="M69.505,25.002c5.854,5.817,7.608,11.214,8.686,14.478c1.03,3.116,2.344,6.322,1.867,13.786
				c-0.529,8.253-5.115,14.029-7.156,16.314c-2.042,2.29-5.687,4.642-12.061,7.35c-4.27,1.814-5.298,4.504-5.385,4.318
				c-1.424-3.051-5.873-4.729-7.729-5.446c-3.299-1.274-12.601-6.324-15.32-16.524c-2.028-7.612-1.194-13.116-0.973-14.255
				c0.223-1.144,2.021-9.203,7.724-17.46c2.407-3.487,7.074-6.217,9.351-7.335c2.367-1.163,6.62-2.02,11.388-0.981
				C63.986,20.141,68.753,24.253,69.505,25.002z"/>
			<path fill="#FFFFFF" d="M55.486,46.703c0,0-4.521-0.524-8.822,3.308c-3.316,2.954-4.891,6.214-5.388,10.823
				c-0.376,3.472,0.514,7.632,2.789,10.584c1.82,2.362,3.236,4.722,7.908,5.818c4.5,1.058,9.113,0.292,12.529-3.036
				c2.859-2.786,5.205-6.826,5.133-12.929c-0.064-5.761-3.479-9.735-6.025-11.825C61.004,47.305,57.609,46.694,55.486,46.703z"/>
			<circle fill="#FFFFFF" cx="46.449" cy="31.362" r="8.1"/>
			<circle fill="#FFFFFF" cx="64.315" cy="31.285" r="8.1"/>
			<path fill="#791F52" d="M46.463,34.608c1.791-0.008,3.238-1.465,3.231-3.262c-0.008-1.791-1.469-3.241-3.26-3.233
				c-1.794,0.008-3.241,1.47-3.233,3.261C43.208,33.17,44.669,34.616,46.463,34.608z"/>
			<path fill="#791F52" d="M64.329,34.532c1.794-0.008,3.241-1.465,3.233-3.262c-0.007-1.791-1.468-3.241-3.262-3.233
				s-3.24,1.47-3.233,3.261C61.075,33.094,62.535,34.54,64.329,34.532z"/>
			<path fill="#791F52" d="M54.767,31.146L44.458,41.541c0,0-0.874,0.419-0.135,1.307c1.041,1.25,10.306,10.402,10.306,10.402
				s0.89,1.069,1.493,0.228C56.7,52.672,66.714,42.94,66.714,42.94s0.888-0.611-0.097-1.446
				c-0.905-0.767-10.263-10.402-10.263-10.402S55.556,30.115,54.767,31.146z"/>
			<path fill="#FFFFFF" d="M55.237,32.076l-9.756,9.739c0,0-0.51,0.236-0.04,0.699c0.467,0.465,9.696,9.705,9.696,9.705
				s0.238,0.467,0.698-0.002c0.466-0.469,9.761-9.694,9.761-9.694s0.277-0.282-0.143-0.652c-0.572-0.501-9.654-9.752-9.654-9.752
				S55.472,31.701,55.237,32.076z"/>
			<path fill="#791F52" d="M55.021,35.433l-8.694,6.519c0,0-0.326,0.283,0.002,0.512c0.327,0.232,8.616,8.078,8.616,8.078
				s0.588,0.628,0.98,0.091c0.036-0.05,8.598-7.92,8.598-7.92s0.833-0.364,0.092-0.653c-0.027-0.006-8.851-6.63-8.851-6.63
				S55.391,35.15,55.021,35.433z"/>
			<path fill="#FFFFFF" d="M41.224,73.372l0.027,6.473c0,0-2.48,1.786-3.378,4.072c-1.054,2.685-0.616,2.834-0.606,5.143
				c0.001,0.07-0.909,0.25-1.253,1.405c-0.346,1.155-0.025,2.309,0.043,2.556c0.074,0.244,0.709,1.431,1.793,1.426
				c0.91-0.004,16.13-0.068,16.13-0.068s1.273-0.632,1.354-1.477c0.092-0.916-0.01-2.308-0.01-2.308s-0.204-1.294-1.23-1.511
				c-0.048-0.01,0.812-3.377-1.147-6.317c-1.188-1.787-1.791-1.983-2.177-2.44c-0.39-0.452-0.563-0.801-0.602-1.326
				c-0.034-0.525-0.007-1.396-0.007-1.396L41.224,73.372z"/>
			<path fill="#791F52" d="M42.523,74.59l-0.02,4.025c0,0,2.839-2.328,6.611-0.397l0.066-0.581c0,0-1.619-0.46-3.328-1.281
				C43.788,75.375,42.979,74.901,42.523,74.59z"/>
			<path fill="#791F52" d="M41.011,88.973l9.339-0.039c0,0-1.723-2.091-4.73-2.045C42.784,86.936,41.426,88.448,41.011,88.973z"/>
			<path fill="#791F52" d="M52.311,83.983c0,0,0.868,1.316,0.652,4.941c-0.003,0.023-1.048,0.027-1.048,0.027
				s-0.887-1.565-1.877-1.811c-0.281-0.066-0.326-0.371-0.002-0.488c0.326-0.119,0.629-0.449,0.675-0.818
				c0.042-0.373-0.028-0.797,0.181-0.889C51.104,84.852,51.92,84.733,52.311,83.983z"/>
			<path fill="#791F52" d="M40.445,84.991c0.211,0.09,0.143,0.515,0.188,0.887c0.052,0.369,0.355,0.696,0.683,0.813
				c0.327,0.115,0.28,0.419,0.002,0.488c-0.99,0.254-1.859,1.826-1.859,1.826s-1.048,0.005-1.05-0.018
				c-0.249-3.623,0.609-4.947,0.609-4.947C39.419,84.787,40.235,84.899,40.445,84.991z"/>
			<path fill="#791F52" d="M45.731,85.59c0.739-0.004,1.942,0.223,1.942,0.223c-0.396-1.084-1.981-0.938-1.981-0.938
				c-1.007,0.004-1.468,0.354-1.84,0.963C43.853,85.838,44.781,85.594,45.731,85.59z"/>
			<path fill="#791F52" d="M49.753,85.161c-0.338-0.623-1.603-2.584-4.211-2.618c-2.234-0.026-3.521,1.918-3.908,2.639
				c0,0-0.212,0.332,0.08,0.53c0.163,0.108,0.259,0.178,0.409,0.243c0,0,0.219,0.189,0.374-0.067c0.321-0.53,1.354-2.145,3.05-2.225
				c1.931-0.092,2.947,1.498,3.266,2.037c0,0-0.024,0.186,0.276,0.087l0.58-0.338c0,0,0.181,0.032,0.084-0.339"/>
			<path fill="#791F52" d="M45.345,80.096c0,0-3.17-0.07-5.12,2.728c-0.498,0.71,0.52,1.142,0.891,0.79
				c0.562-0.533,2.229-2.301,4.304-2.281c2.077,0.014,3.697,0.796,4.629,2.055c0.293,0.4,1.489,0.116,1.188-0.54
				C50.869,82.061,49.053,80.055,45.345,80.096z"/>
			<path fill="#791F52" d="M43.521,78.92c0,0,0.743-0.627,2.383-0.657c1.356-0.025,1.761,0.247,2.318,0.614l-0.693,0.26
				c0,0-0.767-0.278-1.699-0.274c-0.914,0.004-1.446,0.147-1.68,0.334L43.521,78.92z"/>
			<path fill="#FFFFFF" d="M37.772,90.211l15.567-0.066c0,0,0.735,0.172,0.737,0.662c0.002,0.489,0.007,1.646,0.007,1.646
				s0.107,0.594-0.555,0.631c-0.667,0.036-15.64,0.066-15.64,0.066s-0.701-0.102-0.738-0.625c-0.038-0.526-0.007-1.717-0.007-1.717
				S37.142,90.18,37.772,90.211z"/>
			<path fill="#FFFFFF" d="M60.84,77.556c0,0,0.038,0.87,0.006,1.397c-0.031,0.525-0.209,0.875-0.59,1.33
				c-0.384,0.461-0.981,0.662-2.158,2.459c-1.933,2.957-1.045,6.316-1.093,6.328c-1.024,0.225-1.221,1.521-1.221,1.521
				s-0.087,1.393,0.01,2.308c0.092,0.844,1.374,1.465,1.374,1.465s15.218-0.064,16.13-0.068c1.084-0.006,1.708-1.196,1.775-1.441
				c0.069-0.248,0.38-1.403,0.025-2.557c-0.354-1.152-1.267-1.323-1.267-1.394c-0.01-2.309,0.425-2.462-0.647-5.139
				c-0.917-2.278-3.415-4.043-3.415-4.043l-0.027-6.473L60.84,77.556z"/>
			<path fill="#791F52" d="M65.138,76.274c-1.703,0.836-3.316,1.31-3.316,1.31l0.072,0.581c3.754-1.963,6.615,0.341,6.615,0.341
				l-0.055-4.025C68.002,74.794,67.194,75.275,65.138,76.274z"/>
			<path fill="#791F52" d="M65.464,86.805c-3.008-0.021-4.718,2.084-4.718,2.084l9.344-0.04
				C69.665,88.327,68.299,86.827,65.464,86.805z"/>
			<path fill="#791F52" d="M60.171,84.907c0.209,0.09,0.144,0.515,0.189,0.886c0.048,0.37,0.353,0.697,0.683,0.813
				c0.326,0.115,0.28,0.419,0.002,0.488c-0.99,0.254-1.863,1.826-1.863,1.826s-1.048,0.005-1.048-0.018
				c-0.25-3.623,0.608-4.947,0.608-4.947C59.141,84.703,59.962,84.815,60.171,84.907z"/>
			<path fill="#791F52" d="M72.037,83.899c0,0,0.867,1.316,0.651,4.941c-0.002,0.023-1.05,0.027-1.05,0.027
				s-0.882-1.565-1.874-1.811c-0.281-0.066-0.328-0.371-0.002-0.488c0.325-0.119,0.629-0.449,0.672-0.819
				c0.047-0.372-0.025-0.796,0.182-0.888C70.827,84.768,71.643,84.649,72.037,83.899z"/>
			<path fill="#791F52" d="M67.219,85.739c-0.374-0.606-0.841-0.951-1.846-0.947c0,0-1.586-0.134-1.979,0.955
				c0,0,1.206-0.237,1.945-0.24C66.288,85.502,67.219,85.739,67.219,85.739z"/>
			<path fill="#791F52" d="M61.311,85.061c-0.089,0.372,0.088,0.338,0.088,0.338l0.586,0.332c0.3,0.098,0.274-0.089,0.274-0.089
				c0.313-0.542,1.313-2.14,3.25-2.064c1.692,0.065,2.742,1.671,3.066,2.198c0.159,0.256,0.377,0.064,0.377,0.064
				c0.146-0.066,0.242-0.137,0.405-0.246c0.289-0.201,0.072-0.531,0.072-0.531c-0.389-0.718-1.691-2.651-3.926-2.605
				c-2.61,0.057-3.855,2.027-4.189,2.653"/>
			<path fill="#791F52" d="M59.813,82.811c-0.301,0.658,0.897,0.932,1.193,0.529c0.917-1.267,2.534-2.063,4.606-2.095
				c2.077-0.036,3.758,1.718,4.327,2.245c0.374,0.348,1.384-0.092,0.882-0.797c-1.976-2.781-5.142-2.684-5.142-2.684
				C61.972,80,60.173,82.022,59.813,82.811z"/>
			<path fill="#791F52" d="M66.863,79.1c-0.231-0.186-0.767-0.324-1.679-0.32c-0.933,0.004-1.7,0.289-1.7,0.289l-0.694-0.254
				c0.551-0.371,0.958-0.647,2.31-0.633c1.643,0.016,2.394,0.636,2.394,0.636L66.863,79.1z"/>
			<path fill="#FFFFFF" d="M73.972,90.652c0,0,0.036,1.19,0.007,1.717C73.943,92.893,73.246,93,73.246,93s-14.978,0.098-15.64,0.066
				c-0.666-0.031-0.563-0.626-0.563-0.626s-0.005-1.157-0.007-1.646c-0.002-0.49,0.731-0.668,0.731-0.668l15.569-0.066
				C73.969,90.024,73.972,90.652,73.972,90.652z"/>
		</g>
		<polygon fill="#FFFFFF" stroke="#791F52" points="55.097,78.92 25.43,75.248 30.43,41.581 55.097,53.92 		"/>
		<path fill="#FFFFFF" d="M70.972,26.325c0,0-9.91-2.582-15.207-2.527c-5.411,0.055-15.821,2.527-15.821,2.527v-3.23
			c0,0,8.066-2.519,15.65-2.519c7.62,0,15.378,2.519,15.378,2.519V26.325z"/>
		<g>
			<ellipse fill="#FFFFFF" stroke="#791F52" stroke-width="0.75" cx="56.138" cy="16.334" rx="7" ry="6.833"/>
			<ellipse fill="#FFFFFF" stroke="#791F52" stroke-width="0.75" cx="56.138" cy="16.334" rx="3.11" ry="3.037"/>
		</g>
		<polygon fill="#FFFFFF" stroke="#791F52" points="55.43,78.92 85.097,75.248 80.097,41.581 55.43,53.92 		"/>
		<g>
			<path fill="#FFFFFF" d="M31.76,48.38c0,0,1.616-2.378,0.831-5.438c-0.79-3.093-3.228-4.268-4.56-5.332
				c-1.334-1.059-4.456-1.917-5.467-2.286c-1.015-0.37-3.96-1.176-4.527-1.236c-0.567-0.061-0.904,0.047-0.748,1.157
				c0.157,1.127,0.182,2.462,0.95,3.741c0.601,0.996,1.682,2.297,1.627,1.931c-0.017-0.087-1.889,0.189-3.009,0.384
				c-1.237,0.211-2.052,0.599-2.424,1.106c-0.375,0.51,2.206,2.816,3.046,3.437c1.32,0.984,2.906,1.414,3.583,1.64
				c0.02,0.007-1.546,1.727-2.068,2.827c-0.672,1.412-0.28,1.66,0.786,2.3c0.853,0.518,4.377,0.378,5.011,0.25
				C28.293,52.157,31.76,48.38,31.76,48.38z"/>
			<path fill="#791F52" d="M30.402,41.65c0,0-0.956-2.188-4.458-3.679c-3.214-1.37-5.059-1.789-5.769-1.986
				c-0.708-0.195-1.507-0.659-1.416,0.233c0.06,0.603,0.418,2.695,1.799,3.767c1.587,1.234,1.698,1.573,1.399,1.98
				c-0.299,0.407-0.966,0.339-2.176,0.347c-1.214,0.013-1.743,0.176-2.468,0.219c-0.705,0.039-0.826,0.492-0.826,0.492
				s1.527,1.833,3.075,2.559c2.358,1.096,2.439,0.76,2.939,0.839c0.433,0.067,0.703,0.476,0.354,1.035
				c-0.347,0.556-1.633,1.98-1.984,2.438c-0.348,0.455-0.763,1.046-0.558,1.31c0.259,0.328,0.892,0.875,3.785,0.572
				c2.974-0.311,5.87-3.337,5.87-3.337s1.401-1.57,1.462-3.083C31.479,44.068,31.319,42.649,30.402,41.65z"/>
		</g>
		<g>
			<g>
				<line fill="none" stroke="#FFFFFF" stroke-width="0.75" x1="11.566" y1="18.21" x2="14.038" y2="25.372"/>
				
					<rect x="22.012" y="48.787" transform="matrix(0.9394 -0.3428 0.3428 0.9394 -16.4211 11.3118)" fill="#791F52" stroke="#FFFFFF" stroke-width="0.75" width="3.561" height="6.654"/>
				
					<rect x="12.015" y="23.364" transform="matrix(0.9394 -0.3428 0.3428 0.9394 -7.6321 6.225)" fill="#791F52" stroke="#FFFFFF" stroke-width="0.75" width="3.561" height="2.682"/>
				
					<rect x="15.197" y="24.725" transform="matrix(0.9395 -0.3427 0.3427 0.9395 -11.9923 8.7473)" fill="#791F52" stroke="#FFFFFF" width="7.122" height="27.17"/>
				
					<rect x="20.453" y="54.591" transform="matrix(0.9394 -0.3427 0.3427 0.9394 -17.5063 11.939)" fill="#791F52" stroke="#FFFFFF" stroke-width="0.75" width="9.156" height="1.833"/>
			</g>
			<line fill="none" stroke="#FFFFFF" stroke-width="0.75" x1="14.645" y1="28.403" x2="18.577" y2="26.969"/>
			<line fill="none" stroke="#FFFFFF" stroke-width="0.75" x1="15.397" y1="30.468" x2="19.33" y2="29.034"/>
			<line fill="none" stroke="#FFFFFF" stroke-width="0.75" x1="16.151" y1="32.533" x2="20.083" y2="31.099"/>
			<line fill="none" stroke="#FFFFFF" stroke-width="0.75" x1="16.904" y1="34.598" x2="20.836" y2="33.164"/>
			<line fill="none" stroke="#FFFFFF" stroke-width="0.75" x1="17.657" y1="36.662" x2="21.59" y2="35.228"/>
			<line fill="none" stroke="#FFFFFF" stroke-width="0.75" x1="18.411" y1="38.728" x2="22.343" y2="37.293"/>
			<line fill="none" stroke="#FFFFFF" stroke-width="0.75" x1="19.164" y1="40.792" x2="23.096" y2="39.358"/>
			<line fill="none" stroke="#FFFFFF" stroke-width="0.75" x1="19.917" y1="42.857" x2="23.849" y2="41.423"/>
			<line fill="none" stroke="#FFFFFF" stroke-width="0.75" x1="20.67" y1="44.923" x2="24.603" y2="43.489"/>
			<line fill="none" stroke="#FFFFFF" stroke-width="0.75" x1="21.424" y1="46.988" x2="25.355" y2="45.553"/>
			<line fill="none" stroke="#FFFFFF" stroke-width="0.75" x1="22.177" y1="49.052" x2="26.108" y2="47.618"/>
		</g>
		<g>
			<line fill="none" stroke="#791F52" stroke-linecap="round" x1="31.343" y1="48.213" x2="31.347" y2="53.081"/>
			<line fill="none" stroke="#791F52" stroke-linecap="round" x1="31.263" y1="53.498" x2="36.43" y2="51.581"/>
			<line fill="none" stroke="#791F52" stroke-linecap="round" x1="36.43" y1="51.581" x2="36.764" y2="56.915"/>
			<line fill="none" stroke="#791F52" stroke-linecap="round" x1="36.764" y1="56.915" x2="55.097" y2="53.92"/>
		</g>
		<g>
			<line fill="none" stroke="#000000" stroke-linecap="round" x1="79.267" y1="48.38" x2="79.263" y2="53.248"/>
			<line fill="none" stroke="#791F52" stroke-linecap="round" x1="79.347" y1="53.665" x2="74.18" y2="51.748"/>
			<line fill="none" stroke="#791F52" stroke-linecap="round" x1="74.18" y1="51.748" x2="73.846" y2="57.081"/>
			<line fill="none" stroke="#791F52" stroke-linecap="round" x1="73.846" y1="57.081" x2="55.513" y2="54.087"/>
		</g>
		<g>
			<path fill="#FFFFFF" d="M78.086,51.932c0.232,0.604,2.01,3.65,2.903,4.092c1.114,0.555,1.533,0.752,2.362-0.574
				c0.646-1.031,1.256-3.275,1.273-3.264c0.555,0.449,1.77,1.557,3.309,2.141c0.975,0.375,4.306,1.313,4.534,0.721
				c0.229-0.586,0.118-1.48-0.368-2.639c-0.438-1.049-1.211-2.776-1.294-2.743c-0.339,0.15,1.341,0.363,2.503,0.334
				c1.491-0.039,2.631-0.736,3.666-1.209c1.019-0.465,0.929-0.807,0.572-1.253c-0.355-0.446-2.618-2.496-3.475-3.153
				c-0.855-0.654-3.256-2.826-4.867-3.382c-1.611-0.552-3.913-1.976-6.945-0.979c-3.002,0.982-4.14,3.623-4.14,3.623
				S76.798,48.6,78.086,51.932z"/>
			<path fill="#791F52" d="M80.848,42.298c-1.244,0.864-1.814,2.89-1.814,2.89s-0.996,4.069,0.34,6.745
				c1.301,2.602,2.102,2.842,2.518,2.885c0.332,0.031,0.607-0.637,0.805-1.176c0.197-0.541,0.707-2.393,0.989-2.982
				c0.283-0.596,0.774-0.587,1.063-0.258c0.334,0.379,0.096,0.627,2.287,2.028c1.443,0.916,3.81,1.219,3.81,1.219
				s0.316-0.346-0.028-0.961c-0.354-0.635-0.5-1.17-1.143-2.199c-0.644-1.025-1.059-1.551-0.877-2.022
				c0.184-0.471,0.529-0.559,2.422,0.116c1.646,0.589,3.604-0.233,4.145-0.507c0.801-0.403-0.02-0.828-0.564-1.32
				c-0.549-0.492-1.893-1.822-4.776-3.797c-3.138-2.152-5.497-1.782-5.497-1.782C83.189,40.938,81.908,41.565,80.848,42.298z"/>
		</g>
	</g>
</g>
</svg>
