<?xml version="1.0" encoding="utf-8"?>
<!-- Generator: Adobe Illustrator 13.0.0, SVG Export Plug-In . SVG Version: 6.00 Build 14948)  -->
<!DOCTYPE svg PUBLIC "-//W3C//DTD SVG 1.1//EN" "http://www.w3.org/Graphics/SVG/1.1/DTD/svg11.dtd">
<svg version="1.1" id="レイヤー_1" xmlns="http://www.w3.org/2000/svg" xmlns:xlink="http://www.w3.org/1999/xlink" x="0px"
	 y="0px" width="100px" height="100px" viewBox="0 0 100 100" enable-background="new 0 0 100 100" xml:space="preserve">
<g>
	<defs>
		<circle id="SVGID_1_" cx="50" cy="50" r="50"/>
	</defs>
	<use xlink:href="#SVGID_1_"  overflow="visible" fill="#791F52"/>
	<clipPath id="SVGID_2_">
		<use xlink:href="#SVGID_1_"  overflow="visible"/>
	</clipPath>
	<g clip-path="url(#SVGID_2_)">
		<g>
			<path fill="#FFFFFF" d="M24.527,29.347c0,6.489-5.261,11.75-11.75,11.75c-4.74,0-8.476-2.125-10.333-6.167
				c0,0,0.167-3,3.25-8.167c3.948-6.616,5.917-8.917,6.083-8.917c0.515,0,0.47-0.25,1-0.25
				C19.266,17.597,24.527,22.858,24.527,29.347z"/>
			<circle fill="#791F52" cx="12.777" cy="29.347" r="7.5"/>
		</g>
		<g>
			<path fill="#FFFFFF" d="M27.616,40.152c-0.233-0.604-2.01-3.65-2.903-4.092c-1.113-0.555-1.533-0.752-2.363,0.573
				c-0.646,1.032-1.256,3.276-1.271,3.264c-0.556-0.448-1.77-1.556-3.309-2.14c-0.976-0.375-4.307-1.313-4.535-0.722
				c-0.229,0.587-0.119,1.481,0.368,2.639c0.438,1.049,1.211,2.776,1.294,2.743c0.338-0.15-1.34-0.363-2.502-0.334
				c-1.492,0.039-2.632,0.736-3.666,1.209c-1.02,0.465-0.93,0.807-0.574,1.253s2.619,2.496,3.477,3.153
				c0.854,0.654,3.255,2.826,4.865,3.382c1.613,0.552,3.914,1.976,6.947,0.979c3.001-0.982,4.139-3.623,4.139-3.623
				S28.904,43.484,27.616,40.152z"/>
			<path fill="#791F52" d="M24.855,49.786c1.244-0.864,1.814-2.89,1.814-2.89s0.995-4.069-0.342-6.744
				c-1.299-2.603-2.101-2.843-2.516-2.885c-0.333-0.031-0.609,0.637-0.806,1.175c-0.197,0.542-0.706,2.393-0.989,2.983
				c-0.283,0.596-0.774,0.587-1.063,0.258c-0.336-0.379-0.097-0.627-2.287-2.027c-1.444-0.916-3.811-1.219-3.811-1.219
				s-0.316,0.346,0.028,0.961c0.354,0.635,0.501,1.169,1.142,2.199c0.645,1.024,1.061,1.551,0.877,2.021
				c-0.183,0.471-0.528,0.559-2.422-0.116c-1.645-0.589-3.603,0.233-4.144,0.507c-0.8,0.403,0.021,0.828,0.565,1.32
				c0.547,0.492,1.893,1.822,4.775,3.797c3.139,2.152,5.498,1.782,5.498,1.782C22.511,51.146,23.794,50.518,24.855,49.786z"/>
		</g>
		<g>
			<path fill="#FFFFFF" d="M70.316,54.564c0.232,0.604,2.01,3.65,2.902,4.092c1.114,0.555,1.533,0.752,2.363-0.573
				c0.646-1.032,1.256-3.276,1.272-3.264c0.556,0.448,1.77,1.556,3.309,2.14c0.976,0.375,4.306,1.313,4.534,0.722
				c0.229-0.587,0.119-1.481-0.367-2.639c-0.438-1.049-1.211-2.776-1.295-2.743c-0.338,0.15,1.341,0.363,2.503,0.334
				c1.491-0.039,2.632-0.736,3.666-1.209c1.019-0.465,0.929-0.807,0.573-1.253s-2.619-2.496-3.476-3.153
				c-0.854-0.654-3.255-2.826-4.866-3.382c-1.612-0.552-3.914-1.976-6.946-0.979c-3.001,0.982-4.14,3.623-4.14,3.623
				S69.027,51.232,70.316,54.564z"/>
			<path fill="#791F52" d="M73.077,44.93c-1.244,0.864-1.814,2.89-1.814,2.89s-0.995,4.069,0.341,6.744
				c1.3,2.603,2.102,2.843,2.517,2.885c0.333,0.031,0.608-0.637,0.806-1.175c0.197-0.542,0.706-2.393,0.988-2.983
				c0.283-0.596,0.775-0.587,1.063-0.258c0.335,0.379,0.097,0.627,2.287,2.027c1.444,0.916,3.81,1.219,3.81,1.219
				s0.316-0.346-0.027-0.961c-0.354-0.635-0.501-1.169-1.143-2.199c-0.645-1.024-1.06-1.551-0.877-2.021
				c0.184-0.471,0.529-0.559,2.422,0.116c1.645,0.589,3.604-0.233,4.145-0.507c0.8-0.403-0.021-0.828-0.565-1.32
				c-0.548-0.492-1.893-1.822-4.776-3.797c-3.138-2.152-5.497-1.782-5.497-1.782C75.419,43.57,74.137,44.198,73.077,44.93z"/>
		</g>
		<path fill="#FFFFFF" d="M41.311,78.005c0.063,0.021,8.03,2.379,16.888-1.1c5.859-2.298,11.123-7.567,13.359-12.365
			s3.435-9.438,2.943-15.543c-0.77-9.552-2.507-10.851-5.061-16.038c-3.215-6.536-9.015-11.263-12.919-13.095
			c-3.909-1.828-7.367-2.191-13.176-0.865c0,0-3.997,1.024-7.673,4.17c-4.232,3.624-4.896,5.563-6.325,7.554
			c-1.426,1.99-4.731,7.406-6.025,15.001c-1.038,6.087-0.095,10.263,0.047,10.947c0.139,0.682,0.841,4.044,1.6,5.615
			C25.729,63.856,28.55,73.365,41.311,78.005z"/>
		<path fill="#791F52" d="M62.602,25.686c5.854,5.817,7.608,11.214,8.686,14.478c1.03,3.116,2.344,6.322,1.867,13.786
			c-0.529,8.252-5.115,14.028-7.156,16.314c-2.042,2.289-5.687,4.641-12.061,7.349c-4.27,1.814-11.258-0.41-13.114-1.128
			c-3.299-1.273-12.601-6.324-15.32-16.524c-2.028-7.612-1.194-13.115-0.973-14.254c0.223-1.144,2.021-9.203,7.724-17.46
			c2.407-3.487,7.074-6.217,9.351-7.335c2.367-1.163,6.62-2.02,11.388-0.981C57.083,20.824,61.85,24.936,62.602,25.686z"/>
		<circle fill="#FFFFFF" cx="39.546" cy="32.045" r="8.1"/>
		<circle fill="#FFFFFF" cx="57.412" cy="31.969" r="8.1"/>
		<path fill="#791F52" d="M39.56,35.291c1.791-0.008,3.238-1.465,3.231-3.262c-0.008-1.791-1.469-3.241-3.26-3.233
			c-1.794,0.008-3.241,1.47-3.233,3.261C36.305,33.854,37.766,35.299,39.56,35.291z"/>
		<path fill="#791F52" d="M57.426,35.215c1.794-0.008,3.241-1.465,3.233-3.262c-0.007-1.791-1.468-3.241-3.262-3.233
			s-3.24,1.47-3.233,3.261C54.172,33.777,55.632,35.223,57.426,35.215z"/>
		<path fill="#791F52" d="M47.864,31.829L37.555,42.224c0,0-0.874,0.419-0.135,1.307c1.041,1.25,10.306,10.401,10.306,10.401
			s0.89,1.069,1.493,0.229c0.578-0.806,10.592-10.538,10.592-10.538s0.888-0.611-0.097-1.446
			c-0.905-0.767-10.263-10.402-10.263-10.402S48.653,30.798,47.864,31.829z"/>
		<path fill="#FFFFFF" d="M48.334,32.759l-9.756,9.739c0,0-0.51,0.236-0.04,0.699c0.467,0.465,9.696,9.706,9.696,9.706
			s0.238,0.467,0.698-0.003c0.466-0.469,9.761-9.694,9.761-9.694s0.277-0.282-0.143-0.652c-0.572-0.501-9.654-9.752-9.654-9.752
			S48.569,32.384,48.334,32.759z"/>
		<path fill="#791F52" d="M48.118,36.116l-8.694,6.519c0,0-0.326,0.283,0.002,0.512c0.327,0.232,8.616,8.078,8.616,8.078
			s0.588,0.629,0.98,0.092c0.036-0.051,8.598-7.92,8.598-7.92s0.833-0.364,0.092-0.653c-0.027-0.006-8.851-6.63-8.851-6.63
			S48.488,35.833,48.118,36.116z"/>
		<g>
			<path fill="#FFFFFF" d="M34.321,74.054l-0.169,7.808c0,0-3.458,1.652-3.969,3.063c-0.982,2.711-0.905,4.34-1.072,6.224
				c-0.106,1.201-0.025,2.309,0.043,2.555c0.074,0.245,0.709,1.432,1.793,1.426c0.91-0.004,16.13-0.068,16.13-0.068
				s0.704-0.534,0.784-1.38c0.092-0.916,0.083-3.916,0.083-3.916s-0.5-3.417-1.166-4.417c-1.189-1.786-2.364-2.543-2.75-3
				c-0.39-0.451-0.726-2.14-0.764-2.666c-0.034-0.525-0.007-1.396-0.007-1.396L34.321,74.054z"/>
			<path fill="#009944" d="M35.621,75.274l-0.448,6.588c0,0,1.679-0.567,3.688-0.682c0.96-0.055,2.613-0.135,3.833,0.667
				l-0.333-3.75c0,0-2.675-0.694-3.25-1C36.973,75.961,36.076,75.672,35.621,75.274z"/>
			<path fill="#791F52" d="M32.081,84.858c1.972-1.619,5.083-2.439,6.899-2.511c2.053-0.081,5.091,0.647,6.241,2.673
				c1.461,2.572,1.784,6.223,1.786,6.699s0.007,1.601,0.007,1.601s0.105,0.577-0.547,0.613c-0.321,0.018-1.523-4.753-8.106-4.836
				c-5.594-0.07-7.307,4.901-7.307,4.901s-0.691-0.099-0.728-0.607c-0.038-0.511-0.301-1.323-0.301-1.323
				S30.11,86.479,32.081,84.858z"/>
			<path fill="#791F52" d="M34.528,91.014c1.394-0.566,3.052-1.223,4.333-1.25c1.448-0.031,3.65,0.716,4.458,1.419
				c1.026,0.894,1.542,1.582,1.542,1.747l0.917,1.25c0,0-1.132,0.09-1.592,0.104c-0.465,0.013-10.874,0.046-10.874,0.046
				s-1.426,0.027-1.451-0.15c-0.027-0.178,0.667-1.333,0.667-1.333S33.134,91.582,34.528,91.014z"/>
		</g>
		<g>
			<path fill="#FFFFFF" d="M53.746,78.285c0,0,0.027,0.871-0.007,1.396c-0.038,0.526-0.374,2.215-0.764,2.666
				c-0.386,0.457-1.561,1.214-2.75,3c-0.666,1-1.166,4.417-1.166,4.417s-0.009,3,0.083,3.916c0.08,0.846,0.784,1.38,0.784,1.38
				s15.22,0.064,16.13,0.068c1.084,0.006,1.719-1.181,1.793-1.426c0.068-0.246,0.149-1.354,0.043-2.555
				c-0.167-1.884-0.09-3.513-1.072-6.224c-0.511-1.41-3.969-3.063-3.969-3.063l-0.169-7.808L53.746,78.285z"/>
			<path fill="#009944" d="M57.892,77.097c-0.575,0.306-3.25,1-3.25,1l-0.333,3.75c1.22-0.802,2.873-0.722,3.833-0.667
				c2.01,0.114,3.688,0.682,3.688,0.682l-0.448-6.588C60.927,75.672,60.03,75.961,57.892,77.097z"/>
			<path fill="#791F52" d="M66.977,92.068c0,0-0.263,0.813-0.301,1.323c-0.036,0.509-0.728,0.607-0.728,0.607
				s-1.713-4.972-7.307-4.901c-6.583,0.083-7.785,4.854-8.106,4.836c-0.652-0.036-0.547-0.613-0.547-0.613s0.005-1.124,0.007-1.601
				s0.325-4.127,1.786-6.699c1.15-2.025,4.188-2.754,6.241-2.673c1.816,0.071,4.928,0.892,6.899,2.511
				C66.893,86.479,66.977,92.068,66.977,92.068z"/>
			<path fill="#791F52" d="M64.475,92.847c0,0,0.694,1.155,0.667,1.333c-0.025,0.178-1.451,0.15-1.451,0.15
				s-10.409-0.033-10.874-0.046c-0.46-0.015-1.592-0.104-1.592-0.104l0.917-1.25c0-0.165,0.516-0.854,1.542-1.747
				c0.808-0.703,3.01-1.45,4.458-1.419c1.281,0.027,2.939,0.684,4.333,1.25C63.869,91.582,64.475,92.847,64.475,92.847z"/>
		</g>
		<polygon fill="#791F52" stroke="#FFFFFF" points="67.367,73.1 63.964,82.381 52.402,82.381 48.402,79.588 44.527,82.573 
			32.777,82.511 30.089,72.247 25.902,65.035 71.214,65.294 		"/>
		<g>
			<polygon fill="#FFFFFF" stroke="#FFFFFF" stroke-width="0.5" points="48.522,66.41 23.532,66.097 23.323,43.725 48.756,54.097 
							"/>
			<line fill="none" stroke="#000000" stroke-width="0.5" x1="23.323" y1="43.725" x2="24.154" y2="48.16"/>
			<g>
				<line fill="none" stroke="#791F52" stroke-width="0.5" x1="24.154" y1="48.16" x2="48.965" y2="54.16"/>
			</g>
		</g>
		<g>
			<polygon fill="#FFFFFF" stroke="#FFFFFF" stroke-width="0.5" points="48.766,66.347 73.756,66.035 73.965,43.663 48.532,54.035 
							"/>
			<line fill="none" stroke="#000000" stroke-width="0.5" x1="73.965" y1="43.663" x2="73.134" y2="48.097"/>
			<g>
				<line fill="none" stroke="#791F52" stroke-width="0.5" x1="73.134" y1="48.097" x2="48.323" y2="54.097"/>
			</g>
		</g>
		<polygon fill="#791F52" stroke="#FFFFFF" stroke-width="0.75" points="50.464,66.41 46.402,66.41 47.339,56.91 49.589,56.91 		"/>
		<rect x="46.964" y="54.16" fill="#791F52" stroke="#FFFFFF" stroke-width="0.75" width="3" height="2.75"/>
		<g>
			<polygon fill="#791F52" stroke="#FFFFFF" stroke-linecap="round" stroke-linejoin="round" points="48.027,69.43 46.36,74.43 
				18.36,71.822 23.36,43.264 48.027,61.93 			"/>
			
				<line fill="none" stroke="#FFFFFF" stroke-linecap="round" stroke-linejoin="round" x1="23.194" y1="46.264" x2="24.36" y2="51.764"/>
			
				<line fill="none" stroke="#FFFFFF" stroke-linecap="round" stroke-linejoin="round" x1="24.36" y1="51.764" x2="29.194" y2="51.764"/>
			
				<line fill="none" stroke="#FFFFFF" stroke-linecap="round" stroke-linejoin="round" x1="29.194" y1="51.764" x2="29.194" y2="56.43"/>
			
				<line fill="none" stroke="#FFFFFF" stroke-linecap="round" stroke-linejoin="round" x1="29.194" y1="56.43" x2="47.36" y2="62.097"/>
		</g>
		<g>
			<polygon fill="#791F52" stroke="#FFFFFF" stroke-linecap="round" stroke-linejoin="round" points="48.859,69.43 50.526,74.43 
				78.526,71.822 73.526,43.264 48.859,61.93 			"/>
			
				<line fill="none" stroke="#FFFFFF" stroke-linecap="round" stroke-linejoin="round" x1="73.692" y1="46.264" x2="72.526" y2="51.764"/>
			
				<line fill="none" stroke="#FFFFFF" stroke-linecap="round" stroke-linejoin="round" x1="72.526" y1="51.764" x2="67.692" y2="51.764"/>
			
				<line fill="none" stroke="#FFFFFF" stroke-linecap="round" stroke-linejoin="round" x1="67.692" y1="51.764" x2="67.692" y2="56.43"/>
			
				<line fill="none" stroke="#FFFFFF" stroke-linecap="round" stroke-linejoin="round" x1="67.692" y1="56.43" x2="49.526" y2="62.097"/>
		</g>
		<polygon fill="#FFFFFF" points="14.527,22.347 10.527,22.347 10.527,19.18 14.527,14.68 		"/>
		<g>
			<path fill="#FFFFFF" d="M53.981,7.103c0.128,0.028,0.17,0.042,0.17,0.121c0,0.092-0.092,0.092-0.184,0.099
				c-0.035,0.142-0.198,0.736-0.233,0.893c1.253-0.05,1.678,0.729,1.678,2.103c0,0.113,0,1.628-0.588,2.372
				c-0.155,0.198-0.453,0.467-1.14,0.467c-0.312,0-0.453-0.042-0.602-0.085c0-0.517-0.008-0.608-0.148-1.154
				c0.445,0.121,0.594,0.142,0.743,0.142c0.58,0,0.658-1.274,0.658-1.982c0-0.283-0.021-0.8-0.665-0.8
				c-0.071,0-0.143,0.007-0.213,0.015c-0.361,1.345-0.893,2.641-1.614,3.83c-0.212-0.177-0.46-0.34-1.02-0.566
				c0.581-0.878,1.154-1.947,1.494-3.016c-0.439,0.127-0.666,0.219-1.006,0.382l-0.333-1.196c0.283-0.028,0.596-0.1,1.636-0.333
				c0.128-0.623,0.206-1.005,0.213-1.579L53.981,7.103z M55.801,7.959c0.445,0.446,0.871,0.935,1.146,1.366
				c0.262,0.403,0.34,0.637,0.34,0.885c0,0.531-0.615,0.758-1.041,0.921c-0.155-0.347-0.424-0.772-0.537-0.942
				c0.269-0.085,0.36-0.113,0.36-0.269c0-0.34-0.693-1.232-0.998-1.558L55.801,7.959z M56.198,7.082
				c0.312,0.318,0.438,0.495,0.58,0.701c-0.162,0.113-0.198,0.142-0.517,0.375c-0.071-0.092-0.425-0.56-0.581-0.723L56.198,7.082z
				 M56.906,6.642c0.39,0.396,0.523,0.609,0.595,0.723c-0.156,0.113-0.411,0.29-0.574,0.403c-0.197-0.354-0.318-0.524-0.566-0.779
				L56.906,6.642z"/>
			<path fill="#FFFFFF" d="M61.167,7.082c0.064,0.014,0.143,0.042,0.143,0.113c0,0.085-0.1,0.092-0.156,0.092
				c-0.028,0.113-0.148,0.616-0.177,0.715c0.651-0.12,0.899-0.227,1.175-0.347l0.121,1.111c-0.22,0.071-0.623,0.191-1.601,0.333
				c-0.283,0.892-0.778,2.436-1.854,4.142c-0.298-0.191-0.56-0.312-1.069-0.538c0.595-0.743,1.338-2.103,1.749-3.434
				c-0.433,0.035-0.518,0.035-1.296,0.042L58.108,8.15c0.213,0.014,0.461,0.028,0.822,0.028c0.318,0,0.53-0.007,0.842-0.028
				c0.1-0.531,0.148-0.991,0.191-1.338L61.167,7.082z M61.698,11.343c-0.177,0.227-0.191,0.361-0.191,0.418
				c0,0.099,0.05,0.142,0.128,0.184c0.148,0.085,0.56,0.121,0.948,0.121c0.736,0,1.261-0.142,1.559-0.234
				c-0.021,0.134-0.05,0.291-0.05,0.552c0,0.255,0.028,0.446,0.042,0.588c-0.495,0.085-0.977,0.12-1.465,0.12
				c-0.928,0-2.16-0.135-2.16-1.14c0-0.276,0.064-0.503,0.276-0.928L61.698,11.343z M61.366,9.34c0.65-0.127,1.43-0.127,1.564-0.127
				c0.615,0,0.898,0.05,1.041,0.078c-0.043,0.523-0.05,0.637-0.057,1.111c-0.354-0.092-0.694-0.127-1.063-0.127
				c-0.418,0-0.991,0.064-1.486,0.127V9.34z"/>
			<path fill="#FFFFFF" d="M68.657,7.23c0.064,0.028,0.113,0.063,0.113,0.127c0,0.092-0.105,0.085-0.17,0.071
				c-0.262,0.46-0.595,1.104-0.97,1.848c-0.071,0.135-0.099,0.177-0.155,0.27c0.155-0.036,0.382-0.092,0.658-0.092
				c0.438,0,1.033,0.17,1.033,0.906c0,0.191-0.028,0.425-0.063,0.595c-0.057,0.297-0.085,0.46-0.085,0.694
				c0,0.184,0.05,0.354,0.27,0.354c0.247,0,1.02-0.446,1.521-1.161c0.213,0.312,0.56,0.715,0.744,0.899
				c-0.199,0.22-0.603,0.666-1.204,1.027c-0.56,0.333-1.083,0.417-1.353,0.417c-0.658,0-1.133-0.375-1.133-1.076
				c0-0.212,0.121-1.146,0.121-1.338c0-0.255-0.143-0.34-0.291-0.34c-0.765,0-1.614,2.188-1.728,2.612l-1.153-0.481
				c0.453-0.757,1.479-2.881,1.699-3.349c0.445-0.963,0.729-1.664,1.062-2.521L68.657,7.23z"/>
			<path fill="#FFFFFF" d="M67.184,18.396c-0.198,0.17-0.552,0.538-0.552,0.772c0,0.51,0.97,0.51,1.267,0.51
				c0.963,0,1.919-0.149,2.84-0.425c0.007,0.177,0.021,0.566,0.184,1.203c-0.545,0.156-1.543,0.326-2.768,0.326
				c-1.105,0-1.544-0.121-1.891-0.262c-0.227-0.092-0.899-0.425-0.899-1.14c0-0.736,0.736-1.395,1.026-1.656L67.184,18.396z
				 M70.158,16.066c-0.658,0.262-1.395,0.701-1.784,1.154c-0.255-0.22-0.523-0.446-0.743-0.609c0.262-0.241,0.325-0.291,0.531-0.46
				c-0.439,0.036-1.629,0.1-2.23,0.085l-0.057-1.182c0.425,0.071,1.296,0.092,1.763,0.092c0.893,0,1.671-0.121,1.976-0.163
				L70.158,16.066z M70.469,14.961c0.191,0.177,0.488,0.51,0.645,0.744c-0.106,0.106-0.198,0.191-0.418,0.51
				c-0.297-0.382-0.34-0.425-0.68-0.786L70.469,14.961z M71.014,14.36c0.106,0.099,0.313,0.283,0.666,0.694
				c-0.184,0.156-0.34,0.326-0.453,0.481c-0.148-0.206-0.453-0.545-0.616-0.694L71.014,14.36z"/>
			<path fill="#FFFFFF" d="M77.938,17.064c-0.502,0.036-1.098,0.085-2.379,0.666c-1.246,0.566-1.741,1.175-1.741,1.522
				c0,0.51,0.757,0.608,1.656,0.608c0.786,0,1.862-0.17,2.422-0.403c-0.063,0.318-0.1,0.609-0.078,1.246
				c-0.956,0.177-2.004,0.212-2.394,0.212c-1.231,0-1.713-0.184-2.066-0.375c-0.446-0.24-0.772-0.658-0.772-1.218
				c0-0.963,0.808-1.564,1.509-2.003c-0.354-0.396-0.404-0.772-0.524-1.671c-0.042-0.34-0.085-0.453-0.191-0.757l1.388-0.298
				c-0.028,0.361-0.042,0.517-0.042,0.744c0,0.85,0.247,1.395,0.312,1.508c1.104-0.524,1.607-0.701,2.471-1.013L77.938,17.064z"/>
			<path fill="#FFFFFF" d="M82.83,15.025c0.063,0.028,0.113,0.064,0.113,0.127c0,0.092-0.106,0.085-0.17,0.071
				c-0.262,0.46-0.595,1.104-0.97,1.848c-0.07,0.134-0.1,0.177-0.156,0.269c0.156-0.035,0.383-0.092,0.659-0.092
				c0.438,0,1.033,0.17,1.033,0.906c0,0.191-0.028,0.425-0.063,0.595c-0.057,0.297-0.085,0.46-0.085,0.694
				c0,0.184,0.05,0.354,0.269,0.354c0.248,0,1.02-0.446,1.522-1.161c0.213,0.312,0.56,0.715,0.743,0.899
				c-0.197,0.219-0.602,0.665-1.203,1.026c-0.56,0.333-1.083,0.418-1.353,0.418c-0.658,0-1.133-0.375-1.133-1.076
				c0-0.213,0.12-1.147,0.12-1.338c0-0.255-0.141-0.34-0.29-0.34c-0.765,0-1.614,2.188-1.728,2.613l-1.154-0.481
				c0.453-0.758,1.48-2.882,1.699-3.349c0.446-0.963,0.729-1.664,1.063-2.521L82.83,15.025z"/>
		</g>
		<g>
			<polygon fill="#791F52" stroke="#FFFFFF" points="84.777,85.846 82.944,87.597 77.277,87.597 77.277,58.566 84.777,58.566 			"/>
			<rect x="79.285" y="41.798" fill="#791F52" stroke="#FFFFFF" width="2.992" height="16.799"/>
		</g>
	</g>
</g>
</svg>
