<?xml version="1.0" encoding="utf-8"?>
<!-- Generator: Adobe Illustrator 13.0.0, SVG Export Plug-In . SVG Version: 6.00 Build 14948)  -->
<!DOCTYPE svg PUBLIC "-//W3C//DTD SVG 1.1//EN" "http://www.w3.org/Graphics/SVG/1.1/DTD/svg11.dtd">
<svg version="1.1" id="レイヤー_1" xmlns="http://www.w3.org/2000/svg" xmlns:xlink="http://www.w3.org/1999/xlink" x="0px"
	 y="0px" width="100px" height="100px" viewBox="0 0 100 100" enable-background="new 0 0 100 100" xml:space="preserve">
<g>
	<defs>
		<path id="SVGID_1_" d="M50,0c27.614,0,50,22.386,50,50c0,23.426-16.11,43.089-37.856,48.514C58.256,99.485,54.188,100,50,100
			C22.386,100,0,77.614,0,50C0,22.386,22.386,0,50,0z"/>
	</defs>
	<use xlink:href="#SVGID_1_"  overflow="visible" fill="#791F52"/>
	<clipPath id="SVGID_2_">
		<use xlink:href="#SVGID_1_"  overflow="visible"/>
	</clipPath>
	<g clip-path="url(#SVGID_2_)">
		<g>
			<path fill="#FFFFFF" d="M44.09,81.233c0.064,0.022,5.487,1.338,6.851,6.096c0.028,0.092,0.902,0,0.902,0s0.365-3.653,9.348-7.137
				c5.941-2.301,11.294-7.613,13.578-12.46c2.285-4.847,3.518-9.54,3.047-15.724c-0.737-9.672-2.491-10.995-5.054-16.258
				c-3.226-6.631-9.078-11.44-13.022-13.312c-3.949-1.866-7.448-2.25-13.335-0.933c0,0-4.051,1.02-7.786,4.188
				c-4.3,3.65-4.979,5.611-6.436,7.62c-1.451,2.009-4.821,7.479-6.165,15.16c-1.076,6.158-0.14,10.39,0,11.083
				c0.138,0.691,0.834,4.099,1.596,5.692C28.376,66.841,31.19,76.479,44.09,81.233z"/>
			<path fill="#791F52" d="M65.869,28.358c5.901,5.914,7.655,11.386,8.732,14.694c1.028,3.159,2.344,6.411,1.829,13.964
				c-0.571,8.354-5.239,14.181-7.314,16.486c-2.078,2.309-5.777,4.674-12.242,7.388c-4.33,1.818-5.382,4.537-5.47,4.349
				c-1.428-3.095-5.926-4.813-7.802-5.547c-3.333-1.305-12.729-6.457-15.438-16.795c-2.021-7.715-1.153-13.283-0.924-14.436
				c0.23-1.157,2.085-9.308,7.895-17.643c2.451-3.52,7.188-6.264,9.498-7.386c2.401-1.167,6.711-2.017,11.533-0.944
				C60.304,23.413,65.111,27.596,65.869,28.358z"/>
			<path fill="#FFFFFF" d="M30.263,36.973c0,0-0.5-2.744-3.122-4.326c-2.649-1.603-5.134-0.758-6.777-0.588
				c-1.645,0.174-4.386,1.703-5.336,2.135c-0.953,0.435-3.538,1.879-3.973,2.223c-0.434,0.345-0.592,0.648,0.269,1.309
				c0.875,0.674,1.801,1.58,3.201,1.943c1.093,0.279,2.725,0.445,2.438,0.229c-0.071-0.05-1.179,1.415-1.821,2.311
				c-0.712,0.987-1.01,1.809-0.923,2.413c0.087,0.608,3.439,0.448,4.442,0.308c1.582-0.219,2.972-0.999,3.594-1.302
				c0.019-0.009,0.105,2.245,0.491,3.361c0.496,1.433,0.935,1.339,2.107,1.056c0.941-0.223,1.684-1.297,2.03-1.818
				C27.228,45.707,30.263,36.973,30.263,36.973z"/>
			<path fill="#791F52" d="M24.748,33.242c0,0-2.148-0.863-5.584,0.486c-3.154,1.237-4.716,2.202-5.34,2.546
				c-0.623,0.348-1.49,0.57-0.822,1.125c0.452,0.377,2.124,1.58,3.807,1.383c1.936-0.225,2.243-0.066,2.314,0.418
				c0.069,0.484-0.438,0.891-1.27,1.72c-0.831,0.833-1.086,1.306-1.56,1.829c-0.459,0.506-0.236,0.9-0.236,0.9
				s2.303,0.23,3.867-0.321c2.376-0.845,2.204-1.132,2.604-1.417c0.344-0.248,0.811-0.148,0.948,0.476
				c0.138,0.62,0.216,2.479,0.284,3.036c0.069,0.551,0.184,1.242,0.505,1.285c0.402,0.051,2.443-1.529,2.581-2.177
				c0.223-1.033,2.218-6.3,2.218-6.3s-0.099-2.039-1.086-3.127C27.136,34.18,26.062,33.308,24.748,33.242z"/>
			<path fill="#FFFFFF" d="M76.31,46.225c0.347,0.521,1.091,1.596,2.029,1.818c1.174,0.283,1.612,0.377,2.107-1.056
				c0.389-1.116,0.474-3.37,0.492-3.361c0.622,0.303,2.013,1.083,3.593,1.302c1.006,0.141,4.357,0.301,4.442-0.308
				c0.088-0.604-0.213-1.426-0.923-2.413c-0.643-0.896-1.752-2.36-1.82-2.311c-0.285,0.217,1.346,0.051,2.438-0.229
				c1.402-0.363,2.328-1.27,3.2-1.943c0.858-0.66,0.703-0.964,0.269-1.309c-0.432-0.344-3.019-1.788-3.97-2.223
				c-0.95-0.432-3.694-1.961-5.341-2.135c-1.642-0.17-4.123-1.015-6.777,0.588c-2.617,1.582-3.118,4.326-3.118,4.326
				S75.965,45.707,76.31,46.225z"/>
			<path fill="#791F52" d="M75.214,35.104c-0.984,1.088-1.083,3.127-1.083,3.127s2.342,4.507,2.622,6.429
				c0.096,0.656,1.501,2.155,2.176,2.048c0.319-0.051,0.432-0.734,0.501-1.285c0.068-0.557,0.151-2.416,0.289-3.036
				c0.138-0.624,0.602-0.724,0.946-0.476c0.399,0.285,0.229,0.572,2.604,1.417c1.562,0.552,3.866,0.321,3.866,0.321
				s0.226-0.395-0.234-0.9c-0.473-0.523-0.729-0.996-1.561-1.829c-0.831-0.829-1.337-1.235-1.268-1.72
				c0.068-0.484,0.379-0.643,2.314-0.418c1.683,0.197,3.352-1.006,3.807-1.383c0.666-0.555-0.2-0.777-0.824-1.125
				c-0.622-0.344-2.186-1.309-5.339-2.546c-3.435-1.35-5.583-0.486-5.583-0.486C77.129,33.308,76.055,34.18,75.214,35.104z"/>
			<path fill="#FFFFFF" d="M51.584,50.266c0,0-4.574-0.551-8.945,3.311c-3.37,2.977-4.978,6.271-5.501,10.934
				c-0.396,3.514,0.486,7.729,2.777,10.727c1.833,2.4,3.256,4.795,7.981,5.924c4.551,1.092,9.226,0.336,12.696-3.019
				c2.907-2.808,5.3-6.888,5.254-13.066c-0.042-5.832-3.48-9.87-6.05-11.997C57.168,50.9,53.732,50.266,51.584,50.266z"/>
			<circle fill="#FFFFFF" cx="42.501" cy="34.696" r="8.2"/>
			<circle fill="#FFFFFF" cx="60.589" cy="34.696" r="8.2"/>
			<circle fill="#791F52" cx="42.501" cy="34.695" r="3.288"/>
			<circle fill="#791F52" cx="60.589" cy="34.695" r="3.288"/>
			<path fill="#791F52" d="M50.923,34.514L40.441,44.993c0,0-0.887,0.42-0.143,1.322c1.05,1.27,10.39,10.575,10.39,10.575
				s0.896,1.086,1.511,0.236c0.588-0.813,10.769-10.621,10.769-10.621s0.899-0.615-0.093-1.465
				c-0.913-0.78-10.346-10.575-10.346-10.575S51.727,33.473,50.923,34.514z"/>
			<path fill="#FFFFFF" d="M51.396,35.458l-9.919,9.817c0,0-0.517,0.236-0.043,0.707c0.471,0.474,9.773,9.868,9.773,9.868
				s0.239,0.473,0.707,0c0.474-0.473,9.924-9.771,9.924-9.771s0.282-0.285-0.143-0.662c-0.576-0.51-9.73-9.914-9.73-9.914
				S51.634,35.079,51.396,35.458z"/>
			<path fill="#791F52" d="M51.161,38.855l-8.83,6.562c0,0-0.331,0.285,0,0.52c0.33,0.236,8.688,8.215,8.688,8.215
				s0.593,0.639,0.992,0.097c0.037-0.051,8.738-7.981,8.738-7.981s0.846-0.364,0.097-0.66c-0.027-0.008-8.932-6.751-8.932-6.751
				S51.538,38.571,51.161,38.855z"/>
			<path fill="#FFFFFF" d="M37.029,77.203v6.554c0,0-2.519,1.797-3.437,4.107c-1.079,2.713-0.637,2.867-0.637,5.205
				c0,0.07-0.92,0.247-1.274,1.416c-0.22,0.721-0.182,1.443-0.104,1.948c0.048,0.313,6.234,2.091,6.328,2.091
				c4.849,0,11.947,0,11.947,0s1.293-0.635,1.378-1.488c0.096-0.928,0-2.338,0-2.338s-0.202-1.311-1.24-1.533
				c-0.048-0.012,0.836-3.416-1.134-6.401c-1.194-1.813-1.805-2.016-2.193-2.479c-0.393-0.459-0.566-0.813-0.604-1.346
				c-0.032-0.532,0-1.414,0-1.414L37.029,77.203z"/>
			<path fill="#791F52" d="M38.341,78.443l-0.037,4.075c0,0,2.884-2.344,6.695-0.374l0.068-0.588c0,0-1.637-0.474-3.363-1.312
				C39.617,79.242,38.8,78.76,38.341,78.443z"/>
			<path fill="#791F52" d="M36.747,92.997h9.455c0,0-1.736-2.123-4.78-2.089C38.552,90.942,37.17,92.467,36.747,92.997z"/>
			<path fill="#791F52" d="M48.209,87.995c0,0,0.872,1.336,0.638,5.005c-0.002,0.022-1.061,0.022-1.061,0.022
				s-0.891-1.588-1.892-1.841c-0.285-0.069-0.328-0.377,0-0.494c0.33-0.119,0.638-0.452,0.687-0.826
				c0.043-0.377-0.025-0.806,0.186-0.897C46.982,88.869,47.81,88.751,48.209,87.995z"/>
			<path fill="#791F52" d="M36.191,88.963c0.214,0.092,0.143,0.521,0.188,0.897c0.051,0.374,0.355,0.707,0.687,0.826
				c0.33,0.117,0.282,0.425,0,0.494c-1.004,0.253-1.89,1.841-1.89,1.841s-1.061,0-1.063-0.022c-0.236-3.669,0.639-5.005,0.639-5.005
				C35.153,88.751,35.98,88.869,36.191,88.963z"/>
			<path fill="#791F52" d="M41.541,89.592c0.749,0,1.966,0.234,1.966,0.234c-0.397-1.1-2.003-0.958-2.003-0.958
				c-1.019,0-1.487,0.352-1.866,0.967C39.638,89.835,40.579,89.592,41.541,89.592z"/>
			<path fill="#791F52" d="M45.614,89.174c-0.34-0.631-1.612-2.622-4.252-2.668c-2.262-0.037-3.573,1.926-3.968,2.654
				c0,0-0.216,0.335,0.078,0.537c0.165,0.11,0.262,0.182,0.413,0.248c0,0,0.221,0.193,0.379-0.066
				c0.328-0.535,1.38-2.166,3.098-2.238c1.956-0.086,2.978,1.528,3.297,2.075c0,0-0.025,0.188,0.28,0.089l0.588-0.34
				c0,0,0.184,0.035,0.087-0.342"/>
			<path fill="#791F52" d="M41.174,84.029c0,0-3.21-0.085-5.196,2.739c-0.507,0.717,0.521,1.157,0.898,0.804
				c0.571-0.538,2.266-2.319,4.366-2.292c2.104,0.023,3.74,0.822,4.678,2.102c0.296,0.406,1.508,0.123,1.205-0.542
				C46.758,86.042,44.928,84.003,41.174,84.029z"/>
			<path fill="#791F52" d="M39.332,82.831c0,0,0.756-0.632,2.416-0.654c1.373-0.021,1.781,0.257,2.344,0.631l-0.702,0.26
				c0,0-0.776-0.285-1.72-0.285c-0.926,0-1.465,0.143-1.701,0.331L39.332,82.831z"/>
			<path fill="#FFFFFF" d="M33.464,94.237h15.76c0,0,0.744,0.177,0.744,0.673s0,1.667,0,1.667s0.105,0.602-0.565,0.636
				c-0.675,0.034-15.833,0-15.833,0s-0.709-0.105-0.744-0.636c-0.036-0.533,0-1.738,0-1.738S32.825,94.203,33.464,94.237z"/>
			<path fill="#FFFFFF" d="M56.871,81.524c0,0,0.035,0.882,0,1.414c-0.034,0.533-0.216,0.887-0.604,1.346
				c-0.391,0.464-0.996,0.666-2.195,2.479c-1.97,2.985-1.086,6.39-1.134,6.401c-1.038,0.223-1.242,1.533-1.242,1.533
				s-0.094,1.41,0,2.338c0.09,0.854,1.385,1.488,1.385,1.488s4.699,0,9.063,0c0,0,8.48-2.375,9.234-3.439
				c0.114-0.162-0.066-0.398-0.127-0.6c-0.354-1.169-1.276-1.346-1.276-1.416c0-2.338,0.44-2.492-0.634-5.205
				c-0.918-2.311-3.439-4.107-3.439-4.107v-6.554L56.871,81.524z"/>
			<path fill="#791F52" d="M61.227,80.245c-1.727,0.838-3.363,1.312-3.363,1.312l0.071,0.588c3.809-1.97,6.695,0.374,6.695,0.374
				l-0.037-4.075C64.134,78.76,63.314,79.242,61.227,80.245z"/>
			<path fill="#791F52" d="M61.512,90.908c-3.045-0.034-4.785,2.089-4.785,2.089h9.46C65.759,92.467,64.382,90.942,61.512,90.908z"
				/>
			<path fill="#791F52" d="M56.162,88.963c0.211,0.092,0.143,0.521,0.188,0.897c0.046,0.374,0.354,0.707,0.687,0.826
				c0.33,0.117,0.282,0.425,0,0.494c-1.004,0.253-1.895,1.841-1.895,1.841s-1.061,0-1.061-0.022
				c-0.236-3.669,0.638-5.005,0.638-5.005C55.119,88.751,55.951,88.869,56.162,88.963z"/>
			<path fill="#791F52" d="M68.179,87.995c0,0,0.873,1.336,0.639,5.005c-0.002,0.022-1.063,0.022-1.063,0.022
				s-0.887-1.588-1.89-1.841c-0.285-0.069-0.331-0.377,0-0.494c0.33-0.119,0.638-0.452,0.684-0.826
				c0.049-0.377-0.022-0.806,0.188-0.897C66.951,88.869,67.777,88.751,68.179,87.995z"/>
			<path fill="#791F52" d="M63.293,89.835c-0.376-0.615-0.847-0.967-1.864-0.967c0,0-1.604-0.142-2.007,0.958
				c0,0,1.222-0.234,1.971-0.234C62.352,89.592,63.293,89.835,63.293,89.835z"/>
			<path fill="#791F52" d="M57.314,89.124c-0.092,0.377,0.087,0.342,0.087,0.342l0.593,0.34c0.303,0.1,0.278-0.089,0.278-0.089
				c0.318-0.547,1.338-2.161,3.299-2.075c1.713,0.072,2.769,1.703,3.095,2.238c0.161,0.26,0.382,0.066,0.382,0.066
				c0.148-0.066,0.245-0.138,0.41-0.248c0.294-0.202,0.076-0.537,0.076-0.537c-0.391-0.729-1.701-2.691-3.963-2.654
				c-2.643,0.046-3.912,2.037-4.252,2.668"/>
			<path fill="#791F52" d="M55.809,86.839c-0.308,0.665,0.904,0.948,1.205,0.542c0.935-1.279,2.574-2.078,4.673-2.102
				c2.103-0.027,3.797,1.754,4.371,2.292c0.377,0.354,1.4-0.087,0.896-0.804c-1.988-2.824-5.193-2.739-5.193-2.739
				C58.006,84.003,56.176,86.042,55.809,86.839z"/>
			<path fill="#791F52" d="M62.963,83.113c-0.234-0.188-0.776-0.331-1.699-0.331c-0.943,0-1.722,0.285-1.722,0.285l-0.703-0.26
				c0.561-0.374,0.974-0.652,2.342-0.631c1.663,0.022,2.42,0.654,2.42,0.654L62.963,83.113z"/>
			<path fill="#FFFFFF" d="M70.107,94.838c0,0,0.032,1.205,0,1.738c-0.036,0.53-0.743,0.636-0.743,0.636s-15.163,0.034-15.834,0
				c-0.675-0.034-0.566-0.636-0.566-0.636s0-1.171,0-1.667s0.744-0.673,0.744-0.673H69.47
				C70.107,94.203,70.107,94.838,70.107,94.838z"/>
		</g>
		<g>
			<path fill="#FFFFFF" d="M50.999,5.757c0.8,0.167,2.991-2.817,3.165-2.788c0.125,0.02,0.105,2.959,0.661,3.141
				c0.178,0.058,3.753-1.83,3.857-1.723c0,0-0.372,1.686-1.139,2.912c-0.261,0.418,5.571,0.272,5.577,0.322
				c0.011,0.098-7.25,0.935-7.271,1.023c-0.315,1.463-3.078,1.486-5.642,1.742c-2.508,0.248-5.922-0.329-6.584-1.744
				c-0.055-0.119-4.541-1.003-4.556-1.135C39.05,7.32,43.331,7.7,43.101,7.227c-0.688-1.406-1.035-2.528-0.879-2.637
				c0.43-0.305,3.541,1.902,4.063,1.667c0.67-0.301,2.184-3.497,2.514-3.553C49.1,2.653,50.31,5.614,50.999,5.757z"/>
			<path fill="#791F52" stroke="#FFFFFF" d="M70.992,26.417c-0.99,2.85-1.476,4.119-1.476,4.119s-6.708-3.09-18.382-3.219
				c-10.2-0.112-17.176,4.119-17.176,4.119s-2.28-2.061-3.22-5.021c-0.791-2.493-2.416-7.594-1.342-11.454
				c0.766-2.754,6.574-6.436,20.931-6.694c16.371-0.294,17.981,2.317,20.396,4.249C73.935,15.082,72.336,22.554,70.992,26.417z"/>
			<path fill="#FFFFFF" d="M58.896,17.651c0,0.412-0.541,1.537-0.541,1.537s-0.64-1.125-0.64-1.537c0-0.414,0.265-0.748,0.591-0.748
				C58.632,16.903,58.896,17.237,58.896,17.651z"/>
			<path fill="#FFFFFF" d="M33.252,14.507c0.155,0.385,0.078,1.62,0.078,1.62s-1.021-0.828-1.177-1.213
				c-0.156-0.386-0.039-0.789,0.266-0.9C32.722,13.901,33.096,14.123,33.252,14.507z"/>
			<path fill="#FFFFFF" d="M43.202,11.627c0.117,0.396-0.078,1.619-0.078,1.619s-0.938-0.914-1.057-1.311
				c-0.119-0.396,0.039-0.789,0.352-0.873C42.733,10.977,43.084,11.231,43.202,11.627z"/>
			<path fill="#FFFFFF" d="M38.208,12.682c0.111,0.398-0.106,1.617-0.106,1.617s-0.92-0.929-1.034-1.328
				c-0.11-0.398,0.054-0.786,0.37-0.866C37.75,12.024,38.097,12.283,38.208,12.682z"/>
			<path fill="#FFFFFF" d="M49.173,11.09c0,0.412-0.542,1.537-0.542,1.537s-0.639-1.125-0.639-1.537s0.264-0.748,0.591-0.748
				C48.908,10.342,49.173,10.678,49.173,11.09z"/>
			<path fill="#FFFFFF" d="M55.368,11.132c0,0.412-0.54,1.536-0.54,1.536s-0.639-1.124-0.639-1.536c0-0.413,0.265-0.747,0.59-0.747
				S55.368,10.719,55.368,11.132z"/>
			<path fill="#FFFFFF" d="M60.385,11.967c-0.184,0.373-1.171,1.174-1.171,1.174s-0.081-1.275,0.101-1.649
				c0.184-0.374,0.571-0.571,0.866-0.439C60.477,11.183,60.566,11.592,60.385,11.967z"/>
			<path fill="#FFFFFF" d="M65.356,13c-0.121,0.396-0.971,1.33-0.971,1.33s-0.283-1.25-0.161-1.646s0.474-0.646,0.786-0.56
				C65.323,12.212,65.478,12.604,65.356,13z"/>
			<path fill="#FFFFFF" d="M70.412,16.086c-0.193,0.37-1.203,1.145-1.203,1.145s-0.045-1.275,0.146-1.646
				c0.195-0.369,0.587-0.556,0.879-0.418C70.526,15.305,70.605,15.717,70.412,16.086z"/>
			<path fill="#FFFFFF" d="M53.215,16.176c0,0.414-0.542,1.537-0.542,1.537s-0.639-1.123-0.639-1.537
				c0-0.412,0.264-0.746,0.59-0.746S53.215,15.764,53.215,16.176z"/>
			<path fill="#FFFFFF" d="M32.729,19.552c0.157,0.385,0.079,1.619,0.079,1.619s-1.022-0.827-1.179-1.212
				c-0.155-0.385-0.037-0.788,0.268-0.9C32.202,18.946,32.574,19.167,32.729,19.552z"/>
			<path fill="#FFFFFF" d="M36.713,17.932c0.156,0.386,0.076,1.62,0.076,1.62s-1.021-0.827-1.177-1.212s-0.037-0.789,0.266-0.9
				C36.183,17.327,36.555,17.548,36.713,17.932z"/>
			<path fill="#FFFFFF" d="M41.804,17.497c0.156,0.385,0.078,1.619,0.078,1.619s-1.021-0.827-1.179-1.213
				c-0.155-0.385-0.036-0.787,0.268-0.9C41.274,16.891,41.647,17.112,41.804,17.497z"/>
			<path fill="#FFFFFF" d="M47.338,16.649c0.06,0.408-0.317,1.592-0.317,1.592s-0.792-1.029-0.852-1.439
				c-0.058-0.408,0.155-0.775,0.479-0.816C46.971,15.942,47.28,16.239,47.338,16.649z"/>
			<path fill="#FFFFFF" d="M64.377,17.858c-0.134,0.393-1.015,1.301-1.015,1.301s-0.24-1.258-0.106-1.65
				c0.135-0.393,0.494-0.633,0.806-0.535C64.37,17.069,64.513,17.465,64.377,17.858z"/>
			<path fill="#FFFFFF" d="M67.871,20.026c-0.201,0.366-1.226,1.123-1.226,1.123s-0.021-1.279,0.18-1.645s0.599-0.547,0.887-0.402
				C68.001,19.247,68.072,19.661,67.871,20.026z"/>
			<path fill="#FFFFFF" d="M35.341,25.905c0.157,0.385,0.078,1.62,0.078,1.62s-1.021-0.829-1.178-1.213
				c-0.156-0.386-0.037-0.788,0.267-0.901C34.812,25.299,35.185,25.52,35.341,25.905z"/>
			<path fill="#FFFFFF" d="M40.801,23.992c0.157,0.385,0.079,1.62,0.079,1.62s-1.021-0.828-1.179-1.213
				c-0.156-0.386-0.037-0.789,0.268-0.901C40.272,23.385,40.646,23.606,40.801,23.992z"/>
			<path fill="#FFFFFF" d="M68.687,25.518c-0.29,0.309-1.479,0.799-1.479,0.799s0.313-1.244,0.603-1.551
				c0.288-0.307,0.72-0.387,0.962-0.18C69.014,24.795,68.974,25.212,68.687,25.518z"/>
			<path fill="#FFFFFF" d="M62.937,22.922c-0.149,0.388-1.07,1.26-1.07,1.26s-0.185-1.266-0.035-1.652
				c0.152-0.387,0.521-0.613,0.827-0.504S63.089,22.536,62.937,22.922z"/>
			<path fill="#FFFFFF" d="M46.856,22.741c0.156,0.385,0.076,1.619,0.076,1.619s-1.021-0.828-1.177-1.212
				c-0.155-0.386-0.037-0.788,0.268-0.9C46.326,22.135,46.7,22.356,46.856,22.741z"/>
			<path fill="#FFFFFF" d="M56.739,22.342c-0.07,0.407-0.803,1.429-0.803,1.429s-0.433-1.21-0.358-1.617
				c0.072-0.407,0.391-0.694,0.711-0.642C56.611,21.563,56.813,21.936,56.739,22.342z"/>
			<path fill="#FFFFFF" d="M51.953,22.345c0.002,0.413-0.533,1.539-0.533,1.539s-0.645-1.121-0.646-1.534
				c-0.003-0.412,0.26-0.748,0.585-0.75C51.686,21.599,51.951,21.932,51.953,22.345z"/>
		</g>
		<g>
			<g>
				<path fill="#FFFFFF" d="M21.813,16.948c1.854-1.15,0.486-3.209,0.486-3.209S20.041,15.528,21.813,16.948z"/>
				<path fill="#FFFFFF" d="M22.386,18.62c1.38-1.211-0.068-3.128-0.068-3.128S20.466,17.565,22.386,18.62z"/>
				<path fill="#FFFFFF" d="M21.048,15.752c1.608-1.356,0.015-3.129,0.015-3.129S19.156,14.646,21.048,15.752z"/>
				<path fill="#FFFFFF" d="M20.101,16.547c1.866-0.971,0.12-3.174,0.12-3.174S18.395,15.622,20.101,16.547z"/>
				<path fill="#FFFFFF" d="M20.97,17.828c-1.678-1.269,0.411-3.148,0.411-3.148S22.806,17.2,20.97,17.828z"/>
				<path fill="#FFFFFF" d="M19.137,17.958c-1.724-0.804-0.192-3.123-0.192-3.123S20.962,16.747,19.137,17.958z"/>
				<path fill="#FFFFFF" d="M20.169,18.812c1.63-1.448-0.067-3.243-0.067-3.243S18.181,17.715,20.169,18.812z"/>
				<path fill="#FFFFFF" d="M21.291,19.499c-1.634-1.325,0.518-3.135,0.518-3.135S23.148,18.931,21.291,19.499z"/>
				<path fill="#FFFFFF" d="M19.331,20.223c1.565-1.405-0.674-3.104-0.674-3.104S17.359,19.733,19.331,20.223z"/>
				<path fill="#FFFFFF" d="M20.153,20.148c-1.556-1.415,0.102-3.128,0.102-3.128S22.085,19.112,20.153,20.148z"/>
				<path fill="#FFFFFF" d="M21.642,20.543c-0.967-1.656,0.944-2.694,0.944-2.694S23.526,20.78,21.642,20.543z"/>
				<path fill="#FFFFFF" d="M19.849,21.588c-1.56-0.996-0.058-3.005-0.058-3.005S21.585,20.595,19.849,21.588z"/>
				<path fill="#FFFFFF" d="M20.605,21.36c-1.465-1.51,0.885-3.051,0.885-3.051S22.517,21.018,20.605,21.36z"/>
				<path fill="#FFFFFF" d="M20.87,50.799c-0.378-15.238,0.64-27.477,0.65-27.629l0.065-0.893c1.101-0.957,0.948-2.467,0.948-2.467
					s-0.882,0.242-1.355,0.845c-0.181-0.446-0.487-0.798-0.487-0.798s-0.589,0.754-0.603,1.459
					c-0.212-0.348-0.455-0.594-0.455-0.594s-0.16,0.287-0.27,0.661l-1.057-0.222c0,0,0.129,0.499,0.727,1.004
					c0.116,0.1-1.123,13.326-0.742,28.697c0.018,0.711,0.608,1.273,1.32,1.257C20.324,52.102,20.888,51.511,20.87,50.799z"/>
				<path fill="#FFFFFF" d="M19.308,21.715c-1.949-0.301-1.419-2.592-1.419-2.592S20.544,19.959,19.308,21.715z"/>
				<path fill="#FFFFFF" d="M20.866,24.358c-1.178-1.772,1.608-2.513,1.608-2.513S22.699,24.167,20.866,24.358z"/>
				<path fill="#FFFFFF" d="M19.748,26.601c1.076-1.807-1.566-2.763-1.566-2.763S17.721,26.719,19.748,26.601z"/>
				<path fill="#FFFFFF" d="M19.244,30.588c-1.889-0.45-0.821-2.814-0.821-2.814S20.563,29.375,19.244,30.588z"/>
				<path fill="#FFFFFF" d="M20.138,33.644c-0.651-1.862,1.618-2.473,1.618-2.473S22.271,33.907,20.138,33.644z"/>
				<path fill="#FFFFFF" d="M19.083,38.082c-2.121-0.044-1.141-2.745-1.141-2.745S19.97,36.474,19.083,38.082z"/>
				<path fill="#FFFFFF" d="M19.968,42.811c2.078-0.32,1.134-2.968,1.134-2.968S18.585,41.323,19.968,42.811z"/>
			</g>
			<g>
				<path fill="#FFFFFF" d="M13.158,18.135c-1.952-1.273,1.063-2.884,1.063-2.884S15.354,16.905,13.158,18.135z"/>
				<path fill="#FFFFFF" d="M13.978,18.795c2.119-1.021,0.243-3.544,0.243-3.544S12.013,17.655,13.978,18.795z"/>
				<path fill="#FFFFFF" d="M14.157,19.988c2.233-0.487,1.03-3.296,1.03-3.296S12.631,18.53,14.157,19.988z"/>
				<path fill="#FFFFFF" d="M13.105,19.426c-2.236-0.479-1.044-3.293-1.044-3.293S14.626,17.961,13.105,19.426z"/>
				<path fill="#FFFFFF" d="M13.684,20.12c1.48-1.753-0.731-3.358-0.731-3.358S11.258,19.521,13.684,20.12z"/>
				<path fill="#FFFFFF" d="M12.572,21.102c-2.249-0.605-1.209-3.586-1.209-3.586S14.278,19.252,12.572,21.102z"/>
				<path fill="#FFFFFF" d="M14.734,21.819c1.839-0.701,1.103-3.469,1.103-3.469S12.781,20.028,14.734,21.819z"/>
				<path fill="#FFFFFF" d="M13.629,21.95c1.854-1.447-0.515-3.516-0.515-3.516S11.467,21.252,13.629,21.95z"/>
				<path fill="#FFFFFF" d="M12.895,22.952c-2.285,0.098-1.837-2.926-1.837-2.926S13.999,21.153,12.895,22.952z"/>
				<path fill="#FFFFFF" d="M14.319,23.163c-1.514-1.715,1.12-3.267,1.12-3.267S16.412,22.892,14.319,23.163z"/>
				<path fill="#FFFFFF" d="M13.548,24.094c-1.95-1.272-0.036-3.783-0.036-3.783S15.744,22.865,13.548,24.094z"/>
				<path fill="#FFFFFF" d="M14.09,31c-1.931,0.197-1.701-2.387-1.701-2.387S14.938,29.42,14.09,31z"/>
				<path fill="#FFFFFF" d="M14.469,36.328c0.825-1.935-1.923-2.528-1.923-2.528S12.475,36.717,14.469,36.328z"/>
				<path fill="#FFFFFF" d="M16.794,45.714c-1.013-1.693,1.089-2.747,1.089-2.747S18.936,45.544,16.794,45.714z"/>
				<path fill="#FFFFFF" d="M13.696,24.059c0.078-1.879,2.128-2.173,2.128-2.173c0.009,0.806-0.23,2.376-0.928,2.966
					c0.449,5.457,1.538,14.904,3.501,23.695c0.146,0.653-0.266,1.302-0.92,1.448c-0.653,0.146-1.302-0.267-1.447-0.921
					c-1.985-8.895-2.998-18.773-3.454-24.316c-0.005-0.051-0.882-0.519-1.134-1.421c-0.096-0.343-0.139-0.847-0.028-1.252
					C11.414,22.085,13.442,22.612,13.696,24.059z"/>
				<path fill="#FFFFFF" d="M15.146,32.75c-1.48-0.928,0.618-2.547,0.618-2.547S16.551,32.526,15.146,32.75z"/>
				<path fill="#FFFFFF" d="M13.427,26.942c0.884-1.559-1.501-2.015-1.501-2.015S11.875,26.89,13.427,26.942z"/>
				<path fill="#FFFFFF" d="M15.418,38.295c-1.558-0.271-0.004-2.768-0.004-2.768S16.851,37.557,15.418,38.295z"/>
				<path fill="#FFFFFF" d="M15.013,28.643c-1.776-1.025,0.312-2.857,0.312-2.857S16.512,27.692,15.013,28.643z"/>
				<path fill="#FFFFFF" d="M15.582,43.097c0.95-1.452-1.711-2.351-1.711-2.351S14.186,43.362,15.582,43.097z"/>
			</g>
		</g>
	</g>
</g>
</svg>
