<?xml version="1.0" encoding="utf-8"?>
<!-- Generator: Adobe Illustrator 13.0.0, SVG Export Plug-In . SVG Version: 6.00 Build 14948)  -->
<!DOCTYPE svg PUBLIC "-//W3C//DTD SVG 1.1//EN" "http://www.w3.org/Graphics/SVG/1.1/DTD/svg11.dtd">
<svg version="1.1" id="レイヤー_1" xmlns="http://www.w3.org/2000/svg" xmlns:xlink="http://www.w3.org/1999/xlink" x="0px"
	 y="0px" width="100px" height="100px" viewBox="0 0 100 100" enable-background="new 0 0 100 100" xml:space="preserve">
<g>
	<defs>
		<circle id="SVGID_1_" cx="50" cy="50" r="50"/>
	</defs>
	<use xlink:href="#SVGID_1_"  overflow="visible" fill="#791F52"/>
	<clipPath id="SVGID_2_">
		<use xlink:href="#SVGID_1_"  overflow="visible"/>
	</clipPath>
	<g clip-path="url(#SVGID_2_)">
		<g>
			<g>
				<g>
					<defs>
						<path id="SVGID_3_" d="M71.582,18.152c0.581,0.518,0.855,1.158,0.614,1.43l-7.886,8.85c-0.24,0.271-0.908,0.07-1.488-0.447
							l0,0c-0.582-0.518-0.857-1.158-0.616-1.429l7.886-8.849C70.333,17.436,71.001,17.635,71.582,18.152L71.582,18.152z"/>
					</defs>
					<use xlink:href="#SVGID_3_"  overflow="visible" fill="#791F52"/>
					<clipPath id="SVGID_4_">
						<use xlink:href="#SVGID_3_"  overflow="visible"/>
					</clipPath>
					
						<rect x="64.445" y="21.03" transform="matrix(-0.0633 -0.998 0.998 -0.0633 44.5208 91.6638)" clip-path="url(#SVGID_4_)" fill="#FFFFFF" width="1.666" height="7.817"/>
					
						<rect x="68.367" y="16.628" transform="matrix(-0.0627 -0.998 0.998 -0.0627 53.0433 90.8884)" clip-path="url(#SVGID_4_)" fill="#FFFFFF" width="1.666" height="7.817"/>
					<use xlink:href="#SVGID_3_"  overflow="visible" fill="none" stroke="#FFFFFF" stroke-width="0.25"/>
				</g>
				<g>
					<defs>
						<path id="SVGID_5_" d="M76.398,24.043c0.197,0.752,0.072,1.438-0.278,1.53l-11.461,3.02c-0.352,0.093-0.797-0.442-0.995-1.195
							l0,0c-0.198-0.753-0.074-1.438,0.277-1.53l11.462-3.02C75.753,22.754,76.199,23.289,76.398,24.043L76.398,24.043z"/>
					</defs>
					<use xlink:href="#SVGID_5_"  overflow="visible" fill="#791F52"/>
					<clipPath id="SVGID_6_">
						<use xlink:href="#SVGID_5_"  overflow="visible"/>
					</clipPath>
					
						<rect x="66.563" y="22.308" transform="matrix(0.4994 -0.8664 0.8664 0.4994 11.0246 71.512)" clip-path="url(#SVGID_6_)" fill="#FFFFFF" width="1.666" height="7.816"/>
					
						<rect x="72.263" y="20.803" transform="matrix(0.4987 -0.8668 0.8668 0.4987 15.2209 75.7444)" clip-path="url(#SVGID_6_)" fill="#FFFFFF" width="1.666" height="7.819"/>
					<use xlink:href="#SVGID_5_"  overflow="visible" fill="none" stroke="#FFFFFF" stroke-width="0.25"/>
				</g>
			</g>
			<g>
				<path fill="#FFFFFF" d="M46.03,80.683c0.063,0.022,5.332,1.3,6.657,5.923c0.027,0.09,0.878,0,0.878,0s0.354-3.549,9.082-6.934
					c5.773-2.235,10.975-7.398,13.194-12.107c2.221-4.71,3.418-9.271,2.961-15.278c-0.717-9.399-2.421-10.685-4.911-15.798
					c-3.134-6.443-8.821-11.117-12.654-12.936c-3.837-1.813-7.238-2.187-12.958-0.905c0,0-3.936,0.991-7.564,4.069
					c-4.179,3.547-4.84,5.452-6.254,7.404c-1.41,1.952-4.686,7.267-5.991,14.732c-1.045,5.982-0.135,10.095,0,10.768
					c0.135,0.672,0.811,3.982,1.552,5.531C30.762,66.699,33.497,76.064,46.03,80.683z"/>
				<path fill="#791F52" d="M67.194,29.305c5.733,5.747,7.438,11.063,8.484,14.279c0.999,3.068,2.278,6.229,1.778,13.568
					c-0.556,8.116-5.091,13.777-7.108,16.019c-2.019,2.245-5.613,4.542-11.896,7.179c-4.208,1.768-5.229,4.409-5.313,4.227
					c-1.389-3.008-5.759-4.677-7.582-5.391c-3.239-1.268-12.369-6.273-15.001-16.32c-1.963-7.496-1.12-12.906-0.896-14.025
					c0.224-1.125,2.025-9.045,7.67-17.144c2.382-3.42,6.984-6.087,9.229-7.177c2.334-1.134,6.521-1.959,11.206-0.918
					C61.786,24.499,66.457,28.564,67.194,29.305z"/>
				<path fill="#FFFFFF" d="M32.596,37.676c0,0-0.487-2.667-3.034-4.203c-2.574-1.558-4.988-0.736-6.586-0.572
					c-1.597,0.17-4.261,1.656-5.185,2.075c-0.927,0.422-3.438,1.825-3.86,2.159c-0.422,0.336-0.575,0.63,0.261,1.272
					c0.851,0.653,1.75,1.535,3.11,1.887c1.063,0.272,2.647,0.433,2.369,0.224c-0.069-0.049-1.144,1.375-1.77,2.244
					c-0.691,0.959-0.98,1.758-0.896,2.346c0.084,0.591,3.342,0.435,4.316,0.299c1.537-0.213,2.887-0.971,3.491-1.266
					c0.018-0.009,0.104,2.182,0.478,3.267c0.482,1.392,0.908,1.3,2.048,1.026c0.915-0.217,1.636-1.261,1.973-1.768
					C29.646,46.162,32.596,37.676,32.596,37.676z"/>
				<path fill="#791F52" d="M27.236,34.05c0,0-2.087-0.839-5.426,0.474c-3.065,1.202-4.582,2.139-5.188,2.474
					c-0.605,0.337-1.448,0.554-0.799,1.093c0.438,0.366,2.063,1.535,3.698,1.344c1.881-0.219,2.18-0.064,2.249,0.406
					c0.067,0.471-0.426,0.865-1.234,1.67c-0.807,0.811-1.054,1.27-1.514,1.779c-0.446,0.49-0.229,0.874-0.229,0.874
					s2.236,0.224,3.757-0.313c2.309-0.821,2.142-1.1,2.529-1.376c0.335-0.241,0.788-0.146,0.922,0.461
					c0.134,0.603,0.209,2.41,0.277,2.949c0.066,0.536,0.177,1.208,0.49,1.25c0.39,0.049,2.373-1.486,2.508-2.115
					c0.217-1.004,2.154-6.121,2.154-6.121s-0.096-1.982-1.055-3.039C29.558,34.963,28.513,34.114,27.236,34.05z"/>
				<path fill="#FFFFFF" d="M77.338,46.666c0.337,0.507,1.061,1.551,1.974,1.768c1.139,0.273,1.565,0.365,2.048-1.026
					c0.377-1.085,0.46-3.275,0.477-3.267c0.605,0.295,1.957,1.053,3.492,1.266c0.978,0.136,4.233,0.292,4.316-0.299
					c0.085-0.588-0.207-1.387-0.896-2.346c-0.624-0.869-1.702-2.293-1.769-2.244c-0.277,0.209,1.306,0.049,2.369-0.224
					c1.362-0.352,2.262-1.233,3.109-1.887c0.834-0.643,0.684-0.937,0.261-1.272c-0.419-0.334-2.934-1.737-3.856-2.159
					c-0.925-0.419-3.59-1.905-5.189-2.075c-1.595-0.164-4.008-0.985-6.586,0.572c-2.544,1.536-3.03,4.203-3.03,4.203
					S77.004,46.162,77.338,46.666z"/>
				<path fill="#791F52" d="M76.273,35.859c-0.956,1.057-1.053,3.039-1.053,3.039s2.276,4.379,2.549,6.246
					c0.093,0.639,1.459,2.096,2.115,1.99c0.311-0.049,0.418-0.714,0.485-1.25c0.066-0.539,0.147-2.347,0.282-2.949
					c0.133-0.606,0.584-0.702,0.919-0.461c0.388,0.276,0.223,0.555,2.529,1.376c1.518,0.536,3.757,0.313,3.757,0.313
					s0.219-0.384-0.228-0.874c-0.46-0.51-0.71-0.969-1.517-1.779c-0.807-0.805-1.299-1.199-1.231-1.67s0.368-0.625,2.249-0.406
					c1.635,0.191,3.258-0.978,3.699-1.344c0.646-0.539-0.194-0.756-0.802-1.093c-0.604-0.335-2.124-1.271-5.188-2.474
					c-3.337-1.313-5.425-0.474-5.425-0.474C78.135,34.114,77.091,34.963,76.273,35.859z"/>
				<path fill="#FFFFFF" d="M53.313,50.593c0,0-4.444-0.535-8.691,3.218c-3.275,2.891-4.837,6.093-5.346,10.623
					c-0.384,3.414,0.474,7.51,2.698,10.424c1.781,2.332,3.164,4.658,7.757,5.756c4.422,1.06,8.964,0.326,12.337-2.934
					c2.825-2.729,5.149-6.693,5.104-12.696c-0.04-5.667-3.382-9.591-5.879-11.657C58.738,51.208,55.401,50.593,53.313,50.593z"/>
				<circle fill="#FFFFFF" cx="44.487" cy="35.463" r="7.968"/>
				<circle fill="#FFFFFF" cx="62.063" cy="35.463" r="7.968"/>
				<circle fill="#791F52" cx="44.487" cy="35.462" r="3.195"/>
				<circle fill="#791F52" cx="62.063" cy="35.462" r="3.195"/>
				<path fill="#791F52" d="M52.67,35.285L42.486,45.469c0,0-0.862,0.408-0.139,1.285c1.019,1.232,10.095,10.275,10.095,10.275
					s0.87,1.056,1.469,0.23c0.57-0.79,10.463-10.322,10.463-10.322s0.875-0.598-0.089-1.422
					c-0.888-0.76-10.054-10.276-10.054-10.276S53.451,34.275,52.67,35.285z"/>
				<path fill="#FFFFFF" d="M53.13,36.203l-9.638,9.539c0,0-0.503,0.23-0.043,0.688c0.457,0.459,9.498,9.588,9.498,9.588
					s0.231,0.461,0.688,0c0.459-0.459,9.642-9.494,9.642-9.494s0.274-0.276-0.138-0.643c-0.56-0.495-9.455-9.634-9.455-9.634
					S53.362,35.834,53.13,36.203z"/>
				<path fill="#791F52" d="M52.902,39.505l-8.58,6.376c0,0-0.321,0.276,0,0.504c0.32,0.23,8.442,7.982,8.442,7.982
					s0.575,0.621,0.963,0.095c0.036-0.05,8.491-7.755,8.491-7.755s0.821-0.355,0.095-0.644c-0.027-0.006-8.679-6.559-8.679-6.559
					S53.269,39.228,52.902,39.505z"/>
				<path fill="#FFFFFF" d="M39.17,76.768v6.367c0,0-2.447,1.747-3.339,3.991c-1.048,2.637-0.618,2.787-0.618,5.057
					c0,0.069-0.896,0.241-1.238,1.377c-0.347,1.137-0.035,2.271,0.03,2.515c0.072,0.241,0.691,1.41,1.758,1.41
					c0.896,0,15.868,0,15.868,0s1.256-0.616,1.338-1.446c0.095-0.9,0-2.271,0-2.271s-0.196-1.274-1.204-1.49
					c-0.047-0.012,0.812-3.319-1.102-6.22c-1.161-1.763-1.754-1.96-2.131-2.41c-0.383-0.446-0.551-0.79-0.587-1.308
					c-0.031-0.518,0-1.374,0-1.374L39.17,76.768z"/>
				<path fill="#791F52" d="M40.444,77.972l-0.035,3.96c0,0,2.802-2.277,6.506-0.363l0.066-0.571c0,0-1.591-0.46-3.268-1.273
					C41.686,78.748,40.891,78.279,40.444,77.972z"/>
				<path fill="#791F52" d="M38.896,92.114h9.187c0,0-1.687-2.064-4.645-2.03C40.649,90.118,39.308,91.599,38.896,92.114z"/>
				<path fill="#791F52" d="M50.033,87.253c0,0,0.848,1.299,0.62,4.863c-0.002,0.022-1.031,0.022-1.031,0.022
					s-0.865-1.544-1.837-1.79c-0.277-0.066-0.319-0.365,0-0.479c0.321-0.116,0.62-0.439,0.666-0.803
					c0.042-0.367-0.024-0.783,0.181-0.873C48.841,88.103,49.646,87.989,50.033,87.253z"/>
				<path fill="#791F52" d="M38.356,88.194c0.207,0.09,0.138,0.506,0.183,0.873c0.05,0.363,0.346,0.687,0.667,0.803
					c0.321,0.113,0.274,0.412,0,0.479c-0.976,0.246-1.836,1.79-1.836,1.79s-1.03,0-1.033-0.022c-0.229-3.564,0.62-4.863,0.62-4.863
					C37.348,87.989,38.151,88.103,38.356,88.194z"/>
				<path fill="#791F52" d="M43.555,88.806c0.727,0,1.909,0.229,1.909,0.229c-0.386-1.07-1.944-0.932-1.944-0.932
					c-0.991,0-1.447,0.342-1.814,0.939C41.705,89.042,42.62,88.806,43.555,88.806z"/>
				<path fill="#791F52" d="M47.513,88.399c-0.331-0.613-1.566-2.548-4.133-2.592c-2.197-0.035-3.472,1.871-3.854,2.578
					c0,0-0.21,0.326,0.076,0.522c0.16,0.107,0.253,0.177,0.4,0.241c0,0,0.215,0.188,0.369-0.064
					c0.318-0.521,1.341-2.104,3.009-2.176c1.901-0.082,2.895,1.486,3.204,2.018c0,0-0.024,0.182,0.272,0.086l0.57-0.33
					c0,0,0.179,0.033,0.086-0.332"/>
				<path fill="#791F52" d="M43.197,83.4c0,0-3.119-0.083-5.049,2.661c-0.492,0.696,0.507,1.125,0.873,0.781
					c0.555-0.522,2.202-2.254,4.242-2.228c2.044,0.022,3.636,0.8,4.545,2.042c0.288,0.395,1.466,0.121,1.172-0.527
					C48.623,85.356,46.846,83.375,43.197,83.4z"/>
				<path fill="#791F52" d="M41.408,82.235c0,0,0.734-0.614,2.347-0.636c1.335-0.021,1.731,0.25,2.278,0.613l-0.684,0.252
					c0,0-0.754-0.276-1.671-0.276c-0.898,0-1.422,0.139-1.652,0.321L41.408,82.235z"/>
				<path fill="#FFFFFF" d="M35.706,93.319H51.02c0,0,0.722,0.172,0.722,0.653s0,1.62,0,1.62s0.104,0.584-0.548,0.617
					c-0.655,0.034-15.385,0-15.385,0s-0.689-0.102-0.724-0.617c-0.035-0.518,0-1.689,0-1.689S35.085,93.286,35.706,93.319z"/>
				<path fill="#FFFFFF" d="M58.451,80.966c0,0,0.033,0.856,0,1.374s-0.21,0.861-0.587,1.308c-0.38,0.45-0.968,0.647-2.133,2.41
					c-1.914,2.9-1.055,6.208-1.103,6.22c-1.008,0.216-1.207,1.49-1.207,1.49s-0.092,1.37,0,2.271
					c0.087,0.83,1.345,1.446,1.345,1.446s6.323,0,10.997,0c0,0,2.008-0.669,3.841-1.467c1.554-0.676,2.966-1.357,2.962-1.381
					c-0.059-0.293-0.047-0.758-0.144-1.077c-0.342-1.136-1.239-1.308-1.239-1.377c0-2.27,0.428-2.42-0.616-5.057
					c-0.892-2.244-3.343-3.991-3.343-3.991v-6.367L58.451,80.966z"/>
				<path fill="#791F52" d="M62.684,79.724c-1.678,0.813-3.269,1.273-3.269,1.273l0.069,0.571c3.701-1.914,6.505,0.363,6.505,0.363
					l-0.035-3.96C65.507,78.279,64.712,78.748,62.684,79.724z"/>
				<path fill="#791F52" d="M62.959,90.084c-2.958-0.034-4.648,2.03-4.648,2.03h9.191C67.087,91.599,65.748,90.118,62.959,90.084z"
					/>
				<path fill="#791F52" d="M57.762,88.194c0.204,0.09,0.138,0.506,0.183,0.873c0.045,0.363,0.344,0.687,0.668,0.803
					c0.32,0.113,0.273,0.412,0,0.479c-0.976,0.246-1.842,1.79-1.842,1.79s-1.03,0-1.03-0.022c-0.23-3.564,0.62-4.863,0.62-4.863
					C56.749,87.989,57.556,88.103,57.762,88.194z"/>
				<path fill="#791F52" d="M69.438,87.253c0,0,0.848,1.299,0.62,4.863c-0.002,0.022-1.033,0.022-1.033,0.022
					s-0.86-1.544-1.836-1.79c-0.276-0.066-0.32-0.365,0-0.479c0.321-0.116,0.62-0.439,0.665-0.803
					c0.047-0.367-0.022-0.783,0.184-0.873C68.244,88.103,69.049,87.989,69.438,87.253z"/>
				<path fill="#791F52" d="M64.691,89.042c-0.367-0.598-0.823-0.939-1.812-0.939c0,0-1.561-0.139-1.95,0.932
					c0,0,1.187-0.229,1.914-0.229C63.776,88.806,64.691,89.042,64.691,89.042z"/>
				<path fill="#791F52" d="M58.881,88.351c-0.088,0.365,0.085,0.332,0.085,0.332l0.575,0.33c0.295,0.096,0.271-0.086,0.271-0.086
					c0.311-0.531,1.301-2.1,3.207-2.018c1.663,0.072,2.69,1.655,3.007,2.176c0.156,0.252,0.37,0.064,0.37,0.064
					c0.145-0.064,0.238-0.134,0.399-0.241c0.285-0.196,0.074-0.522,0.074-0.522c-0.38-0.707-1.653-2.613-3.851-2.578
					c-2.568,0.044-3.802,1.979-4.133,2.592"/>
				<path fill="#791F52" d="M57.418,86.13c-0.298,0.648,0.88,0.922,1.171,0.527c0.909-1.242,2.501-2.02,4.54-2.042
					c2.044-0.026,3.689,1.705,4.249,2.228c0.365,0.344,1.36-0.085,0.87-0.781c-1.933-2.744-5.047-2.661-5.047-2.661
					C59.553,83.375,57.775,85.356,57.418,86.13z"/>
				<path fill="#791F52" d="M64.37,82.51c-0.229-0.183-0.755-0.321-1.651-0.321c-0.918,0-1.673,0.276-1.673,0.276l-0.683-0.252
					c0.544-0.363,0.945-0.634,2.274-0.613c1.616,0.021,2.353,0.636,2.353,0.636L64.37,82.51z"/>
				<path fill="#FFFFFF" d="M71.313,93.903c0,0,0.03,1.172,0,1.689c-0.037,0.516-0.724,0.617-0.724,0.617s-14.733,0.034-15.385,0
					c-0.656-0.033-0.552-0.617-0.552-0.617s0-1.139,0-1.62s0.724-0.653,0.724-0.653h15.316
					C71.313,93.286,71.313,93.903,71.313,93.903z"/>
			</g>
			<g>
				<defs>
					<path id="SVGID_7_" d="M69.437,26.741c0,0.906-0.735,1.642-1.642,1.642H38.242c-0.907,0-1.642-0.735-1.642-1.642l0,0
						c0-0.907,0.734-1.642,1.642-1.642h29.553C68.701,25.1,69.437,25.834,69.437,26.741L69.437,26.741z"/>
				</defs>
				<use xlink:href="#SVGID_7_"  overflow="visible" fill="#791F52"/>
				<clipPath id="SVGID_8_">
					<use xlink:href="#SVGID_7_"  overflow="visible"/>
				</clipPath>
				
					<rect x="40.182" y="21.965" transform="matrix(0.7033 -0.7109 0.7109 0.7033 -6.6414 37.1208)" clip-path="url(#SVGID_8_)" fill="#FFFFFF" width="1.94" height="9.105"/>
				
					<rect x="47.048" y="21.965" transform="matrix(0.7033 -0.7109 0.7109 0.7033 -4.6043 42.0018)" clip-path="url(#SVGID_8_)" fill="#FFFFFF" width="1.94" height="9.105"/>
				
					<rect x="53.765" y="21.965" transform="matrix(0.7033 -0.7109 0.7109 0.7033 -2.6117 46.7762)" clip-path="url(#SVGID_8_)" fill="#FFFFFF" width="1.94" height="9.104"/>
				
					<rect x="60.033" y="21.965" transform="matrix(0.7036 -0.7106 0.7106 0.7036 -0.7608 51.2103)" clip-path="url(#SVGID_8_)" fill="#FFFFFF" width="1.94" height="9.105"/>
				
					<rect x="65.854" y="21.965" transform="matrix(0.7036 -0.7106 0.7106 0.7036 0.9649 55.3474)" clip-path="url(#SVGID_8_)" fill="#FFFFFF" width="1.94" height="9.104"/>
				<use xlink:href="#SVGID_7_"  overflow="visible" fill="none" stroke="#FFFFFF" stroke-width="0.25"/>
			</g>
		</g>
		<g>
			<path fill="#FFFFFF" d="M68.91,8.889c-1.087-5.172-16.575-6.768-34.594-3.562c-4.1,0.729-7.978,1.645-11.51,2.684
				c0,0-4.918,2.86-9.918,8.11c-0.952,0.999-5.641,7.674-5.641,7.674c5.763,2.379,17.694,2.631,31.005,0.263
				C56.271,20.853,69.998,14.061,68.91,8.889z"/>
			<polygon fill="#FFFFFF" points="18.753,17.097 31.505,32.433 14.27,21.413 			"/>
		</g>
		<g>
			<path fill="#791F52" d="M29.661,14.153l-0.709-1.053c-0.054-0.088-0.21-0.45-0.237-0.593c-0.118-0.604-0.017-1.028,0.48-1.125
				c0.344-0.066,1.127,0.112,1.284,0.917c0.136,0.698,0.151,0.78,0.205,0.868c0.085,0.119,0.624,0.492,0.728,0.583
				c0.18,0.162,0.234,0.446,0.244,0.493c0.016,0.083,0.018,0.156,0.021,0.24c0.01,0.429,0.028,0.965,0.086,1.262
				c0.28,1.443,1.14,1.436,1.388,1.388c0.379-0.073,0.423-0.353,0.328-0.837c-0.06-0.309-0.407-1.653-0.461-1.925
				c-0.218-1.124-0.65-3.349,1.787-3.823c1.716-0.333,4.056,0.526,4.659,3.626c0.126,0.651,0.272,1.714-0.326,2.494
				c-0.352,0.462-0.684,0.65-1.003,0.712c-0.568,0.111-0.974-0.205-1.083-0.33c-0.411-0.473-0.459-0.525-0.781-0.855
				c-0.047-0.053-0.11-0.125-0.122-0.186c-0.027-0.141,0.004-0.172,0.606-0.547c0.437-0.281,0.265-1.477,0.208-1.771
				c-0.293-1.504-1.392-2.48-2.267-2.311c-0.497,0.098-0.675,0.513-0.417,1.837c0.108,0.557,0.409,1.727,0.679,2.288
				c0.283,0.57,0.433,0.898,0.524,1.371c0.242,1.242-0.438,2.234-1.869,2.513c-1.882,0.366-3.524-0.948-3.899-2.877
				c-0.083-0.426-0.128-0.847-0.103-1.281l0.053-1.055L29.661,14.153z"/>
			<path fill="#791F52" d="M44.578,7.936c-0.069-0.354,0.007-0.848,0.268-0.898c0.142-0.027,0.231,0.053,0.445,0.27
				c0.195,0.184,0.287,0.214,1.134,0.59c0.67,0.287,1.466,0.845,1.634,1.709c0.093,0.474,0.043,1.293-0.632,1.424
				c-0.284,0.056-0.551-0.052-0.729-0.215c-0.975-0.842-1.093-0.94-1.604-1.111c-0.512-0.17-1.174-0.288-1.505-0.224
				c-0.142,0.028-0.236,0.108-0.207,0.261c0.027,0.143,0.063,0.197,0.627,0.383c0.575,0.183,1.576,0.65,2.116,1.662
				c0.29,0.546,0.376,0.923,0.498,1.488c0.025,0.131,0.102,0.14,0.265,0.158c1.022,0.145,2.316,0.802,2.503,1.761
				c0.113,0.578-0.172,1.199-0.775,1.316c-0.449,0.087-0.683-0.101-0.958-0.317c-0.177-0.149-0.629-0.455-0.712-0.438
				c-0.059,0.012-0.071,0.075-0.071,0.137c-0.006,0.284-0.064,0.614-0.314,0.908c-0.436,0.54-1.29,0.755-1.692,0.833
				c-0.568,0.11-2.3,0.361-2.894-0.923c-0.146-0.315-0.178-0.347-0.367-0.629c-0.055-0.088-0.112-0.199-0.136-0.317
				c-0.03-0.154-0.148-1.077,1.146-1.869c0.506-0.307,0.659-0.337,1.196-0.478c0.096-0.019,0.211-0.054,0.165-0.29
				c-0.05-0.26-0.25-1.032-0.394-1.262c-0.074-0.133-0.168-0.238-0.531-0.523c-0.491-0.384-0.785-0.695-0.885-1.203
				c-0.154-0.793,0.342-1.527,0.957-1.647c0.414-0.081,0.525-0.078,1.411-0.005c0.076,0.011,0.1,0.006,0.218-0.018
				C44.739,8.385,44.595,8.02,44.578,7.936z M43.843,15.079c-0.047,0.01-0.482,0.105-0.819,0.271
				c-0.156,0.08-0.254,0.147-0.226,0.289c0.053,0.272,0.447,0.6,0.91,0.51c0.674-0.131,0.558-0.918,0.551-0.953
				c-0.01-0.048-0.035-0.117-0.052-0.137C44.122,15.062,43.973,15.055,43.843,15.079z"/>
			<path fill="#791F52" d="M55.104,7.425c0.043,0.225,0.057,4.335,0.037,4.548c-0.023,0.325-0.098,0.572-0.465,0.643
				c-0.414,0.081-0.595-0.215-0.753-0.589c-0.225-0.522-1.548-3.851-1.589-4.063c-0.145-0.745,0.261-1.5,1.113-1.666
				C54.3,6.132,54.959,6.68,55.104,7.425z M56.289,13.899c0.12,0.615-0.36,1.236-1.094,1.38c-0.746,0.145-1.415-0.267-1.532-0.869
				c-0.12-0.615,0.36-1.238,1.095-1.381C55.468,12.892,56.165,13.26,56.289,13.899z"/>
			<path fill="#791F52" d="M58.832,6.699c0.044,0.225,0.058,4.336,0.037,4.549c-0.022,0.324-0.098,0.571-0.464,0.643
				c-0.414,0.08-0.595-0.216-0.754-0.59c-0.224-0.521-1.547-3.85-1.588-4.063c-0.146-0.745,0.261-1.5,1.113-1.666
				C58.028,5.406,58.688,5.954,58.832,6.699z M60.018,13.174c0.119,0.615-0.36,1.237-1.095,1.38
				c-0.745,0.146-1.415-0.267-1.532-0.868c-0.119-0.615,0.361-1.238,1.095-1.381C59.195,12.166,59.894,12.535,60.018,13.174z"/>
			<path fill="#791F52" d="M16.883,14.895l0.011-0.456c-0.227-0.214-0.36-0.335-0.404-0.56c-0.046-0.236,0.14-0.481,0.412-0.535
				c0.426-0.082,1.058,0.199,1.346,0.672c0.407-0.178,1.011-0.676,1.095-0.754c-0.233-0.188-0.412-0.35-0.477-0.681
				c-0.087-0.45,0.364-1.029,1.358-1.223c1.029-0.2,1.433,0.04,1.739,0.228c0.405-0.189,0.915-0.411,1.933-0.609
				c1.396-0.271,2.313,0.337,2.824,0.949c0.019,0.033,0.474,0.73,0.509,0.846c0.084,0.181,0.13,0.356,0.144,0.428
				c0.058,0.295-0.153,0.914-0.189,0.981c-0.24,0.343-0.524,0.52-0.762,0.628c-0.055,0.034-0.302,0.155-0.36,0.167
				c0.123,0.063,0.62,0.348,0.679,0.397c1.298,0.987,1.44,1.721,1.555,2.312c0.028,0.144,0.037,0.253,0.037,0.313l-0.003,0.812
				c0.004,0.27-0.126,1.056-0.296,1.384c-0.15,0.3-0.169,0.328-0.281,0.571c-0.286,0.484-1.006,0.637-1.23,0.681
				c-0.462,0.09-1.237,0.143-1.854,0.005c-0.143-0.034-0.755-0.283-0.805-0.285c-0.023,0.004-0.016,0.174-0.022,0.199
				c-0.066,0.48-0.272,0.681-0.468,0.816c-0.228,0.155-0.541,0.313-0.789,0.361c-0.095,0.02-0.612,0.01-0.697,0.014
				c-0.178-0.026-0.365-0.174-0.409-0.4c-0.019-0.094-0.015-0.131,0.028-0.483c0-0.123-0.002-0.135-0.009-0.171
				c-0.014-0.01-0.057,0.024-0.055,0.036c-0.206,0.199-0.77,0.333-0.794,0.338c-0.556,0.108-1.174-0.226-1.341-0.39
				c-0.261-0.269-0.291-0.299-0.341-0.363c-0.027-0.081-0.168-0.422-0.182-0.493c-0.012-0.06-0.063-0.319-0.067-0.539
				c-0.005-0.023-0.002-0.135-0.005-0.147c-0.007-0.035-0.389-0.047-0.465-0.057c-0.686-0.112-1-0.529-1.053-0.803
				c-0.046-0.236,0.125-0.306,0.374-0.415c0.113-0.048,1.137-0.849,1.366-0.991c0.076-0.051,0.069-0.086,0.171-0.449l0.166-0.598
				c-0.014-0.07-0.04-0.079-0.229-0.227c-0.012,0.002-0.202-0.156-0.239-0.346c-0.034-0.178,0.073-0.444,0.119-0.589
				c-0.078-0.021-0.29-0.041-0.338-0.032c-0.023,0.005-0.073,0.32-0.022,0.582c0.023,0.117,0.256,0.871,0.268,0.93
				c0.058,0.296-0.275,0.729-0.56,0.785c-0.048,0.009-0.469,0.053-0.694-0.099c-0.448-0.282-0.531-0.708-0.604-1.087
				c-0.072-0.367-0.082-0.671-0.085-0.879L16.883,14.895z M20.081,15.23c-0.034,0.019-0.034,0.019-0.044,0.033l0.005,0.023
				c0.057,0.038,0.335,0.205,0.392,0.242c0.132,0.11,0.376,0.357,0.425,0.545c0.045,0.102,0.111,0.322,0.183,0.309
				c0.083-0.017,0.443-0.247,0.526-0.263c0.163-0.043,0.175-0.046,0.272-0.114c-0.004-0.085,0.005-0.48,0.003-0.553
				c-0.073-0.06-0.375-0.284-0.424-0.348c-0.063-0.074-0.104-0.152-0.236-0.457L20.081,15.23z M20.922,19.685
				c0.106-0.082,0.119-0.084,0.317-0.198c0.307-0.255,0.338-0.286,0.511-0.405c0.055-0.034,0.107-0.585,0.073-0.825
				c-0.1,0.057-0.131,0.088-0.39,0.272c-0.335,0.237-0.495,0.293-0.515,0.384c0,0.061-0.05,0.562-0.045,0.781L20.922,19.685z
				 M24.659,13.137l0.114-0.23c-0.11-0.127-0.127-0.146-0.15-0.143c-0.013,0.002-0.403,0.2-0.524,0.273l-0.689,0.43
				c-0.055,0.033-0.579,0.308-0.69,0.367c-0.078,0.039-0.166,0.093-0.249,0.17c0.27,0.059,0.711,0.182,1.166,0.818
				c0.035,0.055,0.174,0.321,0.209,0.314s0.563-0.195,0.622-0.207c-0.337-0.217-0.577-0.379-0.813-0.713L24.659,13.137z
				 M25.434,19.457l-0.836,0.249c-0.208,0.065-0.642,0.298-0.643,0.358c-0.005,0.037,0.013,0.256,0.008,0.294
				c0.343-0.007,0.868-0.083,0.868-0.083c0.178-0.035,0.714-0.373,0.738-0.881L25.434,19.457z M25.826,18.129
				c0.072-0.701,0.086-1.012,0.04-1.248c-0.012-0.06-0.1-0.447-0.479-0.373c-0.343,0.066-0.454,0.125-1.301,0.572
				c-0.04,0.045-0.035,0.068-0.051,0.304l-0.028,0.362l0.019,0.033c0.057-0.023,0.434-0.109,0.48-0.119
				c0.592-0.115,1.065,0.174,1.271,0.478L25.826,18.129z"/>
		</g>
	</g>
</g>
</svg>
