<?xml version="1.0" encoding="utf-8"?>
<!-- Generator: Adobe Illustrator 13.0.0, SVG Export Plug-In . SVG Version: 6.00 Build 14948)  -->
<!DOCTYPE svg PUBLIC "-//W3C//DTD SVG 1.1//EN" "http://www.w3.org/Graphics/SVG/1.1/DTD/svg11.dtd">
<svg version="1.1" id="レイヤー_1" xmlns="http://www.w3.org/2000/svg" xmlns:xlink="http://www.w3.org/1999/xlink" x="0px"
	 y="0px" width="100px" height="100px" viewBox="0 0 100 100" enable-background="new 0 0 100 100" xml:space="preserve">
<g>
	<defs>
		<circle id="SVGID_1_" cx="50" cy="50" r="50"/>
	</defs>
	<use xlink:href="#SVGID_1_"  overflow="visible" fill="#791F52"/>
	<clipPath id="SVGID_2_">
		<use xlink:href="#SVGID_1_"  overflow="visible"/>
	</clipPath>
	<g clip-path="url(#SVGID_2_)">
		<path fill="#FFFFFF" d="M45.298,76.152c0.063,0.021,5.419,1.321,6.767,6.021c0.027,0.091,0.891,0,0.891,0s0.361-3.608,9.234-7.048
			c5.869-2.273,11.154-7.521,13.412-12.309c2.256-4.787,3.475-9.424,3.01-15.531c-0.729-9.555-2.461-10.861-4.992-16.059
			c-3.188-6.55-8.967-11.301-12.863-13.149c-3.902-1.845-7.357-2.223-13.172-0.921c0,0-4.001,1.007-7.69,4.137
			c-4.248,3.605-4.92,5.543-6.357,7.527c-1.434,1.984-4.763,7.387-6.089,14.975c-1.064,6.083-0.139,10.263,0,10.947
			c0.136,0.684,0.823,4.049,1.576,5.623C29.776,61.937,32.557,71.457,45.298,76.152z"/>
		<path fill="#791F52" d="M66.811,23.924c5.828,5.842,7.561,11.246,8.625,14.515c1.016,3.12,2.316,6.332,1.807,13.794
			c-0.564,8.25-5.174,14.006-7.225,16.283c-2.053,2.281-5.707,4.617-12.092,7.299c-4.277,1.795-5.316,4.48-5.402,4.295
			c-1.412-3.057-5.854-4.754-7.708-5.479c-3.293-1.288-12.573-6.378-15.249-16.59c-1.996-7.62-1.139-13.12-0.912-14.259
			c0.228-1.143,2.06-9.193,7.798-17.426c2.422-3.477,7.101-6.188,9.382-7.297c2.372-1.152,6.628-1.99,11.392-0.932
			C61.313,19.039,66.063,23.171,66.811,23.924z"/>
		<path fill="#FFFFFF" d="M52.7,45.564c0,0-4.517-0.545-8.835,3.27c-3.329,2.939-4.917,6.194-5.434,10.801
			c-0.391,3.47,0.48,7.633,2.744,10.596c1.81,2.369,3.216,4.734,7.883,5.852c4.496,1.076,9.113,0.33,12.542-2.982
			c2.871-2.774,5.234-6.805,5.188-12.907c-0.039-5.761-3.438-9.75-5.975-11.851C58.215,46.189,54.823,45.564,52.7,45.564z"/>
		<circle fill="#FFFFFF" cx="43.729" cy="30.184" r="8.1"/>
		<circle fill="#FFFFFF" cx="61.594" cy="30.184" r="8.1"/>
		<circle fill="#791F52" cx="43.729" cy="30.183" r="3.248"/>
		<circle fill="#791F52" cx="61.594" cy="30.183" r="3.248"/>
		<path fill="#791F52" d="M52.047,30.004L41.694,40.355c0,0-0.876,0.414-0.141,1.306c1.036,1.255,10.261,10.446,10.261,10.446
			s0.885,1.072,1.492,0.233c0.582-0.803,10.637-10.491,10.637-10.491s0.891-0.607-0.09-1.447
			c-0.902-0.771-10.219-10.445-10.219-10.445S52.84,28.977,52.047,30.004z"/>
		<path fill="#FFFFFF" d="M52.514,30.936l-9.797,9.698c0,0-0.511,0.233-0.043,0.698c0.465,0.467,9.655,9.748,9.655,9.748
			s0.236,0.467,0.697,0c0.469-0.467,9.803-9.652,9.803-9.652s0.279-0.281-0.141-0.653c-0.568-0.503-9.611-9.793-9.611-9.793
			S52.75,30.563,52.514,30.936z"/>
		<path fill="#791F52" d="M52.284,34.293l-8.723,6.481c0,0-0.327,0.281,0,0.513c0.326,0.233,8.583,8.114,8.583,8.114
			s0.584,0.63,0.979,0.095c0.037-0.049,8.633-7.883,8.633-7.883s0.834-0.36,0.094-0.652c-0.027-0.008-8.822-6.668-8.822-6.668
			S52.655,34.012,52.284,34.293z"/>
		<g>
			<defs>
				<path id="SVGID_3_" d="M69.174,23.386c0,0-7.354-2.19-16.881-2.19c-9.526,0-16.308,2.5-16.308,2.5
					c0-9.389,6.461-16.869,15.988-16.869C61.499,6.826,69.174,13.997,69.174,23.386z"/>
			</defs>
			<use xlink:href="#SVGID_3_"  overflow="visible" fill="#791F52"/>
			<clipPath id="SVGID_4_">
				<use xlink:href="#SVGID_3_"  overflow="visible"/>
			</clipPath>
			<rect x="34.105" y="16.053" clip-path="url(#SVGID_4_)" fill="#FFFFFF" width="37.333" height="2.525"/>
			<use xlink:href="#SVGID_3_"  overflow="visible" fill="none" stroke="#FFFFFF"/>
		</g>
		<g>
			<path fill="#FFFFFF" d="M29.038,47.555c0,0,1.281-2.574,0.098-5.498c-1.202-2.961-3.774-3.797-5.234-4.669
				c-1.467-0.872-4.678-1.304-5.729-1.535c-1.053-0.229-4.082-0.634-4.652-0.615c-0.569,0.017-0.885,0.169-0.586,1.245
				c0.21,0.749,0.37,1.604,0.751,2.441c0.175,0.387,0.397,0.771,0.694,1.14c0.729,0.905,1.973,2.05,1.871,1.695
				c-0.026-0.084-1.846,0.44-2.929,0.782c-1.196,0.379-1.952,0.871-2.254,1.424c-0.305,0.555,2.563,2.491,3.479,2.996
				c1.439,0.797,3.07,1.011,3.771,1.145c0.021,0.004-1.301,1.918-1.669,3.079c-0.475,1.489-0.055,1.683,1.089,2.173
				c0.912,0.395,2.177-0.073,2.799-0.248C26.235,51.516,29.038,47.555,29.038,47.555z"/>
			<path fill="#791F52" d="M26.789,41.068c0,0-1.241-2.039-4.912-3.046c-3.366-0.924-5.254-1.094-5.979-1.194
				c-0.731-0.1-1.583-0.449-1.377,0.421c0.145,0.593,0.777,2.616,2.291,3.491c1.736,1.009,1.896,1.332,1.652,1.774
				c-0.242,0.442-0.91,0.467-2.106,0.638c-1.201,0.176-1.708,0.407-2.42,0.547c-0.692,0.134-0.751,0.6-0.751,0.6
				s1.763,1.611,3.392,2.122c2.482,0.768,2.519,0.425,3.026,0.438c0.438,0.007,0.76,0.373,0.487,0.975
				c-0.269,0.598-1.351,2.185-1.636,2.686c-0.283,0.498-0.611,1.134-0.38,1.371c0.489,0.506,2.383-0.263,3.062-0.348
				c2.436-0.309,6.135-3.689,6.135-3.689s1.178-1.744,1.037-3.252C28.185,43.321,27.835,41.937,26.789,41.068z"/>
		</g>
		<g>
			<path fill="#FFFFFF" d="M86.985,52.17c0.646-0.021,1.992,0.045,2.744-0.606c0.943-0.812,1.285-1.124,0.385-2.401
				c-0.701-0.995-2.539-2.422-2.52-2.432c0.627-0.34,2.117-1.035,3.25-2.227c0.723-0.759,2.873-3.469,2.416-3.906
				c-0.455-0.436-1.324-0.678-2.578-0.68c-1.137,0.002-3.029,0.049-3.029,0.137c0.01,0.369,0.852-1.097,1.273-2.18
				c0.172-0.44,0.27-0.873,0.318-1.296c0.111-0.915,0.008-1.777-0.02-2.554c-0.039-1.116-0.385-1.168-0.932-1.012
				c-0.551,0.154-3.316,1.452-4.252,1.988c-0.932,0.537-3.863,1.916-5,3.189c-1.129,1.271-3.33,2.844-3.584,6.028
				c-0.248,3.146,1.748,5.214,1.748,5.214S81.071,52.366,86.985,52.17z"/>
			<path fill="#791F52" d="M77.012,46.398c0.318,1.48,1.967,2.787,1.967,2.787s4.547,2.111,6.961,1.672
				c0.674-0.123,2.711,0.039,3.025-0.592c0.148-0.296-0.357-0.803-0.775-1.191c-0.424-0.393-1.934-1.58-2.369-2.068
				c-0.439-0.491-0.244-0.939,0.172-1.078c0.479-0.164,0.617,0.151,2.752-1.328c1.4-0.978,2.596-3.047,2.596-3.047
				s-0.197-0.424-0.896-0.344c-0.721,0.082-1.273,0.013-2.473,0.207c-1.191,0.197-1.836,0.377-2.201,0.026
				c-0.365-0.349-0.311-0.704,1.043-2.188c1.178-1.292,1.174-3.412,1.131-4.021c-0.064-0.892-0.771-0.301-1.438,0.014
				c-0.662,0.313-2.412,1.045-5.344,2.94c-3.195,2.064-3.766,4.384-3.766,4.384C76.661,43.714,76.745,45.14,77.012,46.398z"/>
		</g>
		<g>
			<path fill="#FFFFFF" d="M37.158,71.672v6.473c0,0-2.488,1.775-3.395,4.057c-1.066,2.682-0.629,2.833-0.629,5.142
				c0,0.07-0.91,0.245-1.258,1.399c-0.352,1.154-0.037,2.309,0.031,2.556c0.072,0.245,0.703,1.434,1.787,1.434
				c0.91,0,16.129,0,16.129,0s1.278-0.626,1.362-1.47c0.096-0.916,0-2.309,0-2.309s-0.199-1.295-1.225-1.516
				c-0.049-0.011,0.827-3.374-1.121-6.322c-1.18-1.792-1.781-1.991-2.166-2.449c-0.387-0.454-0.561-0.803-0.596-1.329
				c-0.031-0.526,0-1.397,0-1.397L37.158,71.672z"/>
			<path fill="#791F52" d="M38.453,72.896l-0.037,4.025c0,0,2.85-2.316,6.613-0.369l0.068-0.582c0,0-1.617-0.467-3.322-1.295
				C39.715,73.686,38.906,73.209,38.453,72.896z"/>
			<path fill="#791F52" d="M36.879,87.272h9.34c0,0-1.715-2.098-4.723-2.063C38.662,85.242,37.297,86.748,36.879,87.272z"/>
			<path fill="#791F52" d="M48.201,82.33c0,0,0.861,1.32,0.631,4.945c-0.004,0.021-1.049,0.021-1.049,0.021
				s-0.879-1.568-1.869-1.818c-0.281-0.068-0.324-0.372,0-0.488c0.328-0.117,0.631-0.445,0.68-0.816
				c0.043-0.371-0.025-0.795,0.184-0.887C46.99,83.195,47.807,83.079,48.201,82.33z"/>
			<path fill="#791F52" d="M36.33,83.287c0.211,0.092,0.141,0.516,0.186,0.887c0.051,0.371,0.352,0.699,0.68,0.816
				c0.326,0.116,0.277,0.42,0,0.488c-0.992,0.25-1.867,1.818-1.867,1.818s-1.049,0-1.051-0.021
				c-0.232-3.625,0.631-4.945,0.631-4.945C35.305,83.079,36.121,83.195,36.33,83.287z"/>
			<path fill="#791F52" d="M41.615,83.909c0.738,0,1.941,0.231,1.941,0.231c-0.393-1.086-1.979-0.945-1.979-0.945
				c-1.006,0-1.469,0.346-1.844,0.954C39.734,84.149,40.664,83.909,41.615,83.909z"/>
			<path fill="#791F52" d="M45.639,83.496c-0.336-0.623-1.592-2.59-4.201-2.635c-2.234-0.037-3.529,1.902-3.918,2.621
				c0,0-0.215,0.332,0.076,0.531c0.164,0.109,0.258,0.18,0.408,0.244c0,0,0.219,0.191,0.375-0.064
				c0.324-0.529,1.363-2.139,3.059-2.212c1.932-0.084,2.941,1.511,3.258,2.05c0,0-0.025,0.187,0.275,0.089l0.582-0.335
				c0,0,0.18,0.033,0.086-0.339"/>
			<path fill="#791F52" d="M41.252,78.414c0,0-3.17-0.084-5.133,2.705c-0.5,0.708,0.516,1.144,0.887,0.795
				c0.564-0.531,2.238-2.291,4.314-2.264c2.076,0.022,3.693,0.812,4.619,2.074c0.293,0.402,1.49,0.123,1.191-0.535
				C46.768,80.402,44.959,78.389,41.252,78.414z"/>
			<path fill="#791F52" d="M39.434,77.23c0,0,0.746-0.624,2.385-0.646c1.357-0.021,1.76,0.254,2.316,0.623l-0.695,0.257
				c0,0-0.766-0.281-1.697-0.281c-0.914,0-1.447,0.141-1.682,0.327L39.434,77.23z"/>
			<path fill="#FFFFFF" d="M33.637,88.497h15.566c0,0,0.734,0.175,0.734,0.665c0,0.489,0,1.646,0,1.646s0.105,0.594-0.557,0.628
				c-0.668,0.034-15.641,0-15.641,0s-0.701-0.104-0.734-0.628c-0.037-0.527,0-1.717,0-1.717S33.006,88.463,33.637,88.497z"/>
		</g>
		<g>
			<path fill="#FFFFFF" d="M59.424,75.939c0,0,0.033,0.871,0,1.397c-0.035,0.526-0.213,0.875-0.596,1.329
				c-0.387,0.458-0.984,0.657-2.17,2.449c-1.945,2.948-1.072,6.312-1.119,6.322c-1.025,0.221-1.227,1.516-1.227,1.516
				s-0.094,1.393,0,2.309c0.088,0.844,1.367,1.47,1.367,1.47s15.217,0,16.129,0c1.084,0,1.715-1.188,1.783-1.434
				c0.07-0.247,0.385-1.401,0.035-2.556c-0.348-1.154-1.26-1.329-1.26-1.399c0-2.309,0.436-2.46-0.627-5.142
				c-0.906-2.281-3.396-4.057-3.396-4.057v-6.473L59.424,75.939z"/>
			<path fill="#791F52" d="M63.727,74.676c-1.707,0.828-3.322,1.295-3.322,1.295l0.07,0.582c3.762-1.947,6.613,0.369,6.613,0.369
				l-0.037-4.025C66.598,73.209,65.788,73.686,63.727,74.676z"/>
			<path fill="#FFFFFF" d="M64.008,85.209c-3.008-0.034-4.727,2.063-4.727,2.063h9.344C68.204,86.748,66.842,85.242,64.008,85.209z"
				/>
			<path fill="#791F52" d="M58.723,83.287c0.209,0.092,0.141,0.516,0.186,0.887c0.047,0.371,0.35,0.699,0.68,0.816
				c0.326,0.116,0.277,0.42,0,0.488c-0.992,0.25-1.871,1.818-1.871,1.818s-1.049,0-1.049-0.021
				c-0.234-3.625,0.631-4.945,0.631-4.945C57.694,83.079,58.514,83.195,58.723,83.287z"/>
			<path fill="#791F52" d="M70.594,82.33c0,0,0.861,1.32,0.629,4.945c-0.002,0.021-1.049,0.021-1.049,0.021
				s-0.875-1.568-1.867-1.818c-0.281-0.068-0.326-0.372,0-0.488c0.326-0.117,0.631-0.445,0.676-0.816
				c0.049-0.371-0.021-0.795,0.186-0.887C69.379,83.195,70.196,83.079,70.594,82.33z"/>
			<path fill="#791F52" d="M65.768,84.149c-0.373-0.608-0.838-0.954-1.842-0.954c0,0-1.586-0.141-1.982,0.945
				c0,0,1.207-0.231,1.945-0.231C64.838,83.909,65.768,84.149,65.768,84.149z"/>
			<path fill="#791F52" d="M59.862,83.446c-0.09,0.372,0.086,0.339,0.086,0.339l0.586,0.335c0.299,0.098,0.273-0.089,0.273-0.089
				c0.316-0.539,1.322-2.134,3.26-2.05c1.691,0.073,2.734,1.683,3.057,2.212c0.158,0.256,0.377,0.064,0.377,0.064
				c0.146-0.064,0.242-0.135,0.406-0.244c0.289-0.199,0.074-0.531,0.074-0.531c-0.385-0.719-1.68-2.658-3.914-2.621
				c-2.611,0.045-3.865,2.012-4.201,2.635"/>
			<path fill="#791F52" d="M58.374,81.189c-0.303,0.658,0.895,0.938,1.191,0.535c0.922-1.263,2.543-2.052,4.615-2.074
				c2.078-0.027,3.75,1.732,4.318,2.264c0.371,0.349,1.383-0.087,0.885-0.795c-1.965-2.789-5.131-2.705-5.131-2.705
				C60.545,78.389,58.737,80.402,58.374,81.189z"/>
			<path fill="#791F52" d="M65.44,77.51c-0.23-0.187-0.766-0.327-1.678-0.327c-0.932,0-1.701,0.281-1.701,0.281l-0.693-0.257
				c0.553-0.369,0.961-0.644,2.313-0.623c1.643,0.022,2.391,0.646,2.391,0.646L65.44,77.51z"/>
			<path fill="#FFFFFF" d="M72.499,89.092c0,0,0.031,1.189,0,1.717c-0.037,0.523-0.734,0.628-0.734,0.628s-14.979,0.034-15.641,0
				c-0.666-0.034-0.559-0.628-0.559-0.628s0-1.157,0-1.646c0-0.49,0.734-0.665,0.734-0.665h15.568
				C72.499,88.463,72.499,89.092,72.499,89.092z"/>
		</g>
		<g>
			<defs>
				<circle id="SVGID_5_" cx="52.063" cy="17.244" r="2.5"/>
			</defs>
			<use xlink:href="#SVGID_5_"  overflow="visible" fill="#FFFFFF"/>
			<clipPath id="SVGID_6_">
				<use xlink:href="#SVGID_5_"  overflow="visible"/>
			</clipPath>
			<g clip-path="url(#SVGID_6_)">
				<rect x="49.396" y="16.935" fill="#791F52" width="5.334" height="0.62"/>
				<rect x="51.731" y="14.619" fill="#791F52" width="0.666" height="5.25"/>
			</g>
		</g>
		<path fill="#791F52" stroke="#FFFFFF" d="M69.104,23.775c0,1.289-7.424,0-16.582,0c-9.159,0-16.583,1.289-16.583,0
			s7.425-2.333,16.583-2.333C61.68,21.442,69.104,22.486,69.104,23.775z"/>
		<g>
			<rect x="17.662" y="33.064" fill="#FFFFFF" width="2.939" height="45.688"/>
			<g>
				<path fill="#FFFFFF" d="M28.837,30.079c-0.144,6.306-5.34,5.972-9.258,5.972c-3.917,0-10.423,0.626-10.75-5.674
					c-0.633-12.2,7.438-18.161,9.854-18.215C20.999,12.109,29.136,16.939,28.837,30.079z"/>
				<path fill="#791F52" d="M21.055,33.874c-0.155,1.086-0.904,1.503-1.893,1.503c-0.99,0-2.171-0.234-2.171-3.45
					s1.301-9.314,2.291-9.314C20.271,22.612,21.567,30.277,21.055,33.874z"/>
			</g>
			<g>
				<path fill="#FFFFFF" d="M19.916,89.965c0,0-3.23-2.627-3.688-3.069s-3.301-3.301-3.301-3.301l6.438-8.203l11.467,14.632
					L19.916,89.965z"/>
				<path fill="#791F52" d="M17.569,88.079c0,0-1.446-1.281-1.909-1.725c-0.818-0.784-1.454-1.461-1.454-1.461l5.158-5.991
					l7.898,9.177H17.569z"/>
			</g>
		</g>
	</g>
</g>
</svg>
