<?xml version="1.0" encoding="utf-8"?>
<!-- Generator: Adobe Illustrator 13.0.0, SVG Export Plug-In . SVG Version: 6.00 Build 14948)  -->
<!DOCTYPE svg PUBLIC "-//W3C//DTD SVG 1.1//EN" "http://www.w3.org/Graphics/SVG/1.1/DTD/svg11.dtd">
<svg version="1.1" id="レイヤー_1" xmlns="http://www.w3.org/2000/svg" xmlns:xlink="http://www.w3.org/1999/xlink" x="0px"
	 y="0px" width="100px" height="100px" viewBox="0 0 100 100" enable-background="new 0 0 100 100" xml:space="preserve">
<g>
	<defs>
		<path id="SVGID_1_" d="M0.061,47.521C1.353,21.059,23.217,0,50,0c27.614,0,50,22.386,50,50s-22.386,50-50,50S0,77.614,0,50
			C0,49.169,0.021,48.342,0.061,47.521z"/>
	</defs>
	<use xlink:href="#SVGID_1_"  overflow="visible" fill="#791F52"/>
	<clipPath id="SVGID_2_">
		<use xlink:href="#SVGID_1_"  overflow="visible"/>
	</clipPath>
	<g clip-path="url(#SVGID_2_)">
		<path fill="#FFFFFF" d="M50.58,77.593c0.062,0.022,5.209,1.271,6.505,5.788c0.026,0.088,0.855,0,0.855,0s0.348-3.468,8.877-6.775
			c5.641-2.184,10.721-7.229,12.892-11.83c2.168-4.603,3.34-9.058,2.893-14.928c-0.7-9.185-2.365-10.44-4.799-15.436
			c-3.063-6.297-8.618-10.862-12.363-12.641c-3.751-1.772-7.072-2.137-12.661-0.884c0,0-3.847,0.967-7.394,3.976
			c-4.083,3.466-4.729,5.328-6.11,7.235c-1.378,1.907-4.577,7.101-5.852,14.394c-1.023,5.847-0.134,9.863,0,10.522
			c0.13,0.655,0.79,3.89,1.515,5.403C35.66,63.929,38.334,73.081,50.58,77.593z"/>
		<path fill="#791F52" d="M71.259,27.393c5.602,5.615,7.268,10.81,8.29,13.95c0.977,3,2.227,6.087,1.737,13.258
			c-0.543,7.932-4.974,13.465-6.944,15.653c-1.974,2.192-5.486,4.438-11.623,7.014c-4.111,1.728-5.11,4.309-5.192,4.13
			c-1.357-2.939-5.627-4.569-7.408-5.268c-3.165-1.237-12.087-6.129-14.658-15.946c-1.919-7.323-1.095-12.609-0.877-13.704
			c0.22-1.099,1.98-8.837,7.496-16.75c2.328-3.342,6.824-5.947,9.017-7.014c2.281-1.107,6.372-1.913,10.951-0.896
			C65.974,22.697,70.54,26.668,71.259,27.393z"/>
		<path fill="#FFFFFF" d="M57.695,48.193c0,0-4.343-0.523-8.493,3.143c-3.199,2.825-4.726,5.953-5.223,10.38
			c-0.376,3.336,0.461,7.339,2.638,10.185c1.74,2.279,3.092,4.553,7.576,5.625c4.322,1.036,8.76,0.318,12.057-2.867
			c2.76-2.666,5.031-6.539,4.986-12.405c-0.038-5.536-3.304-9.372-5.743-11.39C62.997,48.794,59.735,48.193,57.695,48.193z"/>
		<circle fill="#FFFFFF" cx="49.072" cy="33.409" r="7.785"/>
		<circle fill="#FFFFFF" cx="66.244" cy="33.409" r="7.785"/>
		<path fill="#791F52" d="M49.072,36.529c1.722,0,3.118-1.395,3.118-3.12c0-1.724-1.396-3.122-3.118-3.122
			c-1.726,0-3.122,1.398-3.122,3.122C45.95,35.135,47.347,36.529,49.072,36.529z"/>
		<circle fill="#791F52" cx="66.244" cy="33.408" r="3.121"/>
		<path fill="#791F52" d="M57.068,33.236l-9.952,9.95c0,0-0.841,0.397-0.136,1.254c0.997,1.207,9.864,10.04,9.864,10.04
			s0.851,1.032,1.434,0.226c0.56-0.771,10.225-10.083,10.225-10.083s0.855-0.584-0.087-1.392c-0.867-0.741-9.822-10.04-9.822-10.04
			S57.83,32.249,57.068,33.236z"/>
		<path fill="#FFFFFF" d="M57.517,34.132L48.1,43.453c0,0-0.491,0.226-0.041,0.672c0.446,0.449,9.279,9.368,9.279,9.368
			s0.228,0.45,0.671,0c0.45-0.447,9.422-9.276,9.422-9.276s0.269-0.271-0.135-0.629c-0.547-0.482-9.238-9.413-9.238-9.413
			S57.744,33.773,57.517,34.132z"/>
		<path fill="#791F52" d="M57.295,37.359l-8.384,6.229c0,0-0.315,0.271,0,0.494c0.313,0.224,8.249,7.799,8.249,7.799
			s0.562,0.605,0.94,0.092c0.035-0.047,8.298-7.577,8.298-7.577s0.802-0.348,0.09-0.627c-0.026-0.008-8.479-6.409-8.479-6.409
			S57.651,37.089,57.295,37.359z"/>
		<g>
			<defs>
				<path id="SVGID_3_" d="M73.528,26.874c0,0-7.066-2.104-16.224-2.104c-9.156,0-15.676,2.403-15.676,2.403
					c0-9.024,6.21-16.215,15.368-16.215C66.152,10.958,73.528,17.85,73.528,26.874z"/>
			</defs>
			<use xlink:href="#SVGID_3_"  overflow="visible" fill="#791F52"/>
			<clipPath id="SVGID_4_">
				<use xlink:href="#SVGID_3_"  overflow="visible"/>
			</clipPath>
			<rect x="39.82" y="19.826" clip-path="url(#SVGID_4_)" fill="#FFFFFF" width="35.886" height="2.428"/>
			<use xlink:href="#SVGID_3_"  overflow="visible" fill="none" stroke="#FFFFFF"/>
		</g>
		<polygon fill="#791F52" stroke="#FFFFFF" points="19.185,51.002 32.937,51.002 41.944,27.24 35.595,25.584 		"/>
		<polygon fill="#791F52" stroke="#FFFFFF" points="95.533,50.013 81.781,50.013 72.775,26.251 79.123,24.595 		"/>
		<g>
			<path fill="#FFFFFF" d="M35.593,50.106c0,0,1.231-2.475,0.092-5.285c-1.154-2.846-3.627-3.649-5.029-4.488
				c-1.409-0.838-4.498-1.252-5.506-1.476c-1.014-0.22-3.924-0.608-4.472-0.592c-0.549,0.018-0.851,0.164-0.563,1.198
				c0.201,0.719,0.354,1.541,0.721,2.347c0.169,0.371,0.383,0.741,0.669,1.094c0.7,0.871,1.894,1.972,1.798,1.63
				c-0.026-0.081-1.775,0.425-2.815,0.753c-1.151,0.364-1.876,0.837-2.167,1.368c-0.293,0.533,2.463,2.395,3.344,2.88
				c1.384,0.767,2.953,0.971,3.625,1.101c0.021,0.004-1.25,1.844-1.605,2.959c-0.456,1.431-0.05,1.618,1.048,2.089
				c0.877,0.38,2.092-0.071,2.69-0.238C32.899,53.913,35.593,50.106,35.593,50.106z"/>
			<path fill="#791F52" d="M33.431,43.872c0,0-1.194-1.96-4.722-2.929c-3.235-0.889-5.051-1.052-5.749-1.147
				c-0.702-0.096-1.521-0.432-1.321,0.403c0.137,0.571,0.747,2.516,2.202,3.357c1.667,0.969,1.821,1.28,1.588,1.704
				c-0.234,0.427-0.876,0.449-2.025,0.614c-1.154,0.169-1.641,0.391-2.326,0.525c-0.664,0.128-0.721,0.576-0.721,0.576
				s1.693,1.549,3.259,2.039c2.387,0.737,2.422,0.409,2.91,0.422c0.419,0.006,0.729,0.359,0.468,0.938
				c-0.258,0.574-1.298,2.099-1.571,2.581c-0.272,0.477-0.59,1.089-0.366,1.318c0.471,0.485,2.29-0.254,2.943-0.337
				c2.339-0.294,5.896-3.544,5.896-3.544s1.133-1.677,0.995-3.126C34.772,46.036,34.437,44.705,33.431,43.872z"/>
		</g>
		<circle fill="#791F52" stroke="#FFFFFF" cx="57.043" cy="21.082" r="2.403"/>
		<g>
			<path fill="none" stroke="#FFFFFF" stroke-width="4.9606" d="M86.601,56.886c3.746,1.682,5.523,1.86,12.523,2.86"/>
			<path fill="#FFFFFF" d="M23.157,43.866c2.129,0.965,4.082,0.971,4.99,1.59c1.75,1.194,1.147,2.823,0.973,3.907
				c-0.164,1.016,1.044,2.485-0.81,2.87c-0.969,0.201-3.304-0.004-5.353,0.083c-2.541,0.106-7.841,0.825-8.359,0.743
				c-0.983-0.158-1.539-3.417-1.014-6.693c0.525-3.275,1.75-5.805,2.731-5.645C16.807,40.799,20.747,42.771,23.157,43.866z"/>
			
				<ellipse transform="matrix(0.9894 0.1452 -0.1452 0.9894 6.9675 -1.8164)" fill="#791F52" cx="15.926" cy="46.818" rx="1.802" ry="4.805"/>
			
				<rect x="25.995" y="49.31" transform="matrix(0.9899 0.1419 -0.1419 0.9899 8.1277 -7.6741)" fill="#FFFFFF" stroke="#791F52" width="63.759" height="7.689"/>
			
				<rect x="25.329" y="44.1" transform="matrix(0.9899 0.1417 -0.1417 0.9899 7.1445 -3.2356)" fill="#791F52" stroke="#FFFFFF" width="1.923" height="8.891"/>
			
				<rect x="88.126" y="53.1" transform="matrix(0.9899 0.1416 -0.1416 0.9899 9.0485 -12.0378)" fill="#791F52" stroke="#FFFFFF" width="1.924" height="8.891"/>
		</g>
		<g>
			<path fill="#FFFFFF" d="M85.284,57.372c0,0,1.919-1.988,1.681-5.011c-0.244-3.063-2.36-4.573-3.445-5.796
				c-1.093-1.224-3.91-2.549-4.806-3.063c-0.899-0.517-3.558-1.763-4.087-1.913c-0.526-0.148-0.86-0.1-0.897,0.973
				c-0.024,0.747-0.126,1.577-0.019,2.455c0.049,0.405,0.143,0.822,0.306,1.245c0.407,1.042,1.215,2.449,1.226,2.097
				c0-0.086-1.82-0.132-2.911-0.132c-1.207,0-2.041,0.233-2.479,0.652c-0.439,0.42,1.628,3.025,2.32,3.754
				c1.089,1.146,2.523,1.813,3.126,2.141c0.019,0.01-1.748,1.382-2.422,2.337c-0.865,1.229-0.537,1.528,0.37,2.31
				c0.721,0.625,2.016,0.562,2.636,0.582C81.569,60.191,85.284,57.372,85.284,57.372z"/>
			<path fill="#791F52" d="M85.101,50.776c0,0-0.549-2.23-3.621-4.215c-2.818-1.82-4.499-2.522-5.135-2.825
				c-0.643-0.302-1.32-0.869-1.384-0.013c-0.039,0.584-0.045,2.622,1.089,3.863c1.299,1.427,1.352,1.769,1.001,2.104
				c-0.352,0.336-0.969,0.163-2.114-0.026c-1.152-0.186-1.684-0.12-2.377-0.199c-0.674-0.077-0.861,0.333-0.861,0.333
				s1.148,1.987,2.493,2.927c2.054,1.423,2.185,1.118,2.646,1.276c0.398,0.133,0.588,0.564,0.166,1.036
				c-0.419,0.47-1.87,1.61-2.277,1.988c-0.404,0.373-0.891,0.861-0.746,1.145c0.303,0.606,2.261,0.451,2.906,0.569
				c2.322,0.422,6.693-1.607,6.693-1.607s1.582-1.256,1.891-2.679C85.728,53.245,85.809,51.875,85.101,50.776z"/>
		</g>
		<path fill="#FFFFFF" d="M5.326,32.944L16.835,44.59c0.021,0.058-0.005,1.66-0.186,2.468c-0.203,0.899-0.556,1.914-0.556,1.914
			L1.715,55.327l6.003-5.053c-0.443,0.023-0.937,0.051-1.459,0.08c-2.2,0.122-4.894,0.282-6.256,0.363l0.021-0.321L5.4,48.161
			L0.06,47.612l0.053-1.084l4.213-1.473L0.331,43.55l0.201-1.071l5.074-0.779l-4.209-3.625l0.07-0.394l8.135,2.237L5.326,32.944z"/>
		<g>
			<path fill="#FFFFFF" d="M42.755,73.286v6.222c0,0-2.392,1.708-3.263,3.9c-1.025,2.576-0.604,2.723-0.604,4.941
				c0,0.067-0.875,0.236-1.209,1.346c-0.338,1.11-0.036,2.22,0.03,2.456c0.069,0.236,0.676,1.378,1.718,1.378
				c0.875,0,15.503,0,15.503,0s1.228-0.601,1.309-1.412c0.092-0.88,0-2.219,0-2.219s-0.191-1.244-1.177-1.457
				c-0.048-0.011,0.794-3.244-1.078-6.077c-1.134-1.723-1.712-1.914-2.082-2.355c-0.372-0.436-0.539-0.771-0.572-1.276
				c-0.03-0.506,0-1.343,0-1.343L42.755,73.286z"/>
			<path fill="#791F52" d="M44,74.463l-0.036,3.871c0,0,2.739-2.227,6.356-0.356l0.066-0.558c0,0-1.555-0.449-3.193-1.245
				C45.213,75.224,44.436,74.766,44,74.463z"/>
			<path fill="#791F52" d="M42.486,88.282h8.978c0,0-1.648-2.017-4.539-1.984C44.2,86.332,42.889,87.779,42.486,88.282z"/>
			<path fill="#791F52" d="M53.369,83.532c0,0,0.828,1.27,0.606,4.752c-0.004,0.022-1.008,0.022-1.008,0.022
				s-0.845-1.51-1.797-1.748c-0.271-0.065-0.312-0.358,0-0.469c0.315-0.113,0.606-0.431,0.653-0.785
				c0.042-0.356-0.024-0.766,0.177-0.853C52.206,84.362,52.99,84.252,53.369,83.532z"/>
			<path fill="#791F52" d="M41.959,84.452c0.203,0.087,0.135,0.496,0.179,0.853c0.049,0.354,0.338,0.672,0.653,0.785
				c0.313,0.11,0.267,0.403,0,0.469c-0.954,0.238-1.795,1.748-1.795,1.748s-1.008,0-1.01-0.022
				c-0.224-3.482,0.606-4.752,0.606-4.752C40.974,84.252,41.758,84.362,41.959,84.452z"/>
			<path fill="#791F52" d="M47.039,85.049c0.71,0,1.866,0.224,1.866,0.224c-0.377-1.046-1.901-0.91-1.901-0.91
				c-0.968,0-1.412,0.334-1.772,0.918C45.231,85.28,46.125,85.049,47.039,85.049z"/>
			<path fill="#791F52" d="M50.906,84.653c-0.322-0.601-1.53-2.489-4.038-2.534c-2.147-0.034-3.393,1.83-3.766,2.521
				c0,0-0.207,0.317,0.073,0.511c0.157,0.104,0.248,0.171,0.393,0.235c0,0,0.21,0.182,0.36-0.064
				c0.312-0.507,1.311-2.056,2.939-2.125c1.856-0.081,2.827,1.451,3.132,1.972c0,0-0.024,0.178,0.265,0.084l0.56-0.323
				c0,0,0.173,0.034,0.082-0.324"/>
			<path fill="#791F52" d="M46.69,79.769c0,0-3.048-0.081-4.935,2.6c-0.48,0.68,0.496,1.099,0.853,0.763
				c0.543-0.509,2.151-2.202,4.147-2.176c1.995,0.022,3.55,0.78,4.439,1.995c0.282,0.385,1.433,0.118,1.146-0.514
				C51.991,81.68,50.253,79.744,46.69,79.769z"/>
			<path fill="#791F52" d="M44.942,78.629c0,0,0.717-0.599,2.292-0.621c1.305-0.02,1.691,0.245,2.227,0.601l-0.668,0.246
				c0,0-0.736-0.271-1.632-0.271c-0.879,0-1.391,0.135-1.616,0.313L44.942,78.629z"/>
			<path fill="#FFFFFF" d="M39.37,89.459h14.963c0,0,0.705,0.169,0.705,0.639c0,0.471,0,1.582,0,1.582s0.102,0.573-0.534,0.604
				c-0.643,0.032-15.034,0-15.034,0s-0.674-0.099-0.706-0.604c-0.035-0.505,0-1.649,0-1.649S38.764,89.428,39.37,89.459z"/>
		</g>
		<g>
			<path fill="#FFFFFF" d="M64.158,77.39c0,0,0.032,0.837,0,1.343c-0.033,0.505-0.204,0.841-0.572,1.276
				c-0.372,0.441-0.946,0.633-2.086,2.355c-1.869,2.833-1.03,6.066-1.075,6.077c-0.985,0.213-1.179,1.457-1.179,1.457
				s-0.091,1.339,0,2.219c0.084,0.812,1.313,1.412,1.313,1.412s14.627,0,15.503,0c1.042,0,1.648-1.142,1.715-1.378
				c0.067-0.236,0.369-1.346,0.033-2.456c-0.334-1.109-1.211-1.278-1.211-1.346c0-2.219,0.419-2.365-0.603-4.941
				c-0.871-2.192-3.265-3.9-3.265-3.9v-6.222L64.158,77.39z"/>
			<path fill="#791F52" d="M68.294,76.175c-1.641,0.796-3.193,1.245-3.193,1.245l0.068,0.558c3.615-1.87,6.356,0.356,6.356,0.356
				l-0.036-3.871C71.054,74.766,70.275,75.224,68.294,76.175z"/>
			<path fill="#791F52" d="M68.564,86.298c-2.891-0.032-4.543,1.984-4.543,1.984h8.981C72.598,87.779,71.289,86.332,68.564,86.298z"
				/>
			<path fill="#791F52" d="M63.484,84.452c0.201,0.087,0.136,0.496,0.179,0.853c0.045,0.354,0.336,0.672,0.653,0.785
				c0.313,0.11,0.267,0.403,0,0.469c-0.954,0.238-1.799,1.748-1.799,1.748s-1.008,0-1.008-0.022
				c-0.226-3.482,0.606-4.752,0.606-4.752C62.495,84.252,63.284,84.362,63.484,84.452z"/>
			<path fill="#791F52" d="M74.896,83.532c0,0,0.827,1.27,0.604,4.752c-0.002,0.022-1.009,0.022-1.009,0.022
				s-0.841-1.51-1.794-1.748c-0.271-0.065-0.313-0.358,0-0.469c0.313-0.113,0.605-0.431,0.649-0.785
				c0.047-0.356-0.021-0.766,0.178-0.853C73.728,84.362,74.513,84.252,74.896,83.532z"/>
			<path fill="#791F52" d="M70.256,85.28c-0.358-0.584-0.805-0.918-1.77-0.918c0,0-1.524-0.136-1.906,0.91
				c0,0,1.16-0.224,1.87-0.224C69.362,85.049,70.256,85.28,70.256,85.28z"/>
			<path fill="#791F52" d="M64.579,84.604c-0.086,0.358,0.083,0.324,0.083,0.324l0.563,0.323c0.288,0.094,0.264-0.084,0.264-0.084
				c0.304-0.521,1.271-2.053,3.133-1.972c1.626,0.069,2.628,1.618,2.938,2.125c0.151,0.246,0.362,0.064,0.362,0.064
				c0.141-0.064,0.232-0.132,0.39-0.235c0.278-0.193,0.072-0.511,0.072-0.511c-0.37-0.69-1.615-2.555-3.763-2.521
				c-2.51,0.045-3.715,1.934-4.038,2.534"/>
			<path fill="#791F52" d="M63.148,82.437c-0.291,0.632,0.86,0.898,1.146,0.514c0.886-1.215,2.444-1.973,4.436-1.995
				c1.998-0.026,3.605,1.667,4.151,2.176c0.356,0.336,1.329-0.083,0.851-0.763c-1.889-2.681-4.932-2.6-4.932-2.6
				C65.236,79.744,63.498,81.68,63.148,82.437z"/>
			<path fill="#791F52" d="M69.94,78.897c-0.221-0.179-0.735-0.313-1.612-0.313c-0.896,0-1.635,0.271-1.635,0.271l-0.667-0.246
				c0.531-0.355,0.924-0.62,2.223-0.601c1.579,0.022,2.298,0.621,2.298,0.621L69.94,78.897z"/>
			<path fill="#FFFFFF" d="M76.726,90.03c0,0,0.03,1.145,0,1.649c-0.035,0.506-0.706,0.604-0.706,0.604s-14.397,0.032-15.033,0
				c-0.641-0.031-0.537-0.604-0.537-0.604s0-1.111,0-1.582c0-0.47,0.706-0.639,0.706-0.639h14.964
				C76.726,89.428,76.726,90.03,76.726,90.03z"/>
		</g>
	</g>
</g>
</svg>
