<?xml version="1.0" encoding="utf-8"?>
<!-- Generator: Adobe Illustrator 13.0.0, SVG Export Plug-In . SVG Version: 6.00 Build 14948)  -->
<!DOCTYPE svg PUBLIC "-//W3C//DTD SVG 1.1//EN" "http://www.w3.org/Graphics/SVG/1.1/DTD/svg11.dtd">
<svg version="1.1" id="レイヤー_1" xmlns="http://www.w3.org/2000/svg" xmlns:xlink="http://www.w3.org/1999/xlink" x="0px"
	 y="0px" width="100px" height="100px" viewBox="0 0 100 100" enable-background="new 0 0 100 100" xml:space="preserve">
<g>
	<defs>
		<circle id="SVGID_1_" cx="50" cy="50" r="50"/>
	</defs>
	<use xlink:href="#SVGID_1_"  overflow="visible" fill="#791F52"/>
	<clipPath id="SVGID_2_">
		<use xlink:href="#SVGID_1_"  overflow="visible"/>
	</clipPath>
	<g clip-path="url(#SVGID_2_)">
		<path fill="#FFFFFF" d="M42.319,75.835c0.069,0.024,5.896,1.438,7.361,6.55c0.029,0.099,0.97,0,0.97,0s0.392-3.926,10.043-7.668
			c6.385-2.472,12.135-8.18,14.59-13.388c2.454-5.208,3.779-10.251,3.273-16.894c-0.792-10.395-2.677-11.814-5.43-17.469
			c-3.467-7.125-9.755-12.293-13.993-14.304c-4.243-2.006-8.003-2.418-14.328-1.002c0,0-4.352,1.096-8.365,4.5
			c-4.621,3.923-5.351,6.029-6.915,8.188c-1.56,2.158-5.181,8.034-6.624,16.289c-1.157,6.616-0.15,11.162,0,11.908
			c0.148,0.742,0.896,4.403,1.715,6.115C25.436,60.371,28.46,70.729,42.319,75.835z"/>
		<path fill="#791F52" d="M65.721,19.023c6.34,6.354,8.225,12.232,9.382,15.788c1.105,3.395,2.519,6.888,1.967,15.004
			c-0.614,8.976-5.63,15.236-7.86,17.713c-2.232,2.481-6.207,5.022-13.153,7.938c-4.653,1.954-5.783,4.875-5.877,4.673
			c-1.534-3.325-6.367-5.171-8.383-5.96c-3.582-1.401-13.677-6.938-16.588-18.047c-2.171-8.289-1.238-14.271-0.991-15.51
			c0.246-1.242,2.239-10,8.481-18.955c2.635-3.783,7.724-6.73,10.206-7.938c2.58-1.252,7.211-2.166,12.392-1.014
			C59.741,13.709,64.907,18.203,65.721,19.023z"/>
		<path fill="#FFFFFF" d="M34.733,71.506v7.04c0,0-2.706,1.932-3.693,4.413c-1.159,2.916-0.684,3.082-0.684,5.594
			c0,0.076-0.989,0.266-1.369,1.521c-0.382,1.256-0.039,2.512,0.035,2.78c0.079,0.267,0.765,1.56,1.943,1.56
			c0.989,0,17.546,0,17.546,0s1.389-0.682,1.479-1.6c0.104-0.996,0-2.511,0-2.511s-0.217-1.409-1.332-1.647
			c-0.052-0.014,0.898-3.672-1.219-6.879c-1.282-1.949-1.938-2.166-2.355-2.664c-0.422-0.493-0.609-0.873-0.649-1.445
			c-0.034-0.572,0-1.52,0-1.52L34.733,71.506z"/>
		<path fill="#791F52" d="M36.142,72.838l-0.545,5.323c0,0,4.115-1.907,8.21,0.21l-0.437-2.188c0,0-1.759-0.509-3.614-1.409
			C37.514,73.695,36.635,73.178,36.142,72.838z"/>
		<path fill="#FFFFFF" d="M30.902,89.808h16.933c0,0,0.8,0.19,0.8,0.724c0,0.532,0,1.791,0,1.791s0.113,0.646-0.607,0.683
			c-0.725,0.037-17.012,0-17.012,0s-0.763-0.113-0.8-0.683c-0.039-0.573,0-1.868,0-1.868S30.216,89.771,30.902,89.808z"/>
		<path fill="#FFFFFF" d="M56.053,76.148c0,0,0.037,0.947,0,1.52s-0.231,0.952-0.648,1.445c-0.42,0.498-1.071,0.715-2.358,2.664
			c-2.117,3.207-1.167,6.865-1.219,6.879c-1.115,0.238-1.335,1.647-1.335,1.647s-0.102,1.515,0,2.511
			c0.097,0.918,1.487,1.6,1.487,1.6s16.554,0,17.546,0c1.179,0,1.864-1.293,1.938-1.56c0.076-0.269,0.42-1.524,0.04-2.78
			s-1.372-1.445-1.372-1.521c0-2.512,0.474-2.678-0.681-5.594c-0.987-2.481-3.695-4.413-3.695-4.413v-7.04L56.053,76.148z"/>
		<path fill="#791F52" d="M39.596,79.002c-9.266,0-7.579,9.474-7.579,9.474h15.579C47.137,87.906,48.859,79.002,39.596,79.002z"/>
		<path fill="#FFFFFF" d="M70.275,90.454c0,0,0.034,1.295,0,1.868c-0.04,0.569-0.8,0.683-0.8,0.683s-16.292,0.037-17.013,0
			c-0.725-0.037-0.609-0.683-0.609-0.683s0-1.259,0-1.791c0-0.533,0.8-0.724,0.8-0.724h16.936
			C70.275,89.771,70.275,90.454,70.275,90.454z"/>
		<polygon fill="#FFFFFF" points="36.859,89.107 35.597,88.897 37.067,79.001 38.33,79.001 		"/>
		<polygon fill="#FFFFFF" points="40.437,89.107 39.174,88.897 40.645,79.001 41.907,79.001 		"/>
		<path fill="#791F52" d="M60.91,74.773c-1.855,0.9-3.614,1.409-3.614,1.409l-0.437,2.188c4.096-2.117,8.21-0.21,8.21-0.21
			l-0.545-5.323C64.031,73.178,63.152,73.695,60.91,74.773z"/>
		<path fill="#791F52" d="M60.858,79.002c-9.266,0-7.578,9.474-7.578,9.474h15.579C68.4,87.906,70.122,79.002,60.858,79.002z"/>
		<polygon fill="#FFFFFF" points="63.592,89.107 64.855,88.897 63.385,79.001 62.121,79.001 		"/>
		<polygon fill="#FFFFFF" points="60.015,89.107 61.278,88.897 59.808,79.001 58.545,79.001 		"/>
		<polygon fill="#791F52" stroke="#FFFFFF" points="27.033,50.128 27.036,58.957 21.02,39.93 23.273,38.921 		"/>
		<polygon fill="#791F52" stroke="#FFFFFF" points="72.791,49.376 72.788,58.205 78.805,39.178 76.551,38.169 		"/>
		<path fill="#FFFFFF" d="M27.463,28.279c0,0-0.538-2.949-3.355-4.648c-2.847-1.722-5.516-0.814-7.282-0.631
			c-1.767,0.188-4.712,1.83-5.733,2.294c-1.023,0.466-3.801,2.019-4.268,2.388c-0.466,0.37-0.637,0.695,0.289,1.406
			c0.939,0.723,1.934,1.697,3.438,2.088c1.175,0.301,2.929,0.479,2.62,0.246c-0.076-0.055-1.266,1.52-1.956,2.482
			c-0.765,1.061-1.086,1.943-0.992,2.592c0.094,0.654,3.695,0.481,4.773,0.33c1.7-0.233,3.192-1.072,3.861-1.398
			c0.02-0.01,0.113,2.413,0.527,3.611c0.533,1.54,1.005,1.439,2.265,1.136c1.012-0.239,1.809-1.394,2.182-1.954
			C24.201,37.663,27.463,28.279,27.463,28.279z"/>
		<path fill="#791F52" d="M21.537,24.27c0,0-2.309-0.928-5.999,0.523c-3.39,1.33-5.067,2.365-5.738,2.736
			c-0.669,0.372-1.602,0.611-0.884,1.209c0.486,0.404,2.282,1.697,4.091,1.484c2.079-0.242,2.41-0.071,2.486,0.449
			c0.074,0.521-0.471,0.957-1.364,1.848c-0.893,0.896-1.167,1.404-1.675,1.967c-0.493,0.542-0.254,0.967-0.254,0.967
			s2.474,0.246,4.154-0.346c2.553-0.908,2.368-1.217,2.797-1.521c0.37-0.268,0.871-0.161,1.02,0.51
			c0.147,0.666,0.231,2.664,0.306,3.262c0.074,0.592,0.197,1.334,0.543,1.381c0.432,0.055,2.625-1.643,2.772-2.338
			c0.239-1.11,2.383-6.77,2.383-6.77s-0.105-2.191-1.166-3.359C24.103,25.279,22.948,24.342,21.537,24.27z"/>
		<g>
			<path fill="#FFFFFF" d="M76.938,38.221c0.372,0.561,1.172,1.715,2.181,1.954c1.261,0.304,1.731,0.404,2.265-1.136
				c0.417-1.198,0.508-3.621,0.528-3.611c0.668,0.326,2.163,1.165,3.86,1.398c1.081,0.151,4.683,0.324,4.773-0.33
				c0.094-0.648-0.229-1.531-0.991-2.592c-0.691-0.963-1.883-2.537-1.957-2.482c-0.306,0.232,1.446,0.055,2.62-0.246
				c1.508-0.391,2.502-1.365,3.439-2.088c0.923-0.711,0.755-1.036,0.288-1.406c-0.464-0.369-3.244-1.922-4.266-2.388
				c-1.021-0.464-3.969-2.106-5.737-2.294c-1.765-0.184-4.431-1.091-7.283,0.631c-2.813,1.699-3.35,4.648-3.35,4.648
				S76.568,37.663,76.938,38.221z"/>
			<path fill="#791F52" d="M75.762,26.271c-1.059,1.168-1.165,3.359-1.165,3.359s2.517,4.843,2.817,6.907
				c0.104,0.706,1.613,2.317,2.339,2.2c0.343-0.054,0.464-0.789,0.538-1.381c0.074-0.598,0.163-2.596,0.311-3.262
				c0.148-0.671,0.646-0.777,1.017-0.51c0.429,0.305,0.247,0.613,2.798,1.521c1.677,0.592,4.154,0.346,4.154,0.346
				s0.241-0.425-0.252-0.967c-0.508-0.563-0.784-1.071-1.678-1.967c-0.893-0.891-1.436-1.327-1.361-1.848s0.407-0.691,2.486-0.449
				c1.809,0.213,3.602-1.08,4.091-1.484c0.715-0.598-0.215-0.837-0.886-1.209c-0.669-0.371-2.349-1.406-5.736-2.736
				c-3.69-1.451-5.999-0.523-5.999-0.523C77.819,24.342,76.664,25.279,75.762,26.271z"/>
		</g>
		<polygon fill="#791F52" stroke="#FFFFFF" stroke-linecap="round" points="37.521,72.596 33.886,72.596 32.006,76.76 
			35.516,76.975 		"/>
		<polygon fill="#791F52" stroke="#FFFFFF" stroke-linecap="round" points="64.193,72.256 67.828,72.256 69.708,76.42 
			66.198,76.635 		"/>
		<g>
			<g>
				<g>
					<linearGradient id="SVGID_3_" gradientUnits="userSpaceOnUse" x1="50.5825" y1="38.1846" x2="50.5825" y2="21.2305">
						<stop  offset="0" style="stop-color:#D3EDFB"/>
						<stop  offset="0.1922" style="stop-color:#BAB8C9"/>
						<stop  offset="0.4103" style="stop-color:#A18096"/>
						<stop  offset="0.6082" style="stop-color:#8F5674"/>
						<stop  offset="0.7787" style="stop-color:#823960"/>
						<stop  offset="0.9149" style="stop-color:#7B2656"/>
						<stop  offset="1" style="stop-color:#791F52"/>
					</linearGradient>
					<path fill="url(#SVGID_3_)" d="M26.93,38.185c0,0,0-3.814,0-8.478c0-4.662,3.827-8.477,8.504-8.477h30.298
						c4.677,0,8.504,3.725,8.504,8.276s0,8.276,0,8.276"/>
					<path fill="none" stroke="#FFFFFF" d="M26.93,38.185c0,0,0-3.814,0-8.478c0-4.662,3.827-8.477,8.504-8.477h30.298
						c4.677,0,8.504,3.725,8.504,8.276s0,8.276,0,8.276"/>
				</g>
				<g>
					
						<linearGradient id="SVGID_4_" gradientUnits="userSpaceOnUse" x1="507.9453" y1="-192.3262" x2="507.9453" y2="-228.4922" gradientTransform="matrix(-1 0 0 -1 558.5273 -155.8789)">
						<stop  offset="0" style="stop-color:#D3EDFB"/>
						<stop  offset="0.1156" style="stop-color:#BEC0D0"/>
						<stop  offset="0.2421" style="stop-color:#AA95A7"/>
						<stop  offset="0.3706" style="stop-color:#9A6F88"/>
						<stop  offset="0.4986" style="stop-color:#8D5271"/>
						<stop  offset="0.6258" style="stop-color:#843D62"/>
						<stop  offset="0.7522" style="stop-color:#7E2C59"/>
						<stop  offset="0.8773" style="stop-color:#7A2154"/>
						<stop  offset="1" style="stop-color:#791F52"/>
					</linearGradient>
					<path fill="url(#SVGID_4_)" d="M74.235,36.447v27.662c0,4.677-3.827,8.504-8.504,8.504H35.434
						c-4.677,0-8.504-3.827-8.504-8.504V37.304"/>
					<path fill="none" stroke="#FFFFFF" d="M74.235,36.447v27.662c0,4.677-3.827,8.504-8.504,8.504H35.434
						c-4.677,0-8.504-3.827-8.504-8.504V37.304"/>
				</g>
			</g>
			<g>
				<line fill="none" stroke="#FFFFFF" stroke-linecap="round" x1="32.97" y1="22.014" x2="32.452" y2="63.417"/>
				<line fill="none" stroke="#FFFFFF" stroke-linecap="round" x1="32.452" y1="63.417" x2="68.692" y2="63.935"/>
				<line fill="none" stroke="#FFFFFF" stroke-linecap="round" x1="68.692" y1="63.935" x2="67.266" y2="21.754"/>
				<circle fill="#FFFFFF" cx="33.787" cy="67.171" r="1.688"/>
				<circle fill="#FFFFFF" cx="67.914" cy="67.171" r="1.688"/>
			</g>
		</g>
	</g>
</g>
</svg>
